<?xml version="1.0" encoding="utf-8"?>
<!-- Generator: Adobe Illustrator 15.0.0, SVG Export Plug-In  -->
<!DOCTYPE svg PUBLIC "-//W3C//DTD SVG 1.1//EN" "http://www.w3.org/Graphics/SVG/1.1/DTD/svg11.dtd" [
	<!ENTITY ns_flows "http://ns.adobe.com/Flows/1.0/">
	<!ENTITY st0 "fill:#E08648;">
	<!ENTITY st1 "opacity:0.85;">
	<!ENTITY st2 "fill:#B73055;">
	<!ENTITY st3 "fill:#FCD58E;">
]>
<svg version="1.1"
	 xmlns="http://www.w3.org/2000/svg" xmlns:xlink="http://www.w3.org/1999/xlink" xmlns:a="http://ns.adobe.com/AdobeSVGViewerExtensions/3.0/"
	 x="0px" y="0px" width="196px" height="174px" viewBox="-52.846 -37.088 196 174"
	 style="overflow:visible;enable-background:new -52.846 -37.088 196 174;" xml:space="preserve">
<defs>
</defs>
<g>
	<circle style="&st3;" cx="48.555" cy="48.556" r="47.159"/>
	<g>
		<g>
			<g style="&st1;">
				<g>
					<path style="&st0;" d="M72.245,88.957c-0.845,0.486-1.709,0.959-2.59,1.393l1.355-0.61
						C71.588,89.45,71.854,89.24,72.245,88.957z"/>
					<polygon style="&st0;" points="67.188,91.492 66.706,91.692 66.302,91.883 					"/>
					<path style="&st0;" d="M62.407,93.323c0.87-0.251,1.688-0.546,2.468-0.847L62.407,93.323z"/>
					<path style="&st0;" d="M66.273,92.004c-0.306,0.088-0.461,0.111,0.011-0.113l0.018-0.008c-0.467,0.208-0.936,0.395-1.427,0.593
						L66.273,92.004z"/>
					<path style="&st0;" d="M66.273,92.004l0.916-0.288L66.273,92.004z"/>
					<path style="&st0;" d="M65.366,93.271c-0.486,0.206-0.449-0.059-1.412,0.335c-2.284,0.845-4.29,1.474-6.54,1.907
						c-1.016,0.256-2.682,0.23-3.702,0.391c-1.21,0.18-3.374,0.414-4.787,0.501c-1.412,0.089-2.062,0.149-0.21,0.159
						c2.788-0.032,5.082-0.288,7.277-0.656c2.194-0.374,4.297-0.87,6.674-1.624c3.842-1.288,7.361-3.003,10.834-5.225
						c0.978-0.617,1.882-1.2,2.778-1.816c-1.174,0.796-2.41,1.558-3.815,2.337C70.603,90.573,68.473,92.042,65.366,93.271z"/>
					<path style="&st0;" d="M87.902,74.211c-0.255,0.441-0.79,1.325-0.796,1.321c-1.45,1.78-2.907,3.688-4.522,5.478
						c0.272-0.224,0.544-0.459,0.816-0.703c0.912-1.035,0.956-1.206,0.111-0.32c1.975-1.993,3.604-4.119,5.02-6.442
						C88.384,73.653,88.343,73.586,87.902,74.211z"/>
					<path style="&st0;" d="M89.338,72.168c-0.269,0.462-0.527,0.933-0.807,1.376l0.048-0.038c0.28-0.458,0.532-0.931,0.793-1.384
						L89.338,72.168z"/>
					<path style="&st0;" d="M51.757,95.535c-6.836,0.472-13.349-0.557-19.25-2.734c-0.466-0.129-0.81-0.185-1.402-0.459
						l-1.329-0.648c-0.844-0.368-1.669-0.771-2.48-1.183l-0.867-0.432l-0.025-0.012c-0.468-0.216-0.351-0.112-0.085,0.067
						l0.813,0.525l-0.813-0.525l-1.264-0.777c-0.731-0.407-1.486-0.855-2.235-1.359l2.235,1.359
						c0.472,0.249,0.914,0.499,1.374,0.722l0.406,0.189c-1.853-0.979-3.635-2.071-5.332-3.283c-0.398-0.267-0.77-0.535-1.075-0.752
						c-1.232-0.874-2.41-1.823-3.032-2.527l-0.823-0.756l0.145,0.16l-0.293-0.301c-1.14-1.081-2.229-2.225-3.261-3.427
						c-0.705-0.74-1.414-1.524-2.085-2.346l-0.536-0.925c-0.299-0.314-0.691-0.791-1.105-1.381c0.414,0.752,0.802,1.432,1.198,2.047
						c0.546,0.933,1.64,1.742,2.298,2.832c-0.659-1.09-1.752-1.899-2.298-2.832c-0.396-0.615-0.784-1.295-1.198-2.047
						c-0.872-1.217-1.833-2.914-2.447-4.349c0.991,1.664,1.755,3.096,2.447,4.349c0.414,0.59,0.806,1.066,1.105,1.381l0.536,0.925
						c0.671,0.821,1.38,1.605,2.085,2.346c-2.013-2.343-3.812-4.907-5.364-7.688c-4.984-8.958-6.863-19.112-5.62-28.944
						c1.251-9.821,5.698-19.387,13.149-26.913C23.419,7.688,34.173,3.089,44.862,2.392C55.537,1.66,65.89,4.549,74.348,10.286
						c8.462,5.697,15.02,14.38,17.891,24.692c0.56,1.97,1.125,4.394,1.494,7.064c0.368,2.669,0.532,5.583,0.409,8.478
						c-0.198,5.808-1.712,11.445-3.21,15.084c-0.897,2.487-1.575,3.995-1.891,4.93c-0.34,0.923-0.341,1.266-0.177,1.296
						c0.328,0.063,1.317-1.148,1.454-1.37c1.932-2.774,3.206-5.565,4.306-9.309c1.043-3.752,2.03-8.503,1.915-15.474
						c0.054,2.372-0.067,3.116-0.113,2.766c-0.063-0.35-0.098-1.794-0.279-3.8c-0.174-2.006-0.525-4.572-1.088-7.154
						c-0.559-2.583-1.32-5.178-2.045-7.303c-2.003-6.176-6.43-13.12-12.82-18.489C73.852,6.275,65.743,2.53,57.839,0.92
						c-3.951-0.825-8.278-1.13-13.089-0.772c-12.502,0.83-24.164,6.651-32.308,15.809C4.284,25.071-0.519,37.491,0.045,50.67
						c0.334,6.98,2.24,12.938,4.776,18.165c1.798,3.858,4.226,7.743,6.448,10.409c3.476,4.208,7.181,7.203,10.972,9.562
						c-2.104-1.352-3.838-2.658-5.541-4.114c-1.695-1.463-3.36-3.079-5.175-5.208c-1.183-1.443-0.716-0.981,0.255,0.057
						c0.971,1.039,2.543,2.561,3.455,3.382c0.778,0.696,1.838,1.989,2.69,2.618c1.765,1.457,3.546,2.596,5.66,3.823
						c0.931,0.488,0.702,0.642,1.174,0.877c2.942,1.614,5.445,2.321,7.408,3.122c1.501,0.589,2.887,1.052,4.254,1.45
						c0.866,0.246,1.737,0.452,2.67,0.638c0.584,0.09,1.188,0.191,1.796,0.263c-0.466-0.147-0.622-0.267-0.764-0.387
						c0.858,0.171,2.072,0.406,2.943,0.515c-0.871-0.108-2.085-0.344-2.943-0.515c0.142,0.12,0.297,0.239,0.764,0.387
						c4.351,0.588,9.436,0.563,14.045-0.192l-0.063-0.014c-2.701,0.392-5.378,0.503-8.196,0.249
						c1.218,0.094,1.068,0.158-0.327,0.121l-1.06-0.182c2.427,0.098,4.837,0.009,7.136-0.015c0.001,0.006,1.033-0.145,1.536-0.231
						c0.766-0.061,0.74,0.014,0.911,0.058c0.527-0.068,1.056-0.168,1.588-0.259C55.319,95.373,51.757,95.56,51.757,95.535z"/>
					<path style="&st0;" d="M25.005,89.322l1.147,0.619c-1.534-0.842-3.023-1.774-4.462-2.787
						C22.391,87.783,23.673,88.593,25.005,89.322z"/>
				</g>
			</g>
		</g>
	</g>
</g>
<g>
	<g>
		<g>
			<g style="&st1;">
				<g>
					<path style="&st0;" d="M65.049,25.735l-0.397,0.026c0.068,0.011,0.136,0.032,0.208,0.068
						C64.95,25.85,64.99,25.79,65.049,25.735z"/>
					<polygon style="&st0;" points="64.283,25.771 64.213,25.771 64.153,25.794 					"/>
					<path style="&st0;" d="M63.59,25.84c0.123,0.017,0.241,0.006,0.354-0.008C63.844,25.813,63.729,25.814,63.59,25.84z"/>
					<path style="&st0;" d="M64.146,25.896c-0.044-0.035-0.065-0.071,0.004-0.101l0.003,0l-0.209,0.038
						C64.02,25.845,64.088,25.866,64.146,25.896z"/>
					<path style="&st0;" d="M64.146,25.896c0.042,0.033,0.11,0.063,0.134,0.083C64.24,25.948,64.196,25.919,64.146,25.896z"/>
					<path style="&st0;" d="M63.981,26.748c-0.076,0.027-0.06-0.213-0.208-0.16c-0.348,0.066-0.655,0.16-0.986,0.13
						c-0.157,0.042-0.362-0.251-0.514-0.216c-0.35,0.033-1.312,0.154-0.78,0.25c0.81,0.117,1.347,0.104,2.07,0.081
						c0.591-0.083,1.144-0.23,1.715-0.387c0.161-0.035,0.315-0.035,0.471-0.047l-0.645-0.02
						C64.803,26.347,64.466,26.687,63.981,26.748z"/>
					<path style="&st0;" d="M67.94,25.151l-0.168,0.152c-0.355-0.051-0.638,0.118-0.938,0.272l0.175,0.073
						c0.18-0.067,0.179-0.138,0.003-0.14c0.41,0.028,0.771-0.078,1.109-0.245C68.074,25.212,68.05,25.143,67.94,25.151z"/>
					<polygon style="&st0;" points="68.316,25.16 68.121,25.264 68.136,25.28 68.326,25.162 					"/>
					<path style="&st0;" d="M62.086,25.924c-0.935-0.138-1.792-0.409-2.579-0.77c-0.079,0.017-0.145,0.047-0.216-0.016
						c-0.045-0.065-0.097-0.117-0.149-0.163l-0.333-0.178l-0.127-0.044l-0.004,0c-0.076-0.009-0.075,0.034-0.052,0.085
						c0.031,0.045,0.059,0.093,0.078,0.139c-0.013-0.029-0.057-0.088-0.078-0.139c-0.04-0.054-0.087-0.107-0.147-0.157
						c-0.108-0.043-0.22-0.094-0.317-0.173c0.131,0.05,0.236,0.106,0.317,0.173l0.203,0.073l0.064,0.009
						c-0.252-0.14-0.492-0.296-0.729-0.458l-0.164-0.077c-0.189-0.088-0.38-0.182-0.418-0.348c-0.041-0.029-0.079-0.064-0.118-0.097
						l0.011,0.035l-0.032-0.053c-0.165-0.138-0.333-0.273-0.488-0.424c-0.134-0.057-0.286-0.102-0.414-0.179l-0.025-0.188
						c-0.084,0.004-0.173-0.025-0.26-0.079c0.036,0.132,0.062,0.264,0.103,0.369c0.028,0.195,0.405,0.04,0.393,0.324
						c0.013-0.284-0.364-0.129-0.393-0.324c-0.041-0.105-0.066-0.237-0.103-0.369c-0.174-0.116-0.336-0.337-0.39-0.574
						c0.251,0.127,0.336,0.348,0.39,0.574c0.087,0.054,0.176,0.083,0.26,0.079l0.025,0.188c0.128,0.077,0.28,0.122,0.414,0.179
						c-0.313-0.282-0.603-0.594-0.888-0.92c-1.768-2.125-2.806-4.639-2.712-7.478c0.071-1.53,0.507-2.962,1.209-4.18
						c0.702-1.209,1.471-2.293,2.45-3.177c0.973-0.877,2.173-1.549,3.534-1.733c0.515-0.084,1.211-0.262,1.919-0.379
						c0.706-0.121,1.421-0.174,1.91-0.165c1.346-0.298,0.816-1.361,0.716-1.439c-0.422-0.481-0.866-0.602-1.428-0.641
						c-0.567-0.031-1.247,0.001-2.298-0.034c0.713,0.007,0.477,0.188-0.08,0.343c-0.562,0.152-1.437,0.355-2.161,0.348
						c-1.062-0.039-2.182,0.541-3.127,1.375c-0.958,0.835-1.734,1.897-2.493,2.849c-0.383,0.479-0.666,1.068-0.986,1.723
						c-0.92,1.671-1.276,3.567-1.187,5.426c0.104,1.866,0.615,3.708,1.501,5.489c0.49,0.942,1.211,1.582,1.863,2.154
						c0.434,0.457,0.841,1.006,1.232,1.348c0.617,0.529,1.243,0.867,1.863,1.108c-0.652-0.34-1.135-0.602-1.793-1.111
						c-0.426-0.35,0.486,0.028,0.812,0.172c0.149,0.05,0.189,0.408,0.351,0.449c0.275,0.194,0.599,0.26,0.935,0.383
						c0.159,0.027,0.027,0.229,0.107,0.243c0.46,0.189,0.927,0.064,1.178,0.245l0.562,0.34c0.117,0.059,0.238,0.107,0.371,0.144
						l0.269,0.021c-0.046-0.091-0.043-0.184-0.037-0.277c0.114,0.049,0.268,0.151,0.386,0.196c-0.118-0.044-0.271-0.146-0.386-0.196
						c-0.006,0.093-0.009,0.186,0.037,0.277c0.646,0.051,1.376,0.077,2.041,0.048l-0.006-0.022
						c-0.384-0.021-0.756-0.106-1.108-0.335c0.155,0.086,0.121,0.149-0.073,0.12l-0.118-0.152c0.346,0.016,0.681,0.011,0.972,0.229
						l0.225-0.049c0.102,0.045,0.088,0.12,0.104,0.186l0.227,0.006C62.551,26.148,62.084,25.927,62.086,25.924z"/>
					<path style="&st0;" d="M58.474,24.671l0.167,0.069c-0.208-0.122-0.411-0.253-0.609-0.391
						C58.08,24.514,58.274,24.601,58.474,24.671z"/>
				</g>
			</g>
		</g>
	</g>
</g>
<g>
	<path style="&st3;" d="M41.125,44.267c-1.986,3.442-6.389,4.623-9.834,2.634c-3.443-1.987-4.623-6.391-2.635-9.834"/>
	<g>
		<g>
			<g>
				<g style="&st1;">
					<g>
						<path style="&st2;" d="M27.622,38.692l-0.07,0.227c0.026-0.035,0.062-0.066,0.112-0.095
							C27.703,38.782,27.658,38.742,27.622,38.692z"/>
						<polygon style="&st2;" points="27.492,39.13 27.481,39.171 27.495,39.21 						"/>
						<path style="&st2;" d="M27.48,39.546c0.025-0.069,0.024-0.139,0.023-0.208C27.473,39.393,27.464,39.462,27.48,39.546z"/>
						<path style="&st2;" d="M27.593,39.236c-0.04,0.018-0.079,0.023-0.098-0.023l0-0.002l0.008,0.128
							C27.525,39.297,27.557,39.263,27.593,39.236z"/>
						<path style="&st2;" d="M27.593,39.236l0.1-0.057C27.657,39.194,27.624,39.213,27.593,39.236z"/>
						<path style="&st2;" d="M28.407,39.488c0.02,0.041-0.217-0.01-0.174,0.072c0.04,0.182,0.126,0.337,0.114,0.494
							c0.045,0.074-0.228,0.169-0.177,0.247c0.051,0.184,0.382,0.602,0.366,0.354c-0.034-0.368-0.079-0.617-0.073-0.958
							c-0.057-0.287-0.108-0.575-0.115-0.883c0.014-0.082,0.054-0.151,0.092-0.22c-0.064,0.085-0.133,0.173-0.197,0.277
							C28.14,39.005,28.394,39.256,28.407,39.488z"/>
						<path style="&st2;" d="M28.398,37.149l0.014,0.144c-0.233,0.08-0.262,0.285-0.271,0.484l0.142-0.028
							c0.03-0.102-0.023-0.142-0.112-0.077c0.226-0.138,0.331-0.307,0.413-0.5C28.52,37.151,28.456,37.112,28.398,37.149z"/>
						<polygon style="&st2;" points="28.625,37.054 28.583,37.171 28.604,37.177 28.632,37.053 						"/>
						<path style="&st2;" d="M27.619,40.418c-0.01,0.529,0.021,1.027,0.082,1.512c0.053,0.028,0.111,0.044,0.093,0.098
							c-0.034,0.045-0.052,0.088-0.062,0.129l0.035,0.211l0.036,0.069l0.002,0.001c0.036,0.032,0.069,0.012,0.097-0.021
							c0.018-0.032,0.042-0.064,0.067-0.092l-0.067,0.092c-0.021,0.04-0.036,0.082-0.039,0.128c0.032,0.058,0.06,0.121,0.066,0.191
							c-0.049-0.066-0.068-0.131-0.066-0.191l-0.06-0.108l-0.029-0.029c0.025,0.162,0.064,0.32,0.098,0.481
							c0.016,0.034,0.035,0.066,0.051,0.091c0.07,0.102,0.135,0.2,0.054,0.309l0.026,0.084l0.014-0.023l-0.009,0.039
							c0.036,0.119,0.073,0.238,0.117,0.356c0.076,0.055,0.159,0.107,0.228,0.164l-0.069,0.128c0.069,0.003,0.126,0.027,0.17,0.067
							c0.033-0.093,0.076-0.182,0.095-0.252c0.07-0.122-0.295-0.059-0.131-0.241c-0.165,0.182,0.201,0.12,0.131,0.241
							c-0.019,0.071-0.062,0.16-0.095,0.252c0.089,0.084,0.13,0.229,0.09,0.397c-0.162-0.082-0.148-0.242-0.09-0.397
							c-0.043-0.041-0.101-0.064-0.17-0.067l0.069-0.128c-0.069-0.057-0.151-0.109-0.228-0.164c0.082,0.231,0.176,0.463,0.288,0.692
							c0.704,1.501,1.936,2.579,3.49,3.362c0.849,0.431,1.741,0.734,2.667,0.909c0.928,0.173,1.847,0.046,2.718-0.193
							c0.879-0.242,1.724-0.562,2.709-0.913c0.776-0.266,1.729-1.426,2.089-2.077c0.196-1.052-0.987-1.115-1.038-1.135
							c-0.506-0.011-0.698,0.102-0.906,0.286c-0.201,0.181-0.427,0.441-0.938,0.571c0.325-0.111,0.347,0.064,0.165,0.281
							c-0.184,0.211-0.59,0.428-1,0.337c-0.603-0.15-1.011,0.017-1.467,0.23c-0.447,0.205-0.951,0.453-1.452,0.379
							c-0.246-0.032-0.5,0.015-0.788-0.012c-0.736-0.187-1.409-0.327-2.09-0.575c-0.675-0.249-1.356-0.613-1.876-1.207
							c-0.286-0.295-0.685-0.451-0.991-0.703c-0.184-0.208-0.218-0.521-0.309-0.717c-0.149-0.308-0.327-0.556-0.512-0.806
							c0.137,0.299,0.277,0.5,0.46,0.806c0.116,0.211-0.353-0.016-0.476-0.154c-0.077-0.048,0.128-0.245,0.058-0.291
							c-0.052-0.142-0.197-0.24-0.307-0.383c-0.072-0.055,0.161-0.109,0.127-0.136c-0.107-0.197-0.445-0.31-0.407-0.47
							c0.013-0.117,0.04-0.223,0.062-0.324c0.002-0.062,0.009-0.125-0.007-0.188l-0.072-0.119c-0.07,0.039-0.158,0.06-0.247,0.079
							c0.007-0.064,0.051-0.156,0.063-0.219c-0.012,0.062-0.056,0.155-0.063,0.219c0.089-0.02,0.177-0.04,0.247-0.079
							c-0.163-0.29-0.3-0.65-0.378-1L27.922,40.2c0.011,0.203-0.014,0.393-0.158,0.608c0.054-0.093,0.119-0.082,0.134,0.021
							l-0.116,0.083c-0.074-0.178-0.142-0.37,0.039-0.536l-0.075-0.121c0.036-0.056,0.111-0.048,0.176-0.056l-0.01-0.12
							C27.783,40.151,27.62,40.417,27.619,40.418z"/>
						<path style="&st2;" d="M27.857,42.552l-0.042-0.093c0.019,0.135,0.053,0.267,0.079,0.403
							C27.985,42.757,27.922,42.656,27.857,42.552z"/>
					</g>
				</g>
			</g>
		</g>
	</g>
</g>
<g>
	<path style="&st3;" d="M64.055,57.505c-1.986,3.442-6.393,4.623-9.834,2.635c-3.445-1.988-4.625-6.393-2.637-9.835"/>
	<g>
		<g>
			<g>
				<g style="&st1;">
					<g>
						<path style="&st2;" d="M50.55,51.93l-0.07,0.227c0.026-0.034,0.062-0.066,0.112-0.094C50.631,52.02,50.586,51.981,50.55,51.93
							z"/>
						<polygon style="&st2;" points="50.42,52.369 50.409,52.41 50.424,52.449 						"/>
						<path style="&st2;" d="M50.408,52.785c0.024-0.069,0.024-0.14,0.022-0.208C50.4,52.631,50.393,52.701,50.408,52.785z"/>
						<path style="&st2;" d="M50.521,52.474c-0.04,0.018-0.079,0.022-0.098-0.023v-0.002l0.007,0.128
							C50.453,52.536,50.484,52.501,50.521,52.474z"/>
						<path style="&st2;" d="M50.521,52.474l0.1-0.057C50.585,52.432,50.552,52.452,50.521,52.474z"/>
						<path style="&st2;" d="M51.335,52.726c0.02,0.04-0.217-0.01-0.174,0.072c0.039,0.183,0.126,0.338,0.113,0.494
							c0.045,0.074-0.228,0.169-0.177,0.247c0.051,0.184,0.383,0.602,0.366,0.354c-0.034-0.368-0.079-0.616-0.073-0.958
							c-0.057-0.286-0.107-0.574-0.114-0.883c0.014-0.082,0.054-0.15,0.092-0.22c-0.064,0.086-0.134,0.174-0.197,0.277
							C51.067,52.244,51.322,52.495,51.335,52.726z"/>
						<path style="&st2;" d="M51.326,50.387l0.014,0.144c-0.233,0.08-0.262,0.284-0.271,0.484l0.142-0.028
							c0.03-0.103-0.023-0.142-0.112-0.077c0.226-0.139,0.331-0.307,0.413-0.5C51.448,50.389,51.384,50.35,51.326,50.387z"/>
						<polygon style="&st2;" points="51.553,50.292 51.512,50.41 51.532,50.416 51.56,50.292 						"/>
						<path style="&st2;" d="M50.547,53.657c-0.01,0.529,0.021,1.027,0.082,1.512c0.054,0.029,0.111,0.044,0.094,0.099
							c-0.034,0.045-0.053,0.088-0.062,0.129l0.035,0.211l0.036,0.068l0.002,0.002c0.035,0.032,0.068,0.012,0.097-0.021
							c0.019-0.033,0.042-0.064,0.067-0.093l-0.067,0.093c-0.021,0.039-0.036,0.081-0.039,0.127
							c0.032,0.059,0.061,0.121,0.066,0.191c-0.049-0.066-0.068-0.131-0.066-0.191l-0.06-0.108l-0.029-0.028
							c0.025,0.162,0.064,0.32,0.098,0.48c0.016,0.034,0.034,0.066,0.051,0.092c0.07,0.102,0.136,0.2,0.054,0.309l0.026,0.085
							l0.014-0.023l-0.009,0.039c0.036,0.118,0.073,0.238,0.117,0.355c0.076,0.055,0.159,0.107,0.228,0.164l-0.068,0.128
							c0.068,0.003,0.126,0.027,0.169,0.067c0.033-0.093,0.076-0.182,0.096-0.252c0.069-0.122-0.296-0.06-0.131-0.241
							c-0.165,0.182,0.2,0.119,0.131,0.241c-0.02,0.07-0.062,0.159-0.096,0.252c0.09,0.084,0.131,0.229,0.091,0.397
							c-0.162-0.081-0.148-0.242-0.091-0.397c-0.043-0.04-0.101-0.064-0.169-0.067l0.068-0.128
							c-0.068-0.057-0.151-0.109-0.228-0.164c0.082,0.232,0.176,0.463,0.288,0.692c0.705,1.501,1.937,2.578,3.49,3.362
							c0.85,0.432,1.742,0.734,2.667,0.908c0.928,0.173,1.848,0.046,2.719-0.193c0.879-0.241,1.724-0.562,2.709-0.912
							c0.776-0.266,1.73-1.426,2.09-2.076c0.195-1.053-0.987-1.115-1.038-1.136c-0.507-0.011-0.698,0.102-0.905,0.286
							c-0.201,0.181-0.428,0.441-0.938,0.571c0.324-0.111,0.347,0.063,0.165,0.281c-0.184,0.211-0.59,0.428-1.001,0.337
							c-0.602-0.15-1.011,0.017-1.467,0.23c-0.447,0.205-0.95,0.453-1.452,0.379c-0.246-0.032-0.5,0.015-0.788-0.012
							c-0.736-0.187-1.408-0.327-2.091-0.575c-0.674-0.249-1.355-0.614-1.876-1.207c-0.286-0.296-0.686-0.451-0.991-0.703
							c-0.185-0.208-0.218-0.521-0.309-0.717c-0.15-0.309-0.327-0.557-0.513-0.807c0.138,0.3,0.277,0.5,0.46,0.807
							c0.116,0.21-0.353-0.017-0.476-0.154c-0.077-0.048,0.128-0.245,0.058-0.291c-0.052-0.142-0.197-0.24-0.307-0.384
							c-0.072-0.055,0.161-0.109,0.127-0.136c-0.106-0.197-0.445-0.31-0.406-0.471c0.013-0.116,0.04-0.223,0.061-0.323
							c0.003-0.063,0.009-0.125-0.006-0.188l-0.072-0.118c-0.07,0.039-0.158,0.06-0.247,0.079c0.007-0.064,0.051-0.156,0.062-0.22
							c-0.012,0.063-0.056,0.155-0.062,0.22c0.089-0.02,0.177-0.04,0.247-0.079c-0.163-0.29-0.301-0.65-0.378-1l-0.021,0.003
							c0.011,0.203-0.014,0.393-0.158,0.608c0.054-0.093,0.119-0.081,0.135,0.021l-0.116,0.083c-0.074-0.179-0.143-0.37,0.038-0.536
							l-0.074-0.12c0.036-0.057,0.111-0.049,0.176-0.057l-0.01-0.12C50.712,53.389,50.548,53.656,50.547,53.657z"/>
						<path style="&st2;" d="M50.786,55.791l-0.043-0.094c0.019,0.136,0.054,0.268,0.079,0.403
							C50.913,55.996,50.851,55.895,50.786,55.791z"/>
					</g>
				</g>
			</g>
		</g>
	</g>
</g>
</svg>
