<?xml version="1.0" encoding="utf-8"?>
<!-- Generator: Adobe Illustrator 15.0.0, SVG Export Plug-In . SVG Version: 6.00 Build 0)  -->
<!DOCTYPE svg PUBLIC "-//W3C//DTD SVG 1.1//EN" "http://www.w3.org/Graphics/SVG/1.1/DTD/svg11.dtd">
<svg version="1.1" id="Layer_1" xmlns="http://www.w3.org/2000/svg" xmlns:xlink="http://www.w3.org/1999/xlink" x="0px" y="0px"
	 width="860.777px" height="350.973px" viewBox="0 0 860.777 350.973" enable-background="new 0 0 860.777 350.973"
	 xml:space="preserve">
<rect fill="#E4E1B4" width="860.777" height="350.973"/>
<g>
	<path fill="#652222" d="M149.861,205.832c-0.488,1.629-1.629,1.953-2.766,0.652c-2.768-3.09-4.066-9.434-0.814-18.227
		c7.971-21.957,29.283-60.523,42.139-82.16c1.465-2.438,2.605-2.602,4.232-1.465c6.02,4.395,7.32,8.945,5.531,20.176
		c-2.6,15.453-4.23,35.789-5.367,58.574c11.064-25.059,29.771-59.062,41.977-77.93c1.299-1.953,2.76-1.465,3.744,0.324
		c2.436,4.883,2.275,11.391-5.049,23.586c-9.596,15.945-30.26,54.992-39.859,76.633c-0.652,1.629-1.465,1.953-3.252,0.977
		c-4.885-2.602-7.16-6.508-7.973-16.918c-0.812-9.922-0.164-31.891,2.764-54.992C172.965,156.047,156.369,186.312,149.861,205.832z"
		/>
	<path fill="#652222" d="M247.977,111.148c-0.324-1.465,0.164-2.117,1.791-1.953c13.506,0.812,31.4-3.906,40.514-4.07
		c6.836-0.16,10.412,2.602,12.363,7.973c0.488,1.297,0.164,2.438-1.787,2.113c-11.717-0.164-23.102,2.766-33.029,4.391
		c-6.508,9.762-14.48,23.918-22.451,38.402c4.396-0.812,8.623-1.137,11.551-1.301c8.137-0.324,11.721,2.277,13.346,7.32
		c0.486,1.465,0.486,2.441-1.625,2.441c-8.787,0-20.992,2.273-30.1,4.555c-4.721,9.113-9.107,18.059-12.527,25.707
		c7.807-2.438,18.547-4.719,25.219-5.043c7.973-0.328,12.041,2.277,13.828,7.156c0.488,1.465,0.324,2.441-1.623,2.441
		c-9.113-0.164-26.85,4.066-35.957,6.508c-3.092,0.812-4.883,0.812-6.836-1.625c-1.301-1.465-2.275-3.91-3.416-6.02
		c-1.463-2.766-1.463-4.887,0.16-9.273c7.484-20.012,23.752-50.277,37.42-71.422C250.744,117.816,248.957,114.559,247.977,111.148z"
		/>
	<path fill="#652222" d="M433.957,162.555c0.324,1.465,0.324,2.277-1.789,2.117c-5.855-0.652-11.062-0.164-15.779,0.324
		c-3.252,5.531-6.508,11.227-8.461,16.105c-0.486,1.953-1.463,2.277-2.928,1.137c-2.275-1.785-5.043-5.855-1.951-13.504
		c0.328-0.812,0.652-1.785,1.141-2.762c-0.164,0-0.164,0-0.324,0c-7.484-0.16-10.904-3.746-12.041-8.625
		c-0.328-1.461,0-2.438,1.949-2.277c4.719,0.328,10.578,0,15.943-0.488c3.088-5.531,6.184-11.227,8.783-15.777
		c1.141-1.949,2.441-1.625,3.744-0.164c2.6,2.926,3.584,8.137,0.164,15.133C430.049,153.934,433.145,157.676,433.957,162.555z"/>
	<path fill="#652222" d="M482.613,141.078c5.367,0.816,10.41,8.789,6.344,17.25c-3.418,7.16-11.387,19.199-15.133,27.66
		c-4.23,9.434-3.246,17.082,2.605,16.754c6.672-0.324,14.641-11.062,20.828-22.449c0.812-1.465,1.953-1.465,2.762-0.16
		c1.141,1.785,0.812,5.531-1.465,10.246c-4.395,9.109-14.641,17.41-24.078,17.41c-13.828,0-17.086-10.086-12.367-24.246
		c5.371-15.945,19.688-33.191,16.758-34.492c-1.625-0.648-11.062,3.91-21.477,15.293c-9.598,10.414-16.758,26.035-23.75,41.328
		c-0.652,1.465-1.629,2.113-3.092,0.648c-3.248-3.254-4.232-8.621-1.625-16.758c3.252-10.246,15.779-32.863,26.033-47.996
		c1.137-1.785,2.441-1.621,3.418,0c2.438,4.07,2.273,9.602,0.484,15.457C466.176,149.215,477.242,140.266,482.613,141.078z"/>
	<path fill="#652222" d="M553.062,142.059c1.461-2.113,2.766-2.438,3.91-0.98c2.434,2.93,3.746,9.926-0.164,18.066
		c-3.582,7.32-11.723,19.523-15.613,28.145c-4.074,9.109-4.238,16.105,1.293,15.777c6.672-0.324,15.617-11.387,21.312-22.609
		c0.812-1.465,1.949-1.629,2.605-0.164c0.648,1.461,0.648,5.535-1.465,10.086c-4.23,8.949-14.477,17.898-23.43,17.41
		c-8.777-0.484-13.336-5.695-13.336-13.34c-5.211,6.668-12.531,12.691-20.344,12.691c-15.129,0-18.219-20.664-4.711-40.352
		c13.172-19.203,26.023-26.523,34.164-26.523c6.992,0,10.246,5.371,9.918,11.719C549.324,148.074,551.277,144.66,553.062,142.059z
		 M540.055,148.727c-5.215-0.488-17.086,10.09-26.035,24.574c-8.621,13.988-10.742,28.309-4.398,28.465
		c6.672,0.164,15.129-10.246,23.426-24.566C543.301,159.305,544.766,149.215,540.055,148.727z"/>
	<path fill="#652222" d="M570.488,137.34c-1.629-2.277-0.656-3.418,1.777-3.258c4.566,0.164,9.117-0.16,13.512-0.648
		c5.047-8.945,9.598-16.594,12.367-20.176c1.461-2.109,3.082-1.949,3.902,0c1.793,4.559,1.793,9.926-2.109,18.391
		c6.344-0.164,8.789,2.762,10.082,4.879c1.141,1.953,0.484,3.094-1.949,3.094c-3.582-0.488-8.617,0-12.688,0.645
		c-6.344,10.906-15.617,26.688-21.805,40.355c-5.367,11.875-3.582,21.961,3.254,22.285c7.32,0.324,16.59-11.227,22.617-23.426
		c0.965-1.953,2.754-2.277,3.418,0c0.809,2.598,0,5.531-1.633,9.27c-2.109,4.723-12.852,19.039-25.867,18.555
		c-10.738-0.328-19.363-12.371-11.559-31.082c3.418-8.133,10.246-21.801,17.246-34.656
		C575.531,141.566,571.785,139.133,570.488,137.34z"/>
	<path fill="#652222" d="M654.113,142.059c1.457-2.113,2.762-2.438,3.906-0.98c2.438,2.93,3.746,9.926-0.16,18.066
		c-3.586,7.32-11.723,19.523-15.617,28.145c-4.074,9.109-4.238,16.105,1.297,15.777c6.672-0.324,15.613-11.387,21.309-22.609
		c0.812-1.465,1.953-1.629,2.609-0.164c0.648,1.461,0.648,5.535-1.469,10.086c-4.23,8.949-14.477,17.898-23.426,17.41
		c-8.781-0.484-13.336-5.695-13.336-13.34c-5.215,6.668-12.531,12.691-20.344,12.691c-15.125,0-18.223-20.664-4.715-40.352
		c13.172-19.203,26.027-26.523,34.164-26.523c6.992,0,10.246,5.371,9.918,11.719C650.375,148.074,652.324,144.66,654.113,142.059z
		 M641.094,148.727c-5.211-0.488-17.082,10.09-26.031,24.574c-8.621,13.988-10.742,28.309-4.398,28.465
		c6.672,0.164,15.133-10.246,23.43-24.566C644.348,159.305,645.816,149.215,641.094,148.727z"/>
	<path fill="#652222" d="M676.734,202.418c7.805,0.648,19.195-11.066,25.543-23.59c1.137-2.113,2.926-2.277,3.582,0
		c0.812,2.602,0.164,6.184-1.633,10.086c-2.27,4.883-14.148,18.391-27.164,18.062c-11.234-0.324-17.246-8.137-13.508-25.711
		c6.016-28.305,24.566-57.754,41.164-75.004c2.438-2.598,4.723-2.922,6.992-0.809c4.719,4.23,5.695,10.246,3.746,17.895
		c-5.043,20.012-23.262,39.539-37.746,48.973C671.211,188.262,669.406,201.766,676.734,202.418z M709.922,119.93
		c-2.113-1.297-14.145,16.758-25.383,37.586c-1.461,2.602-2.754,5.207-3.898,7.809C702.922,147.262,712.047,121.23,709.922,119.93z"
		/>
</g>
<g>
	<path fill="#FCD58E" d="M377.113,171.742c-9.908,28.762-36.877,45.566-60.236,37.516c-23.361-8.047-34.264-37.891-24.361-66.656
		c4.725-13.707,13.312-24.691,23.545-31.57c11.244-7.555,24.465-10.152,36.691-5.941c12.893,4.441,21.984,15.512,25.889,29.391
		C381.809,145.742,381.549,158.852,377.113,171.742"/>
	<path fill="#652222" d="M363.449,194.316c-0.717,0.777-1.461,1.539-2.225,2.277l1.191-1.07
		C362.912,195.031,363.133,194.738,363.449,194.316"/>
	<polyline fill="#652222" points="359.068,198.582 358.645,198.957 358.293,199.285 359.068,198.582 	"/>
	<path fill="#652222" d="M357.033,200.367l-2.221,1.699C355.609,201.512,356.34,200.945,357.033,200.367"/>
	<path fill="#652222" d="M358.293,199.285c-0.408,0.367-0.82,0.719-1.26,1.082l1.264-0.953c-0.145,0.098-0.248,0.164-0.268,0.156
		c-0.025-0.004,0.043-0.082,0.248-0.27L358.293,199.285"/>
	<path fill="#652222" d="M359.133,198.816l-0.832,0.598C358.568,199.234,358.98,198.922,359.133,198.816"/>
	<path fill="#8E5B5B" d="M367.037,191.273c-0.977,1.188-2.025,2.367-3.225,3.621c-1.596,1.625-3.34,3.832-6.088,6.133
		c-0.42,0.379-0.457,0.086-1.305,0.816c-2.039,1.633-3.852,2.957-5.959,4.156c-0.941,0.602-2.588,1.141-3.561,1.648
		c-1.145,0.586-3.232,1.543-4.607,2.094c-0.805,0.324-1.352,0.555-1.309,0.57c0.035,0.012,0.373-0.086,1.141-0.336
		c2.756-0.941,4.959-1.977,7.035-3.086c2.072-1.129,4.016-2.348,6.168-3.914c3.453-2.621,6.492-5.547,9.393-8.953
		C365.537,193.078,366.297,192.191,367.037,191.273"/>
	<path fill="#652222" d="M376.48,173.453c-0.129,0.145-0.188,0.082-0.516,0.859l-0.568,1.598c-1.129,2.25-2.221,4.648-3.459,6.984
		l0.676-0.965c0.379-0.738,0.562-1.125,0.531-1.133c-0.016-0.004-0.1,0.113-0.256,0.379
		C374.352,178.66,375.504,176.121,376.48,173.453"/>
	<path fill="#8E5B5B" d="M376.572,173.246c-0.02,0.059-0.039,0.105-0.061,0.16l0.008-0.012L376.572,173.246"/>
	<path fill="#652222" d="M377.084,171.734l-0.027,0.062c-0.195,0.555-0.373,1.113-0.576,1.656l0.031-0.047
		c0.021-0.055,0.041-0.102,0.061-0.16L377.084,171.734"/>
	<path fill="#8E5B5B" d="M333.457,211.488c0.012,0.004,0.027,0.008,0.043,0.016C333.48,211.496,333.469,211.492,333.457,211.488
		L333.457,211.488 M333.453,211.488c-0.041-0.012-0.084-0.031-0.117-0.055C333.369,211.461,333.412,211.48,333.453,211.488
		 M333.273,211.41L333.273,211.41L333.273,211.41L333.273,211.41 M333.936,211.57c0.01,0.004,0.025,0.004,0.037,0.004
		C333.961,211.574,333.945,211.574,333.936,211.57 M334.012,211.582c0.008-0.004,0.018,0,0.025,0
		C334.029,211.582,334.02,211.578,334.012,211.582 M334.068,211.582h0.008H334.068 M334.092,211.582c0.004,0,0.008,0,0.008,0
		S334.096,211.582,334.092,211.582 M353.48,103.785c-1.248-0.43-2.52-0.797-3.801-1.094c-4.199-0.98-8.531-1.246-12.68-0.91
		c-4.152,0.316-8.543,1.414-13.215,3.379c-6.084,2.508-11.596,6.273-16.34,10.852s-8.744,9.961-11.877,15.859
		c-3.137,5.91-5.436,12.312-6.787,19.023c-1.357,6.707-1.725,13.738-0.889,20.777c0.92,7.473,3.248,13.68,6.248,19.004
		c2.123,3.941,4.928,7.816,7.473,10.348c3.979,3.992,8.172,6.531,12.395,8.223c-2.352-0.984-4.303-2.039-6.227-3.285
		c-1.916-1.25-3.809-2.711-5.881-4.723c-0.637-0.648-0.859-0.895-0.801-0.875c0.064,0.023,0.484,0.383,1.064,0.895
		c1.1,0.969,2.873,2.352,3.9,3.07c0.885,0.602,2.119,1.809,3.076,2.316c2.004,1.215,3.98,2.074,6.328,2.902
		c0.072,0.02,0.137,0.043,0.195,0.066c0.377,0.125,0.545,0.238,0.664,0.336c0.125,0.09,0.201,0.172,0.393,0.238
		c0.027,0.012,0.057,0.02,0.084,0.027c3.264,1.027,5.928,1.133,8.068,1.441c1.631,0.211,3.119,0.309,4.584,0.328
		c0.92,0.008,1.84-0.031,2.811-0.121c0.605-0.078,1.236-0.16,1.861-0.27c-0.008,0-0.016,0-0.023,0c0.008,0,0.016,0,0.023,0
		c4.48-0.723,9.523-2.414,13.879-4.738l-0.062-0.004c-2.438,1.23-4.916,2.199-7.602,2.848c0.232-0.051,0.361-0.07,0.389-0.062
		c0.057,0.023-0.328,0.164-1.133,0.398c-0.367,0.062-0.734,0.105-1.096,0.152c2.438-0.664,4.797-1.562,7.072-2.34l0,0
		c0.008,0,0.984-0.496,1.457-0.754c0.744-0.316,0.74-0.23,0.916-0.242c0.496-0.262,1.004-0.516,1.5-0.801l-2.697,1.137l-0.223,0.086
		c-9.5,4.367-19.885,5.344-29.637,1.984c-0.004,0-0.008,0-0.012-0.004c-23.361-8.047-34.264-37.891-24.361-66.656
		c4.725-13.707,13.312-24.691,23.545-31.57c8.111-5.449,17.256-8.324,26.316-7.914c0.359-0.113,0.668-0.211,0.947-0.273
		c0.4-0.094,0.752-0.121,1.113,0c0.146,0.055,0.299,0.133,0.455,0.246c0.092-0.016,0.184-0.027,0.271-0.043l0.076,0.309
		c2.52,0.309,5.029,0.883,7.492,1.73c0.008,0,0.012,0,0.016,0.004c12.893,4.441,21.984,15.512,25.889,29.391
		c3.008,10.68,2.928,23.016-0.873,35.254c1.506-3.391,2.377-6.617,3.014-10.832c0.535-3.863,0.975-8.59,0.512-15.121
		c0.051,0.867,0.035,1.246-0.004,1.238c-0.008-0.004-0.016-0.035-0.033-0.086c-0.084-0.371-0.26-1.914-0.604-4.062
		c-0.352-2.137-0.896-4.863-1.664-7.582c-0.752-2.727-1.725-5.43-2.615-7.641c-1.27-3.203-3.133-6.559-5.629-9.68
		c-2.488-3.133-5.607-6.02-9.211-8.309C359.037,106.055,356.316,104.754,353.48,103.785"/>
	<path fill="#652222" d="M342.377,103.121c-9.061-0.414-18.205,2.461-26.316,7.914c-10.232,6.879-18.82,17.863-23.545,31.574
		c-9.906,28.762,1,58.605,24.361,66.652c0.004,0.004,0.008,0.004,0.012,0.004c9.752,3.359,20.137,2.383,29.637-1.984l-1.652,0.633
		c-6.641,2.762-13.412,3.746-19.777,3.051c-0.496,0.012-0.852,0.016-1.504-0.102l-1.459-0.34c-0.92-0.176-1.828-0.387-2.721-0.629
		c-0.316-0.074-0.627-0.164-0.947-0.246l-0.033-0.008c-0.508-0.117-0.371-0.039-0.07,0.09l-1.412-0.527
		c-0.156-0.051-0.312-0.105-0.477-0.16c-0.084-0.027-0.172-0.059-0.264-0.086c0-0.004-0.004-0.004-0.004-0.004
		c-1.217-0.418-2.336-0.906-3.012-1.344c1.291,0.617,2.611,1.168,3.959,1.625c0.332,0.117,0.668,0.23,1.004,0.328l-1.264-0.383
		c-0.027-0.016-0.061-0.02-0.088-0.031l0.148,0.055c0.52,0.156,1.004,0.316,1.512,0.441l0.439,0.098
		c-0.596-0.172-1.188-0.355-1.771-0.559c-1.42-0.488-2.805-1.059-4.152-1.723c-0.443-0.203-0.855-0.418-1.203-0.582
		c-1.377-0.676-2.697-1.469-3.416-2.113c-0.312-0.207-0.625-0.426-0.934-0.652l0.168,0.145l-0.336-0.27
		c-1.287-0.953-2.527-1.992-3.703-3.121c-0.789-0.688-1.592-1.414-2.352-2.199l-0.637-0.918c-0.328-0.293-0.775-0.75-1.248-1.328
		l0,0c-0.996-1.188-2.115-2.887-2.855-4.355c1.139,1.664,2.043,3.102,2.855,4.355c0.469,0.582,0.916,1.035,1.248,1.328l0.637,0.918
		c0.756,0.785,1.562,1.512,2.352,2.199c-2.289-2.195-4.352-4.703-6.16-7.496c-5.791-9.027-8.312-19.777-8.084-30.566
		c0.26-10.805,3.264-21.828,9.115-31.852c6.369-10.82,15.645-19.215,26.057-23.504c5.176-2.148,10.541-3.285,15.801-3.309
		c0.115-0.004,0.24,0,0.359-0.004c0.141-0.086,0.271-0.164,0.389-0.242c0.344-0.219,0.543-0.41,0.428-0.449
		c-0.049-0.016-0.137-0.004-0.281,0.031c-0.051,0.012-0.096,0.023-0.146,0.039c0.055-0.016,0.104-0.031,0.146-0.039
		C341.648,103.34,342.037,103.219,342.377,103.121 M352.736,105.086c-2.463-0.848-4.973-1.418-7.492-1.73l0.271,1.121
		c2.316,0.32,4.59,0.867,6.789,1.617c1.047,0.367,2.084,0.773,3.092,1.23c9.451,4.219,16.889,12.828,20.531,23.602
		c1.461,4.102,2.93,10.262,3.197,16.586c0.344,6.32-0.5,12.668-1.484,16.898c-0.561,2.867-0.984,4.633-1.156,5.707
		c-0.176,0.977-0.141,1.371,0,1.414c0.008,0.004,0.023,0.004,0.037,0.004c0.344-0.008,1.135-1.527,1.242-1.793
		c0-0.004,0-0.008,0.004-0.012c3.801-12.242,3.881-24.578,0.873-35.254c-3.904-13.879-12.996-24.945-25.889-29.391
		C352.748,105.086,352.744,105.086,352.736,105.086"/>
	<path fill="#8E5B5B" d="M340.34,209.699c-0.119,0.027-0.271,0.059-0.451,0.105C340.041,209.773,340.189,209.734,340.34,209.699
		 M381.141,141.93c0.057,0.629,0.107,1.25,0.152,1.852C381.26,143.312,381.213,142.699,381.141,141.93"/>
	<path fill="#652222" d="M313.193,207.598c0.676,0.441,1.795,0.926,3.012,1.348c0,0,0.004,0,0.004,0.004
		c0.195,0.066,0.396,0.129,0.592,0.195c0.031,0.012,0.064,0.016,0.088,0.031l1.264,0.383c-0.336-0.098-0.672-0.211-1.004-0.328
		C315.809,208.766,314.484,208.219,313.193,207.598"/>
	<path fill="#FCD58E" d="M350.729,125.805c-2.881,2.434-6.5,3.41-9.82,2.262c-5.527-1.902-8.111-8.957-5.764-15.766
		c1.756-5.109,5.787-8.617,10.027-9.25L350.729,125.805"/>
	<polyline fill="#652222" points="347.584,127.367 347.197,127.512 347.42,127.523 347.584,127.367 	"/>
	<polyline fill="#652222" points="346.828,127.637 346.76,127.652 346.709,127.695 346.828,127.637 	"/>
	<path fill="#652222" d="M346.508,127.801c-0.104,0.008-0.219,0.043-0.352,0.105C346.285,127.891,346.4,127.84,346.508,127.801"/>
	<polyline fill="#652222" points="346.709,127.695 346.508,127.801 346.725,127.805 346.705,127.695 346.709,127.695 	"/>
	<polyline fill="#652222" points="346.877,127.852 346.725,127.805 346.877,127.852 	"/>
	<path fill="#652222" d="M348.436,127.852l-0.643,0.172c-0.309,0.055-0.568,0.512-1.041,0.719c-0.008,0.008-0.02,0.008-0.027,0.004
		c-0.02-0.008-0.037-0.031-0.057-0.062c-0.023-0.027-0.047-0.055-0.08-0.066c-0.023-0.008-0.051-0.004-0.084,0.02
		c-0.328,0.172-0.615,0.359-0.955,0.414c-0.061,0.035-0.125,0.023-0.201-0.004c-0.031-0.012-0.062-0.023-0.092-0.031
		c-0.027-0.012-0.059-0.027-0.088-0.039c-0.068-0.023-0.131-0.035-0.18-0.008c-0.295,0.109-1.047,0.414-0.889,0.473
		c0.025,0.008,0.076,0.008,0.152,0.004c0.84-0.094,1.385-0.262,2.1-0.492c0.576-0.258,1.09-0.586,1.625-0.918
		C348.133,127.961,348.289,127.906,348.436,127.852"/>
	<path fill="#652222" d="M350.529,125.953l-0.209-0.07l-0.131,0.211c-0.361,0.055-0.605,0.316-0.873,0.57l0.191,0.023
		c0.109-0.086,0.141-0.145,0.092-0.16c-0.012-0.004-0.039-0.004-0.07,0.004C349.924,126.422,350.244,126.211,350.529,125.953"/>
	<polyline fill="#652222" points="350.576,125.93 350.541,125.961 350.549,125.965 350.576,125.93 	"/>
	<polyline fill="#652222" points="350.709,125.785 350.697,125.785 350.529,125.953 350.541,125.961 350.576,125.93 
		350.709,125.785 	"/>
	<path fill="#652222" d="M338.812,127.121c-0.004,0-0.004-0.004-0.004-0.008C338.809,127.117,338.809,127.121,338.812,127.121
		 M338.576,126.934c0.004,0,0.008,0,0.012,0C338.584,126.934,338.58,126.934,338.576,126.934 M338.809,127.113
		c-0.008-0.09-0.045-0.133-0.096-0.156C338.764,126.98,338.801,127.02,338.809,127.113 M338.697,126.953
		C338.697,126.953,338.697,126.957,338.697,126.953L338.697,126.953C338.697,126.957,338.697,126.953,338.697,126.953
		 M338.457,126.914c-0.037-0.012-0.064-0.035-0.08-0.078C338.393,126.879,338.42,126.902,338.457,126.914
		c0.035,0.012,0.08,0.02,0.119,0.02C338.533,126.934,338.488,126.926,338.457,126.914 M341.832,104.156
		c-0.4-0.012-0.791-0.02-1.188-0.023c-0.492,0.293-1.111,0.617-1.672,0.781c-1.064,0.277-2.023,1.207-2.789,2.32
		c-0.771,1.121-1.344,2.418-1.951,3.574c-0.305,0.582-0.496,1.254-0.732,2.008c-0.707,1.914-0.9,3.957-0.688,5.93
		c0.217,1.98,0.812,3.918,1.797,5.766c0.551,0.973,1.322,1.602,2.039,2.145c0.477,0.438,0.943,0.984,1.389,1.293
		c0.455,0.324,0.916,0.543,1.371,0.699c0.229,0.078,0.457,0.141,0.68,0.191c-0.719-0.25-1.248-0.445-1.979-0.906
		c-0.473-0.309,0.504-0.039,0.852,0.066c0.004,0.004,0.012,0.004,0.016,0.004c0.072,0.027,0.129,0.117,0.184,0.207
		c0.061,0.094,0.117,0.184,0.197,0.211c0.008,0.004,0.012,0.004,0.02,0.004c0.064,0.035,0.123,0.059,0.191,0.082
		c0.252,0.086,0.527,0.117,0.82,0.16c0.016,0,0.027,0.004,0.039,0.004c0.053,0.02,0.061,0.07,0.064,0.121
		c0.004,0.055,0.004,0.098,0.033,0.113c0,0,0.008,0,0.012,0c0.471,0.109,0.912-0.098,1.195,0c0.016,0.004,0.031,0.012,0.049,0.016
		l0.627,0.238c0.129,0.031,0.26,0.062,0.404,0.066l0.275-0.043L343,128.898l0,0l0.088,0.285c0.664-0.105,1.408-0.27,2.072-0.484
		l-0.016-0.02c-0.371,0.078-0.748,0.086-1.129-0.043h-0.008c0.125,0.051,0.092,0.109-0.088,0.129l-0.15-0.125
		c0.326-0.074,0.631-0.156,0.943-0.055c0.023,0.012,0.051,0.027,0.08,0.035l0.215-0.109c0.014,0,0.021,0.004,0.029,0.004
		c0.084,0.031,0.088,0.102,0.111,0.164l0.232-0.059c-0.037-0.023-0.084-0.043-0.137-0.062c-0.096-0.031-0.215-0.062-0.316-0.086
		c-1.336,0.168-2.691,0.047-3.996-0.406c-0.004,0-0.008,0-0.008-0.004c-5.527-1.902-8.111-8.961-5.764-15.766
		C336.428,108.566,338.924,105.688,341.832,104.156"/>
	<path fill="#7C4343" d="M344.441,102.844c-0.361-0.121-0.717-0.094-1.113,0c-0.279,0.066-0.588,0.16-0.947,0.273
		c0.604,0.027,1.215,0.066,1.82,0.121c0.23-0.059,0.463-0.105,0.699-0.152C344.74,102.98,344.588,102.898,344.441,102.844"/>
	<path fill="#7D4140" d="M344.197,103.242c-0.605-0.059-1.217-0.094-1.82-0.121c-0.34,0.098-0.729,0.223-1.197,0.355
		c0.145-0.035,0.236-0.047,0.281-0.031c0.111,0.043-0.084,0.234-0.428,0.449c-0.113,0.078-0.248,0.156-0.389,0.242
		c0.396,0.004,0.787,0.012,1.188,0.023C342.596,103.758,343.389,103.453,344.197,103.242"/>
	<path fill="#652222" d="M338.633,126.727c0.004,0,0.012,0,0.012,0S338.637,126.727,338.633,126.727L338.633,126.727
		 M338.633,126.723c-0.02-0.008-0.037-0.016-0.057-0.023C338.596,126.707,338.613,126.715,338.633,126.723 M338.309,126.477
		L338.309,126.477L338.309,126.477L338.309,126.477 M338.309,126.477c-0.02-0.008-0.035-0.016-0.057-0.023
		C338.273,126.461,338.289,126.469,338.309,126.477 M338.504,126.496C338.508,126.492,338.508,126.492,338.504,126.496l0.049,0.191
		l0,0l0,0L338.504,126.496C338.508,126.492,338.508,126.492,338.504,126.496 M338.24,126.449L338.24,126.449
		c-0.188-0.098-0.367-0.316-0.439-0.57C338.064,125.984,338.164,126.211,338.24,126.449L338.24,126.449L338.24,126.449
		 M344.896,103.09c-0.236,0.047-0.469,0.094-0.699,0.152c-0.809,0.211-1.602,0.516-2.365,0.918c-2.912,1.531-5.408,4.41-6.691,8.141
		c-2.348,6.809,0.24,13.867,5.764,15.766c0,0.004,0.004,0.004,0.008,0.004c1.305,0.449,2.66,0.574,3.996,0.406
		c-0.012-0.004-0.023-0.004-0.031-0.008c-0.109-0.023-0.193-0.047-0.205-0.051l0,0c-0.959,0.102-1.875,0.035-2.73-0.176
		c-0.068,0.035-0.121,0.074-0.186,0.055c-0.012-0.004-0.023-0.012-0.035-0.02l-0.176-0.141l-0.365-0.121l-0.135-0.02h-0.004
		L341,128.094l-0.168-0.133c-0.059-0.016-0.111-0.035-0.172-0.051c-0.031-0.012-0.068-0.02-0.092-0.031
		c-0.107-0.039-0.195-0.086-0.236-0.191c0.221,0.109,0.441,0.203,0.668,0.297l0.045,0.008l0.068-0.004
		c-0.27-0.102-0.541-0.215-0.797-0.344l-0.176-0.059c-0.049-0.012-0.1-0.027-0.148-0.043c-0.148-0.051-0.268-0.125-0.312-0.25
		l-0.131-0.082l0.012,0.031l-0.039-0.051c-0.178-0.125-0.365-0.238-0.537-0.375c-0.057-0.016-0.107-0.031-0.164-0.043
		c0.057,0.012,0.107,0.027,0.164,0.043c-0.34-0.258-0.668-0.551-0.977-0.859c-1.959-2.062-3.07-4.715-3.16-7.797
		c-0.027-1.672,0.285-3.285,0.842-4.746c0.555-1.449,1.158-2.797,1.979-4.004c0.812-1.203,1.865-2.262,3.18-2.883l1.816-0.988
		c0.672-0.34,1.365-0.613,1.844-0.742C345.764,104.109,345.016,103.148,344.896,103.09L344.896,103.09"/>
	<path fill="#7D4140" d="M341.18,103.477c-0.043,0.008-0.092,0.023-0.146,0.039C341.084,103.496,341.133,103.484,341.18,103.477"/>
	<polyline fill="#652222" points="343.973,128.633 343.961,128.625 343.996,128.641 343.973,128.633 	"/>
	<polyline fill="#652222" points="340.992,127.984 340.832,127.949 340.812,127.941 340.84,127.961 340.992,127.984 	"/>
	<path fill="#652222" d="M340.34,127.688c0.041,0.102,0.125,0.152,0.236,0.191c0.029,0.012,0.064,0.02,0.092,0.031
		c0.049,0.012,0.096,0.02,0.145,0.031c0.008,0.004,0.016,0.004,0.02,0.008l0.16,0.039l0.02,0.004c-0.004,0-0.004-0.004-0.004-0.004
		C340.785,127.891,340.561,127.801,340.34,127.688"/>
	<path fill="#FCD58E" d="M327.121,154.523c-1.512,4.391-5.625,6.957-9.201,5.727c-3.562-1.227-5.227-5.777-3.715-10.176
		L327.121,154.523"/>
	<polyline fill="#652222" points="313.4,152.023 313.357,152.285 313.461,152.16 313.4,152.023 	"/>
	<polyline fill="#652222" points="313.316,152.516 313.312,152.559 313.332,152.602 313.316,152.516 	"/>
	<polyline fill="#652222" points="313.357,152.738 313.352,152.965 313.357,152.738 	"/>
	<polyline fill="#652222" points="313.436,152.613 313.332,152.609 313.332,152.602 313.357,152.738 313.436,152.613 	"/>
	<polyline fill="#652222" points="313.529,152.535 313.436,152.613 313.529,152.535 	"/>
	<path fill="#652222" d="M314.217,151.762c-0.057,0.105-0.107,0.219-0.164,0.34c-0.088,0.164,0.195,0.391,0.244,0.637l-0.176,0.109
		c0.059,0.195,0.168,0.348,0.168,0.52l-0.152,0.297c0.053,0.137,0.252,0.383,0.352,0.414c0.041,0.016,0.064-0.008,0.053-0.082
		c-0.068-0.406-0.133-0.664-0.168-1.039c-0.084-0.301-0.176-0.609-0.221-0.941L314.217,151.762"/>
	<path fill="#652222" d="M314.148,150.203l-0.191,0.016l0.039,0.152c-0.229,0.137-0.219,0.359-0.199,0.578l0.139-0.066
		c0.01-0.059-0.008-0.09-0.031-0.102c-0.016-0.004-0.043,0.004-0.072,0.027C314.025,150.617,314.105,150.418,314.148,150.203"/>
	<polyline fill="#652222" points="314.18,150.066 314.168,150.07 314.148,150.203 314.16,150.203 314.172,150.172 314.18,150.066 	
		"/>
	<polyline fill="#652222" points="314.172,150.172 314.16,150.203 314.168,150.207 314.172,150.172 	"/>
	<path fill="#652222" d="M314.844,158.168c-0.176-0.059-0.16-0.25-0.119-0.418C314.824,157.824,314.869,157.988,314.844,158.168
		L314.844,158.168 M314.549,157.703l0.061-0.152l0,0L314.549,157.703 M314.061,156.484l-0.111-0.426l0.059,0.094
		C314.076,156.254,314.145,156.355,314.061,156.484 M313.941,156.035l0.092-0.035l-0.025,0.141L313.941,156.035L313.941,156.035
		 M327.74,154.734c-0.305-0.102-0.623-0.059-0.676-0.059c-1.549,4.293-5.611,6.789-9.137,5.574c-0.004,0-0.004,0-0.008,0
		c-1.344-0.461-2.42-1.41-3.16-2.633c-0.012,0.047-0.023,0.09-0.035,0.133l0,0c0.012-0.043,0.023-0.086,0.035-0.133
		c-0.66-1.105-1.047-2.445-1.104-3.879c-0.039,0.078-0.072,0.141-0.068,0.141c0.041,0.57,0.109,1.105,0.209,1.617l0.1,0.094
		l-0.057,0.145l0.053,0.23l0.043,0.07l-0.031-0.027c0.045,0.168,0.084,0.336,0.137,0.504l0.059,0.086
		c0.076,0.102,0.152,0.203,0.08,0.328l0.033,0.09l0.012-0.027l-0.008,0.043c0.043,0.129,0.096,0.25,0.148,0.371l0,0
		c0.096,0.242,0.215,0.477,0.348,0.719c0.732,1.324,1.896,2.242,3.332,2.734c0.219,0.074,0.439,0.141,0.672,0.199
		c0.951,0.234,1.932,0.273,2.904,0.156c0.975-0.117,1.852-0.574,2.646-1.098c0.805-0.539,1.545-1.152,2.43-1.793
		c0.695-0.504,1.371-1.941,1.615-2.691C328.312,155.074,328.033,154.836,327.74,154.734"/>
	<path fill="#652222" d="M313.785,154.246c-0.004,0.008-0.008,0.02-0.012,0.031C313.777,154.266,313.781,154.254,313.785,154.246
		 M325.453,156.031c-0.029,0.012-0.061,0.031-0.084,0.055C325.393,156.066,325.424,156.047,325.453,156.031 M314.656,157.363
		C314.66,157.367,314.66,157.367,314.656,157.363C314.66,157.367,314.66,157.367,314.656,157.363L314.656,157.363 M314.693,157.375
		c0.004,0,0.016,0,0.02,0.004c0.016,0.004,0.035,0.008,0.051,0.016l0,0c-0.016-0.008-0.035-0.012-0.051-0.016
		C314.709,157.375,314.697,157.375,314.693,157.375 M314.652,157.363c-0.043-0.02-0.068-0.043-0.02-0.117
		C314.588,157.32,314.613,157.344,314.652,157.363 M327.064,154.676L327.064,154.676c-0.992,0.176-0.732,0.75-1.611,1.355
		c0.076-0.043,0.123-0.055,0.16-0.043c0.207,0.07-0.217,0.938-0.949,1.012c-0.635,0.039-1.012,0.359-1.416,0.73
		c-0.391,0.371-0.828,0.789-1.34,0.887c-0.248,0.039-0.48,0.184-0.768,0.238c-0.76,0.039-1.428,0.086-2.125,0.008
		c-0.291-0.031-0.588-0.09-0.879-0.195c-0.393-0.133-0.764-0.34-1.096-0.641c-0.309-0.254-0.725-0.359-1.053-0.582
		c-0.203-0.199-0.256-0.531-0.367-0.727c-0.176-0.312-0.373-0.559-0.584-0.805c0.164,0.305,0.324,0.504,0.527,0.812
		c0.076,0.113-0.045,0.109-0.184,0.066c-0.117-0.043-0.248-0.109-0.312-0.168c-0.08-0.047,0.115-0.281,0.041-0.32
		c-0.061-0.152-0.221-0.238-0.346-0.383l0.125-0.164c-0.125-0.199-0.48-0.273-0.453-0.453c0.01-0.129,0.021-0.25,0.041-0.359
		l-0.023-0.211l-0.084-0.113l-0.248,0.117l0.047-0.246l-0.047,0.246l0.248-0.117c-0.201-0.293-0.361-0.668-0.473-1.035l-0.023,0.008
		c0.031,0.215,0.02,0.418-0.088,0.652c0.023-0.039,0.051-0.059,0.076-0.047c0.023,0.004,0.039,0.035,0.051,0.086l-0.111,0.102
		c-0.088-0.184-0.176-0.379-0.008-0.582l-0.088-0.121l0.176-0.086l-0.02-0.125c-0.068,0.055-0.145,0.176-0.201,0.27
		c0.061,1.43,0.445,2.77,1.104,3.879c0.018-0.055,0.033-0.102,0.041-0.145l0,0c-0.008,0.043-0.023,0.09-0.041,0.145
		c0.74,1.227,1.816,2.172,3.16,2.633c0.004,0,0.004,0,0.008,0C321.453,161.469,325.516,158.973,327.064,154.676"/>
	<path fill="#652222" d="M313.949,156.055l0.111,0.426c0.084-0.125,0.016-0.23-0.057-0.332L313.949,156.055"/>
	<path fill="#FCD58E" d="M350.865,162.703c-1.514,4.391-5.629,6.957-9.197,5.727c-3.568-1.227-5.23-5.781-3.723-10.176
		L350.865,162.703"/>
	<polyline fill="#652222" points="337.145,160.207 337.105,160.461 337.205,160.336 337.145,160.207 	"/>
	<polyline fill="#652222" points="337.064,160.695 337.061,160.738 337.08,160.785 337.064,160.695 	"/>
	<polyline fill="#652222" points="337.1,160.914 337.1,161.145 337.1,160.914 	"/>
	<polyline fill="#652222" points="337.18,160.793 337.08,160.789 337.08,160.785 337.1,160.914 337.18,160.793 	"/>
	<polyline fill="#652222" points="337.273,160.711 337.18,160.793 337.273,160.711 	"/>
	<path fill="#652222" d="M337.965,159.945c-0.061,0.102-0.113,0.215-0.164,0.34c-0.088,0.164,0.195,0.387,0.24,0.637l-0.172,0.105
		c0.062,0.191,0.168,0.348,0.168,0.52l-0.156,0.297c0.055,0.137,0.256,0.387,0.355,0.414c0.041,0.02,0.061-0.008,0.053-0.082
		c-0.068-0.398-0.133-0.664-0.168-1.035c-0.084-0.305-0.18-0.609-0.217-0.945L337.965,159.945"/>
	<path fill="#652222" d="M337.893,158.383l-0.184,0.016l0.035,0.152c-0.229,0.137-0.219,0.359-0.199,0.578l0.135-0.066
		c0.014-0.059-0.004-0.09-0.031-0.102c-0.016-0.004-0.039,0.004-0.068,0.027C337.773,158.797,337.844,158.598,337.893,158.383"/>
	<polyline fill="#652222" points="337.924,158.246 337.916,158.25 337.893,158.383 337.908,158.383 337.92,158.352 337.924,158.246 
			"/>
	<polyline fill="#652222" points="337.92,158.352 337.908,158.383 337.916,158.383 337.92,158.352 	"/>
	<path fill="#652222" d="M338.592,166.348c-0.176-0.059-0.164-0.25-0.119-0.418C338.576,166.004,338.613,166.168,338.592,166.348
		C338.596,166.348,338.596,166.348,338.592,166.348 M338.293,165.883l0.064-0.152l0,0L338.293,165.883 M337.809,164.66l-0.107-0.426
		l0.051,0.094C337.816,164.434,337.889,164.535,337.809,164.66 M337.68,164.215l0.098-0.035l-0.029,0.141L337.68,164.215
		L337.68,164.215 M351.484,162.91c-0.301-0.098-0.627-0.055-0.676-0.055c-1.553,4.297-5.611,6.785-9.133,5.574
		c-0.004,0-0.004,0-0.008,0c-1.348-0.461-2.424-1.41-3.16-2.633c-0.016,0.043-0.031,0.086-0.039,0.133l0,0
		c0.008-0.047,0.023-0.09,0.039-0.133c-0.664-1.105-1.051-2.445-1.107-3.879c-0.043,0.082-0.072,0.137-0.068,0.141l0,0
		c0.041,0.574,0.109,1.105,0.209,1.621l0.1,0.094l-0.057,0.141l0.053,0.23l0.043,0.07l-0.031-0.031
		c0.045,0.172,0.084,0.34,0.137,0.508l0.059,0.09c0.076,0.102,0.152,0.199,0.08,0.332l0.033,0.086l0.012-0.027l-0.004,0.043
		c0.039,0.125,0.092,0.246,0.141,0.367l0,0c0.104,0.246,0.223,0.477,0.352,0.715c0.732,1.328,1.895,2.246,3.336,2.742
		c0.215,0.078,0.439,0.137,0.672,0.191c0.947,0.242,1.924,0.281,2.9,0.16c0.979-0.113,1.852-0.57,2.646-1.098
		c0.809-0.543,1.541-1.152,2.43-1.793c0.695-0.504,1.371-1.941,1.615-2.695C352.057,163.25,351.781,163.012,351.484,162.91"/>
	<path fill="#652222" d="M337.529,162.426c-0.004,0.008-0.01,0.02-0.018,0.035C337.52,162.449,337.525,162.434,337.529,162.426
		 M349.193,164.207c-0.025,0.016-0.053,0.035-0.08,0.055C349.145,164.246,349.168,164.227,349.193,164.207 M338.408,165.547
		L338.408,165.547L338.408,165.547L338.408,165.547 M338.424,165.551C338.428,165.551,338.428,165.551,338.424,165.551
		C338.428,165.551,338.428,165.551,338.424,165.551 M338.441,165.555c0.008,0,0.016,0.004,0.02,0.004
		c0.02,0.004,0.035,0.012,0.055,0.016l0,0c-0.02-0.004-0.035-0.012-0.055-0.016C338.457,165.559,338.449,165.555,338.441,165.555
		 M338.396,165.543c-0.039-0.016-0.064-0.051-0.012-0.125C338.332,165.492,338.357,165.527,338.396,165.543 M350.812,162.855
		L350.812,162.855c-0.992,0.176-0.732,0.754-1.615,1.352c0.076-0.039,0.127-0.051,0.164-0.039c0.207,0.07-0.217,0.945-0.949,1.012
		c-0.639,0.039-1.016,0.359-1.416,0.73c-0.391,0.379-0.828,0.789-1.34,0.887c-0.248,0.039-0.484,0.184-0.768,0.242
		c-0.76,0.039-1.428,0.086-2.125,0.008c-0.291-0.035-0.584-0.094-0.879-0.195c-0.393-0.137-0.768-0.34-1.096-0.645
		c-0.309-0.254-0.725-0.359-1.053-0.582c-0.203-0.199-0.256-0.535-0.367-0.727c-0.172-0.312-0.377-0.559-0.584-0.805
		c0.168,0.309,0.324,0.504,0.527,0.812c0.08,0.113-0.045,0.109-0.188,0.066c-0.117-0.043-0.248-0.109-0.309-0.168
		c-0.084-0.043,0.115-0.281,0.041-0.324c-0.061-0.145-0.225-0.234-0.342-0.379l0.117-0.16c-0.121-0.203-0.477-0.277-0.443-0.457
		c0.004-0.129,0.016-0.25,0.035-0.359l-0.027-0.211l-0.08-0.113l-0.248,0.117l0.047-0.246l-0.047,0.246l0.248-0.117
		c-0.201-0.293-0.361-0.664-0.477-1.027l-0.02,0.004c0.027,0.211,0.02,0.414-0.088,0.648c0.023-0.039,0.051-0.055,0.072-0.047
		c0.023,0.008,0.043,0.035,0.051,0.086l-0.107,0.102c-0.088-0.184-0.176-0.379-0.012-0.582l-0.084-0.117l0.176-0.086l-0.023-0.129
		c-0.068,0.051-0.145,0.176-0.197,0.27c0.061,1.43,0.443,2.77,1.107,3.879c0.018-0.055,0.033-0.102,0.037-0.145l0,0
		c-0.004,0.043-0.02,0.09-0.037,0.145c0.736,1.227,1.812,2.172,3.16,2.633c0.004,0,0.004,0,0.008,0
		C345.197,169.645,349.26,167.152,350.812,162.855"/>
	<path fill="#652222" d="M337.697,164.234l0.107,0.426c0.084-0.125,0.012-0.23-0.061-0.332L337.697,164.234"/>
</g>
<g>
	<path fill="#652222" d="M320.225,210.922c-2.732-1.859-4.764-3.637-6.859-5.465c-2.076-1.844-4.213-3.754-6.797-6.367
		c-1.057-1.082-2.875-3.039-4.809-5.785c-2.531-3.582-5.084-8.395-6.791-13.797c-1.74-5.391-2.621-11.324-2.617-16.727
		c-0.031-5.41,0.773-10.238,1.613-13.629c0.844-3.406,1.615-5.414,1.607-5.414c0.012,0,0.576-1.746,1.812-4.523
		c1.248-2.762,3.248-6.543,6.127-10.41c2.857-3.879,6.605-7.801,10.816-11.023c4.201-3.246,8.828-5.754,13.072-7.379
		c4.668-1.809,8.676-2.473,10.652-2.734c3.645-0.465,6.504-0.652,9.279-0.832c2.768-0.152,5.469-0.297,8.764-0.086
		c-2.744-1.844-5.344-3.047-8.234-3.816c-2.893-0.742-6.105-1.047-10.168-0.57c-2.201,0.266-6.652,0.992-11.809,2.988
		c-4.68,1.789-9.771,4.547-14.389,8.117c-4.623,3.547-8.752,7.863-11.896,12.133c-3.162,4.262-5.363,8.43-6.734,11.484
		c-1.369,3.066-1.98,4.984-1.992,4.98c0.012,0.004-0.844,2.215-1.781,5.961c-0.928,3.738-1.824,9.066-1.795,15.023
		c-0.008,5.945,0.951,12.473,2.867,18.398c1.881,5.941,4.688,11.242,7.492,15.199c2.145,3.047,4.176,5.211,5.359,6.395
		c2.908,2.879,5.625,4.617,8.365,5.809C314.133,210.035,316.928,210.688,320.225,210.922z"/>
</g>
<g>
	<path fill="#652222" d="M313.697,208.68c3.299,0.211,6,0.062,8.771-0.094c2.771-0.18,5.631-0.375,9.275-0.84
		c1.492-0.199,4.133-0.621,7.348-1.602c4.201-1.262,9.172-3.488,13.846-6.695c4.688-3.184,9.035-7.316,12.355-11.582
		c3.348-4.246,5.688-8.547,7.107-11.742c1.428-3.203,2.057-5.258,2.064-5.254c-0.012-0.004,0.615-1.727,1.348-4.68
		c0.725-2.945,1.469-7.156,1.58-11.977c0.133-4.812-0.416-10.215-1.752-15.344c-1.312-5.141-3.42-9.965-5.768-13.855
		c-2.568-4.297-5.32-7.285-6.717-8.707c-2.588-2.609-4.729-4.52-6.805-6.363c-2.092-1.824-4.127-3.602-6.863-5.465
		c3.301,0.234,6.092,0.883,8.844,2.059c2.74,1.191,5.461,2.93,8.365,5.801c1.576,1.566,4.635,4.879,7.475,9.621
		c2.592,4.289,4.912,9.598,6.344,15.25c1.473,5.641,2.068,11.586,1.916,16.883c-0.127,5.309-0.955,9.949-1.752,13.199
		c-0.807,3.25-1.508,5.152-1.496,5.152c-0.008-0.004-0.691,2.262-2.256,5.793c-1.572,3.52-4.143,8.27-7.828,12.949
		c-3.65,4.691-8.424,9.246-13.58,12.742c-5.139,3.535-10.607,5.984-15.256,7.379c-3.559,1.078-6.496,1.539-8.154,1.742
		c-4.061,0.484-7.277,0.18-10.168-0.562C319.049,211.727,316.449,210.52,313.697,208.68z"/>
</g>
<g>
	<path fill="#652222" d="M356.988,100.297c-0.027-0.008-0.047-0.004-0.064,0.008c-0.314,0.281-0.416,0.375-0.5,0.348
		c-0.127-0.043-0.215-0.398-1.004-0.77c-0.004-0.004-0.008-0.004-0.016-0.008c-0.084-0.031-0.268-0.008-0.473,0.012
		c-0.199,0.016-0.416,0.027-0.574-0.027c-0.021-0.008-0.037-0.016-0.061-0.027c-0.248-0.148-0.457-0.25-0.66-0.316
		c-0.611-0.211-1.104-0.129-2.088-0.309c-1.973-0.164-2.26-0.848-4.117-0.492c-0.223-0.008-2.986,0.164-2.986,0.184
		c-2.113-0.188-3.453,0.355-5.094-0.203c-1.928,0.754-4.508,0.465-6.559,1.117c-2.033,0.645-2.936,0.441-4.805,0.695
		c-0.523,0.129-0.9,0.312-1.225,0.312c-0.322-0.008-0.959,0.641-1.475,0.805l0.068-0.305l-0.697,0.219
		c-0.055,0.016-0.088,0.02-0.111,0.012c-0.053-0.02-0.037-0.086-0.02-0.16c0.031-0.164,0.062-0.324-0.088-0.375
		c-0.041-0.016-0.09-0.02-0.156-0.016c-0.752,0.184-1.5,0.426-2.266,0.734c-0.688,0.5-1.355,1.016-1.986,1.57
		c0,0.125-0.014,0.262-0.076,0.41l-0.545,0.531c-0.035,0.309,0.1,0.543,0.084,0.746c0.248,0.668-0.32,1.797,0.117,2.273
		c0.004,0.012,0.012,0.012,0.02,0.02c0.215,0.07,1.275-0.5,1.871-0.461c0.004,0.004,0.008,0.004,0.008,0.004
		c0.133,0.051-0.051,0.41-0.08,0.703c0.285-0.16,0.473-0.207,0.572-0.172c0.125,0.043,0.117,0.207,0.012,0.414l0.316-0.129
		l-0.039,0.402c1.715-0.613,3.672-0.887,5.195-1.852c0.332-0.184,0.869-0.605,1.232-0.871c0.18-0.137,0.637-0.152,0.791-0.184
		c0.232-0.324,0.141-0.586,0.217-0.887c1.271-0.207,3.947-0.438,3.787-1.344c1.004-0.188,1.172-0.672,2.229-0.914
		c1.396-0.328,3.176-0.617,4.924-0.734c0.957-0.094,1.881-0.098,2.797-0.059c0.348,0.004,0.68,0.016,0.996,0.039
		c2.76,0.145,5.152,0.711,7.391,1.477c0.557,0.195,1.102,0.398,1.641,0.609c2.721,1.09,5.305,2.402,8.213,4.066
		c2.939,1.684,5.604,4.129,7.73,6.945c2.137,2.812,3.744,5.969,4.861,8.98c2.252,6.059,2.596,11.355,2.82,13.195l0.459,0.984
		c0.184-1.316-0.068-4.055-0.652-6.832c-0.572-2.789-1.496-5.582-2.062-7.281l-1.148-3c-0.045-0.102-0.057-0.152-0.049-0.152
		c0.023,0.012,0.584,1.273,1.193,3.145c0.359,0.977,0.768,2.141,1.188,3.539c-0.293-1.867-0.68-3.645-0.969-4.93
		c-0.359-0.844-0.748-1.684-1.156-2.523c-1.82-3.691-4.084-6.891-6.672-9.844c-0.916-1.117-3.215-3.145-4.24-4.074
		c4.529,3.434,8.273,8.051,11.045,13.371l-0.188-0.461c-1.42-2.824-3.117-5.473-5.076-7.863l-1.033-1.207
		c0.35,0.402,0.701,0.797,1.033,1.207c0.9,1.035,1.787,2.008,2.684,3.223c0.527,0.766,1.023,1.75,1.5,2.559
		c0.385,0.668,0.619,1.379,0.893,2.086l0.619,1.277c0.076,0.109,0.152,0.242,0.225,0.371v-0.027c0.02-0.719-1.156-3.922-2.928-6.863
		c-1.729-2.969-4.057-5.559-4.812-6.152c-1.195-0.977-2.588-1.383-3.977-2.305c-0.443-0.285-0.752-0.668-1.145-0.801
		c-0.016-0.008-0.039-0.016-0.059-0.02c-0.076,0.055-0.289-0.008-0.5-0.062c-0.84-0.488-1.576-1.211-2.332-1.473
		c-0.102-0.031-0.205-0.055-0.301-0.074c-0.004,0-0.004-0.004-0.008-0.004c-0.252-0.09-0.588-0.57-0.904-1.039
		C357.436,100.816,357.145,100.348,356.988,100.297"/>
</g>
<g>
	<path fill="#652222" d="M356.908,101.82c-0.027-0.008-0.047-0.008-0.064,0.008c-0.311,0.281-0.416,0.375-0.5,0.344
		c-0.127-0.043-0.215-0.391-1-0.77c-0.008,0-0.012-0.004-0.02-0.008c-0.084-0.027-0.268-0.004-0.467,0.012
		c-0.205,0.016-0.42,0.035-0.58-0.027c-0.021-0.004-0.037-0.012-0.057-0.023c-0.248-0.148-0.461-0.246-0.664-0.316
		c-0.611-0.211-1.104-0.133-2.084-0.312c-1.977-0.164-2.264-0.848-4.121-0.492c-0.223-0.004-2.986,0.164-2.982,0.188
		c-2.117-0.191-3.453,0.355-5.096-0.207c-1.93,0.754-4.504,0.465-6.557,1.121c-2.037,0.645-2.939,0.445-4.809,0.691
		c-0.523,0.129-0.896,0.312-1.219,0.312c-0.324-0.004-0.965,0.641-1.477,0.805l0.064-0.301l-0.697,0.215
		c-0.055,0.016-0.088,0.02-0.107,0.012c-0.057-0.016-0.041-0.086-0.023-0.16c0.035-0.16,0.062-0.32-0.088-0.375
		c-0.041-0.012-0.088-0.02-0.156-0.016c-0.752,0.184-1.5,0.434-2.264,0.734c-0.689,0.5-1.357,1.023-1.988,1.57
		c0,0.133-0.008,0.262-0.076,0.406l-0.545,0.543c-0.035,0.301,0.1,0.535,0.084,0.742c0.248,0.664-0.324,1.797,0.113,2.277
		c0.004,0.004,0.016,0.008,0.023,0.012c0.211,0.074,1.271-0.5,1.867-0.457c0.004,0,0.008,0,0.008,0.004
		c0.137,0.043-0.051,0.406-0.08,0.703c0.289-0.164,0.473-0.207,0.576-0.172c0.121,0.039,0.113,0.203,0.014,0.414l0.311-0.133
		l-0.039,0.402c1.715-0.605,3.672-0.883,5.195-1.852c0.336-0.184,0.869-0.602,1.232-0.875c0.18-0.137,0.637-0.148,0.795-0.176
		c0.229-0.324,0.141-0.59,0.213-0.887c1.271-0.211,3.947-0.438,3.787-1.348c1.006-0.184,1.174-0.668,2.229-0.914
		c1.396-0.328,3.176-0.617,4.924-0.727c0.961-0.102,1.881-0.102,2.801-0.066c0.344,0.008,0.68,0.016,0.992,0.039
		c2.76,0.145,5.152,0.711,7.391,1.48c0.561,0.191,1.102,0.398,1.645,0.609c2.717,1.09,5.301,2.402,8.209,4.062
		c2.943,1.684,5.604,4.125,7.73,6.945c2.141,2.816,3.744,5.973,4.865,8.98c2.248,6.059,2.592,11.355,2.816,13.195l0.459,0.984
		c0.184-1.316-0.064-4.051-0.652-6.832c-0.57-2.785-1.496-5.578-2.062-7.281l-1.145-2.992c-0.041-0.098-0.057-0.152-0.049-0.148
		c0.025,0.012,0.588,1.273,1.193,3.141c0.359,0.98,0.768,2.145,1.188,3.543c-0.293-1.871-0.68-3.645-0.969-4.93
		c-0.359-0.844-0.748-1.684-1.156-2.527c-1.82-3.688-4.084-6.883-6.672-9.844c-0.916-1.113-3.215-3.145-4.24-4.07
		c4.529,3.434,8.277,8.051,11.045,13.371l-0.184-0.465c-1.424-2.828-3.121-5.469-5.08-7.855l-1.033-1.215
		c0.354,0.402,0.701,0.797,1.033,1.215c0.904,1.023,1.787,2.004,2.684,3.219c0.531,0.77,1.023,1.746,1.5,2.555
		c0.385,0.672,0.619,1.383,0.896,2.086l0.615,1.277c0.076,0.113,0.152,0.238,0.229,0.371v-0.02c0.02-0.73-1.16-3.926-2.932-6.871
		c-1.729-2.965-4.057-5.555-4.812-6.148c-1.195-0.977-2.588-1.387-3.973-2.305c-0.447-0.285-0.752-0.668-1.143-0.805
		c-0.021-0.008-0.041-0.012-0.064-0.02c-0.076,0.055-0.285,0-0.5-0.062c-0.84-0.488-1.576-1.207-2.332-1.465
		c-0.096-0.039-0.201-0.062-0.301-0.082c0,0-0.004,0-0.008,0c-0.252-0.086-0.584-0.57-0.9-1.039
		C357.352,102.336,357.064,101.867,356.908,101.82"/>
</g>
</svg>
