<?xml version="1.0" encoding="utf-8"?>
<!-- Generator: Adobe Illustrator 15.0.0, SVG Export Plug-In . SVG Version: 6.00 Build 0)  -->
<!DOCTYPE svg PUBLIC "-//W3C//DTD SVG 1.1//EN" "http://www.w3.org/Graphics/SVG/1.1/DTD/svg11.dtd">
<svg version="1.1" id="Layer_1" xmlns="http://www.w3.org/2000/svg" xmlns:xlink="http://www.w3.org/1999/xlink" x="0px" y="0px"
	 width="170.422px" height="60.563px" viewBox="0 0 170.422 60.563" enable-background="new 0 0 170.422 60.563"
	 xml:space="preserve">
<rect x="-22.828" y="-12.913" fill="#E4E1B4" width="215.194" height="87.743"/>
<g>
	<path fill="#652222" d="M14.637,38.545c-0.122,0.407-0.407,0.488-0.691,0.163c-0.692-0.772-1.017-2.358-0.204-4.556
		c1.993-5.49,7.321-15.131,10.535-20.54c0.366-0.61,0.651-0.651,1.058-0.367c1.505,1.099,1.83,2.237,1.383,5.044
		c-0.65,3.864-1.058,8.948-1.342,14.644c2.766-6.265,7.443-14.766,10.494-19.483c0.325-0.488,0.69-0.366,0.936,0.081
		c0.609,1.221,0.569,2.848-1.262,5.897c-2.399,3.986-7.565,13.748-9.965,19.158c-0.163,0.407-0.366,0.488-0.813,0.244
		c-1.221-0.65-1.79-1.627-1.993-4.229c-0.203-2.481-0.041-7.973,0.691-13.748C20.413,26.099,16.264,33.665,14.637,38.545z"/>
	<path fill="#652222" d="M39.166,14.874c-0.081-0.366,0.041-0.529,0.448-0.488c3.376,0.203,7.85-0.977,10.128-1.018
		c1.709-0.04,2.603,0.651,3.091,1.994c0.122,0.324,0.041,0.609-0.447,0.528c-2.929-0.041-5.775,0.691-8.257,1.098
		c-1.627,2.44-3.62,5.979-5.613,9.6c1.099-0.203,2.156-0.284,2.888-0.325c2.034-0.081,2.93,0.569,3.336,1.83
		c0.122,0.366,0.122,0.61-0.406,0.61c-2.197,0-5.248,0.569-7.525,1.139c-1.18,2.278-2.277,4.515-3.132,6.427
		c1.952-0.61,4.637-1.18,6.305-1.261c1.993-0.082,3.01,0.569,3.457,1.789c0.122,0.366,0.081,0.61-0.406,0.61
		c-2.278-0.041-6.712,1.017-8.989,1.627c-0.773,0.204-1.221,0.204-1.709-0.406c-0.325-0.366-0.569-0.977-0.854-1.505
		c-0.366-0.691-0.366-1.221,0.04-2.318c1.871-5.003,5.938-12.569,9.355-17.856C39.858,16.541,39.411,15.727,39.166,14.874z"/>
	<path fill="#652222" d="M85.661,27.726c0.081,0.366,0.081,0.569-0.447,0.529c-1.464-0.163-2.766-0.041-3.945,0.081
		c-0.813,1.383-1.627,2.807-2.115,4.027c-0.122,0.488-0.366,0.569-0.732,0.284c-0.569-0.447-1.261-1.464-0.488-3.376
		c0.082-0.203,0.163-0.447,0.285-0.691c-0.041,0-0.041,0-0.081,0c-1.871-0.04-2.726-0.936-3.01-2.156
		c-0.082-0.365,0-0.609,0.487-0.569c1.18,0.082,2.645,0,3.986-0.122c0.772-1.383,1.546-2.807,2.196-3.945
		c0.285-0.487,0.61-0.406,0.936-0.041c0.65,0.732,0.896,2.034,0.041,3.783C84.684,25.571,85.458,26.506,85.661,27.726z"/>
	<path fill="#652222" d="M97.825,22.357c1.342,0.204,2.603,2.197,1.586,4.312c-0.854,1.79-2.847,4.8-3.783,6.915
		c-1.058,2.359-0.812,4.271,0.651,4.189c1.668-0.081,3.66-2.766,5.207-5.613c0.203-0.366,0.488-0.366,0.691-0.04
		c0.285,0.447,0.203,1.383-0.367,2.562c-1.098,2.277-3.66,4.352-6.019,4.352c-3.457,0-4.271-2.521-3.092-6.061
		c1.343-3.986,4.922-8.298,4.189-8.623c-0.406-0.162-2.765,0.977-5.368,3.823c-2.4,2.604-4.19,6.509-5.938,10.332
		c-0.163,0.366-0.407,0.528-0.773,0.162c-0.812-0.813-1.058-2.155-0.406-4.189c0.813-2.562,3.945-8.216,6.508-11.999
		c0.285-0.447,0.61-0.406,0.854,0c0.61,1.017,0.569,2.4,0.122,3.864C93.716,24.391,96.482,22.154,97.825,22.357z"/>
	<path fill="#652222" d="M115.438,22.602c0.365-0.529,0.691-0.61,0.977-0.245c0.609,0.732,0.936,2.481-0.041,4.516
		c-0.896,1.83-2.93,4.881-3.904,7.036c-1.018,2.278-1.059,4.027,0.324,3.945c1.668-0.081,3.904-2.847,5.328-5.653
		c0.203-0.366,0.488-0.407,0.652-0.041c0.162,0.366,0.162,1.384-0.367,2.522c-1.057,2.237-3.619,4.474-5.857,4.352
		c-2.195-0.121-3.334-1.423-3.334-3.335c-1.303,1.667-3.133,3.173-5.086,3.173c-3.783,0-4.555-5.166-1.178-10.088
		c3.293-4.8,6.506-6.63,8.541-6.63c1.748,0,2.562,1.342,2.48,2.929C114.503,24.106,114.991,23.252,115.438,22.602z M112.185,24.269
		c-1.303-0.122-4.271,2.522-6.508,6.143c-2.156,3.497-2.686,7.077-1.1,7.117c1.668,0.041,3.783-2.562,5.857-6.142
		C112.997,26.913,113.364,24.391,112.185,24.269z"/>
	<path fill="#652222" d="M119.794,21.422c-0.408-0.569-0.164-0.854,0.445-0.814c1.141,0.041,2.279-0.04,3.377-0.162
		c1.262-2.237,2.4-4.149,3.092-5.044c0.365-0.528,0.771-0.488,0.975,0c0.449,1.139,0.449,2.481-0.527,4.597
		c1.586-0.041,2.197,0.691,2.521,1.22c0.285,0.488,0.121,0.773-0.488,0.773c-0.895-0.122-2.154,0-3.172,0.162
		c-1.586,2.726-3.904,6.671-5.451,10.088c-1.342,2.969-0.895,5.491,0.814,5.572c1.83,0.081,4.148-2.807,5.654-5.857
		c0.242-0.488,0.689-0.569,0.854,0c0.203,0.65,0,1.383-0.408,2.318c-0.527,1.18-3.213,4.759-6.467,4.638
		c-2.684-0.082-4.84-3.092-2.889-7.77c0.855-2.033,2.562-5.45,4.312-8.664C121.054,22.479,120.118,21.87,119.794,21.422z"/>
	<path fill="#652222" d="M140.7,22.602c0.365-0.529,0.691-0.61,0.977-0.245c0.609,0.732,0.936,2.481-0.041,4.516
		c-0.896,1.83-2.93,4.881-3.904,7.036c-1.018,2.278-1.059,4.027,0.324,3.945c1.668-0.081,3.904-2.847,5.328-5.653
		c0.203-0.366,0.488-0.407,0.652-0.041c0.162,0.366,0.162,1.384-0.367,2.522c-1.057,2.237-3.619,4.474-5.857,4.352
		c-2.195-0.121-3.334-1.423-3.334-3.335c-1.303,1.667-3.133,3.173-5.086,3.173c-3.781,0-4.555-5.166-1.178-10.088
		c3.293-4.8,6.506-6.63,8.541-6.63c1.748,0,2.562,1.342,2.48,2.929C139.765,24.106,140.253,23.252,140.7,22.602z M137.446,24.269
		c-1.303-0.122-4.271,2.522-6.508,6.143c-2.156,3.497-2.686,7.077-1.1,7.117c1.668,0.041,3.783-2.562,5.857-6.142
		C138.259,26.913,138.626,24.391,137.446,24.269z"/>
	<path fill="#652222" d="M146.356,37.692c1.951,0.162,4.799-2.767,6.385-5.898c0.285-0.528,0.732-0.569,0.896,0
		c0.203,0.651,0.041,1.546-0.408,2.522c-0.568,1.22-3.537,4.597-6.791,4.515c-2.809-0.081-4.312-2.034-3.377-6.427
		c1.504-7.077,6.141-14.439,10.291-18.751c0.609-0.65,1.18-0.731,1.748-0.203c1.18,1.058,1.424,2.562,0.936,4.474
		c-1.26,5.003-5.816,9.885-9.436,12.243C144.974,34.153,144.524,37.529,146.356,37.692z M154.653,17.07
		c-0.529-0.325-3.537,4.189-6.346,9.396c-0.365,0.65-0.689,1.302-0.975,1.952C152.903,23.903,155.183,17.395,154.653,17.07z"/>
</g>
<g>
	<path fill="#FCD58E" d="M71.45,30.023c-2.477,7.19-9.219,11.391-15.059,9.379s-8.566-9.473-6.09-16.664
		c1.181-3.427,3.328-6.173,5.886-7.893c2.811-1.889,6.116-2.538,9.173-1.485c3.223,1.11,5.496,3.878,6.472,7.347
		C72.624,23.523,72.559,26.8,71.45,30.023"/>
	<path fill="#652222" d="M68.034,35.666c-0.179,0.195-0.365,0.385-0.556,0.57l0.298-0.268C67.9,35.845,67.955,35.772,68.034,35.666"
		/>
	<polyline fill="#652222" points="66.939,36.733 66.833,36.826 66.745,36.908 66.939,36.733 	"/>
	<path fill="#652222" d="M66.43,37.179l-0.555,0.425C66.074,37.465,66.257,37.323,66.43,37.179"/>
	<path fill="#652222" d="M66.745,36.908C66.643,37,66.54,37.088,66.43,37.179l0.316-0.238c-0.036,0.024-0.062,0.041-0.067,0.039
		c-0.006-0.001,0.011-0.021,0.062-0.068L66.745,36.908"/>
	<path fill="#652222" d="M66.955,36.791l-0.208,0.15C66.814,36.896,66.917,36.818,66.955,36.791"/>
	<path fill="#8E5B5B" d="M68.931,34.905c-0.244,0.297-0.506,0.592-0.806,0.906c-0.399,0.406-0.835,0.958-1.522,1.533
		c-0.105,0.095-0.114,0.021-0.326,0.204c-0.51,0.408-0.963,0.739-1.49,1.039c-0.235,0.151-0.647,0.285-0.89,0.412
		c-0.286,0.147-0.808,0.386-1.152,0.524c-0.201,0.081-0.338,0.138-0.327,0.142c0.009,0.003,0.093-0.021,0.285-0.084
		c0.689-0.235,1.24-0.494,1.759-0.771c0.518-0.282,1.004-0.587,1.542-0.979c0.863-0.655,1.623-1.386,2.348-2.238
		C68.556,35.357,68.746,35.135,68.931,34.905"/>
	<path fill="#652222" d="M71.292,30.45c-0.032,0.037-0.047,0.021-0.129,0.215l-0.142,0.4c-0.282,0.562-0.555,1.162-0.865,1.746
		l0.169-0.241c0.095-0.185,0.141-0.282,0.133-0.284c-0.004-0.001-0.025,0.029-0.064,0.095C70.76,31.752,71.048,31.117,71.292,30.45"
		/>
	<path fill="#8E5B5B" d="M71.315,30.399c-0.005,0.014-0.01,0.026-0.015,0.04l0.002-0.003L71.315,30.399"/>
	<path fill="#652222" d="M71.443,30.021l-0.007,0.015c-0.049,0.139-0.093,0.279-0.144,0.414l0.008-0.011
		c0.005-0.014,0.01-0.026,0.015-0.04L71.443,30.021"/>
	<path fill="#8E5B5B" d="M60.536,39.959c0.003,0.001,0.007,0.002,0.011,0.004C60.542,39.961,60.539,39.96,60.536,39.959
		L60.536,39.959 M60.535,39.959c-0.01-0.003-0.021-0.008-0.029-0.013C60.514,39.952,60.525,39.957,60.535,39.959 M60.49,39.94
		L60.49,39.94L60.49,39.94L60.49,39.94 M60.656,39.98c0.002,0.001,0.006,0.001,0.009,0.001
		C60.662,39.981,60.658,39.981,60.656,39.98 M60.675,39.983c0.002-0.001,0.004,0,0.006,0C60.679,39.983,60.677,39.982,60.675,39.983
		 M60.689,39.983h0.002H60.689 M60.695,39.983c0.001,0,0.002,0,0.002,0S60.696,39.983,60.695,39.983 M65.542,13.033
		c-0.312-0.107-0.63-0.199-0.95-0.273c-1.05-0.245-2.133-0.312-3.17-0.228c-1.038,0.08-2.136,0.354-3.304,0.845
		c-1.521,0.627-2.899,1.569-4.085,2.713c-1.186,1.145-2.186,2.49-2.969,3.965c-0.784,1.477-1.359,3.078-1.697,4.756
		c-0.339,1.677-0.431,3.434-0.222,5.194c0.23,1.868,0.812,3.42,1.562,4.751c0.531,0.985,1.232,1.954,1.868,2.587
		c0.995,0.998,2.043,1.633,3.099,2.056c-0.588-0.246-1.076-0.51-1.557-0.822c-0.479-0.312-0.952-0.677-1.47-1.18
		c-0.159-0.162-0.215-0.224-0.2-0.219c0.016,0.006,0.121,0.096,0.266,0.224c0.275,0.242,0.718,0.587,0.975,0.767
		c0.221,0.151,0.53,0.452,0.769,0.579c0.501,0.304,0.995,0.519,1.582,0.726c0.018,0.005,0.034,0.011,0.049,0.016
		c0.094,0.032,0.136,0.06,0.166,0.084c0.031,0.023,0.05,0.043,0.098,0.06c0.007,0.003,0.014,0.005,0.021,0.007
		c0.816,0.257,1.482,0.283,2.017,0.36c0.408,0.053,0.78,0.077,1.146,0.082c0.23,0.002,0.46-0.008,0.703-0.03
		c0.151-0.02,0.309-0.04,0.465-0.067c-0.002,0-0.004,0-0.006,0c0.002,0,0.004,0,0.006,0c1.12-0.181,2.381-0.604,3.47-1.185
		L64.158,38.8c-0.609,0.308-1.229,0.55-1.9,0.712c0.058-0.013,0.09-0.018,0.097-0.016c0.014,0.006-0.082,0.041-0.283,0.1
		c-0.092,0.016-0.184,0.026-0.274,0.038c0.609-0.166,1.199-0.391,1.768-0.585l0,0c0.002,0,0.246-0.124,0.364-0.188
		c0.186-0.08,0.185-0.058,0.229-0.061c0.124-0.065,0.251-0.129,0.375-0.2l-0.674,0.284l-0.056,0.021
		c-2.375,1.092-4.971,1.336-7.409,0.497c-0.001,0-0.002,0-0.003-0.001c-5.84-2.012-8.566-9.473-6.09-16.664
		c1.181-3.427,3.328-6.173,5.886-7.893c2.028-1.362,4.314-2.081,6.579-1.979c0.09-0.028,0.167-0.052,0.237-0.068
		c0.1-0.023,0.188-0.03,0.278,0c0.037,0.014,0.075,0.033,0.114,0.062c0.023-0.004,0.046-0.007,0.068-0.011l0.019,0.077
		c0.63,0.077,1.257,0.221,1.873,0.433c0.002,0,0.003,0,0.004,0.001c3.223,1.11,5.496,3.878,6.472,7.347
		c0.752,2.67,0.732,5.754-0.218,8.814c0.376-0.848,0.594-1.655,0.753-2.708c0.134-0.966,0.244-2.148,0.128-3.781
		c0.013,0.217,0.009,0.312-0.001,0.31c-0.002-0.001-0.004-0.009-0.008-0.021c-0.021-0.093-0.065-0.479-0.151-1.016
		c-0.088-0.534-0.224-1.216-0.416-1.896c-0.188-0.681-0.431-1.357-0.654-1.91c-0.317-0.801-0.783-1.639-1.407-2.42
		c-0.622-0.783-1.402-1.505-2.303-2.077C66.931,13.601,66.251,13.276,65.542,13.033"/>
	<path fill="#652222" d="M62.766,12.867c-2.265-0.103-4.551,0.616-6.579,1.979c-2.558,1.72-4.705,4.466-5.886,7.893
		c-2.477,7.191,0.25,14.652,6.09,16.664c0.001,0.001,0.002,0.001,0.003,0.001c2.438,0.839,5.034,0.595,7.409-0.497l-0.413,0.159
		c-1.66,0.69-3.353,0.936-4.944,0.762c-0.124,0.003-0.213,0.004-0.376-0.025l-0.365-0.085c-0.23-0.044-0.457-0.097-0.68-0.157
		c-0.079-0.019-0.157-0.041-0.237-0.062l-0.008-0.002c-0.127-0.029-0.093-0.009-0.018,0.023l-0.353-0.132
		c-0.039-0.013-0.078-0.026-0.119-0.04c-0.021-0.007-0.043-0.015-0.066-0.022c0-0.001-0.001-0.001-0.001-0.001
		c-0.304-0.104-0.584-0.226-0.753-0.336c0.323,0.155,0.653,0.292,0.99,0.407c0.083,0.029,0.167,0.057,0.251,0.082l-0.316-0.096
		c-0.007-0.004-0.015-0.005-0.022-0.008l0.037,0.014c0.13,0.039,0.251,0.079,0.378,0.11l0.11,0.025
		c-0.149-0.043-0.297-0.089-0.443-0.14c-0.355-0.122-0.701-0.265-1.038-0.431c-0.111-0.05-0.214-0.104-0.301-0.145
		c-0.344-0.169-0.674-0.367-0.854-0.528c-0.078-0.052-0.156-0.107-0.233-0.164l0.042,0.037l-0.084-0.068
		c-0.322-0.238-0.632-0.498-0.926-0.78c-0.197-0.172-0.398-0.354-0.588-0.55l-0.159-0.229c-0.082-0.074-0.194-0.188-0.312-0.332l0,0
		c-0.249-0.297-0.529-0.722-0.714-1.089c0.285,0.416,0.511,0.775,0.714,1.089c0.117,0.145,0.229,0.258,0.312,0.332l0.159,0.229
		c0.189,0.196,0.391,0.378,0.588,0.55c-0.572-0.549-1.088-1.176-1.54-1.874c-1.448-2.257-2.078-4.944-2.021-7.642
		c0.065-2.701,0.816-5.457,2.279-7.963c1.592-2.705,3.911-4.803,6.514-5.876c1.294-0.537,2.635-0.821,3.95-0.827
		c0.029-0.001,0.06,0,0.09-0.001c0.035-0.021,0.068-0.041,0.097-0.06c0.086-0.055,0.136-0.103,0.107-0.113
		c-0.012-0.003-0.034-0.001-0.07,0.008c-0.013,0.003-0.024,0.006-0.037,0.01c0.014-0.004,0.026-0.008,0.037-0.01
		C62.584,12.922,62.681,12.892,62.766,12.867 M65.356,13.359c-0.616-0.212-1.243-0.355-1.873-0.433l0.068,0.28
		c0.579,0.08,1.147,0.217,1.697,0.405c0.262,0.091,0.521,0.193,0.773,0.307c2.363,1.055,4.222,3.207,5.133,5.901
		c0.365,1.025,0.732,2.565,0.799,4.146c0.086,1.58-0.125,3.167-0.371,4.225c-0.14,0.716-0.246,1.158-0.289,1.426
		c-0.044,0.245-0.035,0.343,0,0.354c0.002,0.001,0.006,0.001,0.009,0.001c0.086-0.002,0.284-0.382,0.311-0.448
		c0-0.001,0-0.002,0.001-0.003c0.95-3.061,0.97-6.145,0.218-8.814c-0.976-3.469-3.249-6.236-6.472-7.347
		C65.359,13.359,65.358,13.359,65.356,13.359"/>
	<path fill="#8E5B5B" d="M62.257,39.512c-0.03,0.007-0.068,0.015-0.113,0.026C62.182,39.53,62.219,39.521,62.257,39.512
		 M72.457,22.57c0.014,0.157,0.027,0.312,0.038,0.462C72.487,22.915,72.475,22.762,72.457,22.57"/>
	<path fill="#652222" d="M55.47,38.987c0.169,0.11,0.449,0.231,0.753,0.336c0,0,0.001,0,0.001,0.001
		c0.049,0.017,0.099,0.033,0.148,0.049c0.008,0.003,0.016,0.004,0.022,0.008l0.316,0.096c-0.084-0.025-0.168-0.053-0.251-0.082
		C56.124,39.279,55.793,39.142,55.47,38.987"/>
	<path fill="#FCD58E" d="M64.854,18.538c-0.72,0.609-1.625,0.853-2.455,0.566c-1.382-0.476-2.028-2.24-1.441-3.942
		c0.439-1.277,1.447-2.154,2.507-2.312L64.854,18.538"/>
	<polyline fill="#652222" points="64.068,18.929 63.971,18.965 64.027,18.968 64.068,18.929 	"/>
	<polyline fill="#652222" points="63.879,18.996 63.862,19 63.849,19.011 63.879,18.996 	"/>
	<path fill="#652222" d="M63.799,19.037c-0.026,0.002-0.055,0.011-0.088,0.027C63.743,19.06,63.772,19.047,63.799,19.037"/>
	<polyline fill="#652222" points="63.849,19.011 63.799,19.037 63.853,19.038 63.848,19.011 63.849,19.011 	"/>
	<polyline fill="#652222" points="63.891,19.05 63.853,19.038 63.891,19.05 	"/>
	<path fill="#652222" d="M64.281,19.05l-0.161,0.043c-0.077,0.014-0.142,0.128-0.26,0.18c-0.002,0.002-0.005,0.002-0.007,0.001
		c-0.005-0.002-0.009-0.008-0.014-0.016c-0.006-0.007-0.012-0.014-0.02-0.017c-0.006-0.002-0.013-0.001-0.021,0.005
		c-0.082,0.043-0.154,0.09-0.239,0.104c-0.015,0.009-0.031,0.006-0.05-0.001c-0.008-0.003-0.016-0.006-0.023-0.008
		c-0.007-0.003-0.015-0.007-0.022-0.01c-0.017-0.006-0.033-0.009-0.045-0.002c-0.074,0.028-0.262,0.104-0.222,0.118
		c0.006,0.002,0.019,0.002,0.038,0.001c0.21-0.023,0.346-0.065,0.525-0.123c0.144-0.064,0.272-0.146,0.406-0.229
		C64.205,19.077,64.244,19.064,64.281,19.05"/>
	<path fill="#652222" d="M64.804,18.575l-0.052-0.017l-0.033,0.053c-0.09,0.013-0.151,0.079-0.218,0.142l0.048,0.006
		c0.027-0.021,0.035-0.036,0.023-0.04c-0.003-0.001-0.01-0.001-0.018,0.001C64.653,18.693,64.733,18.64,64.804,18.575"/>
	<polyline fill="#652222" points="64.816,18.57 64.807,18.577 64.809,18.578 64.816,18.57 	"/>
	<polyline fill="#652222" points="64.849,18.533 64.846,18.533 64.804,18.575 64.807,18.577 64.816,18.57 64.849,18.533 	"/>
	<path fill="#652222" d="M61.875,18.867c-0.001,0-0.001-0.001-0.001-0.002C61.874,18.866,61.874,18.867,61.875,18.867
		 M61.816,18.821c0.001,0,0.002,0,0.003,0C61.818,18.821,61.817,18.821,61.816,18.821 M61.874,18.865
		c-0.002-0.022-0.011-0.033-0.024-0.039C61.863,18.832,61.872,18.842,61.874,18.865 M61.846,18.825
		C61.846,18.825,61.846,18.826,61.846,18.825L61.846,18.825C61.846,18.826,61.846,18.825,61.846,18.825 M61.786,18.816
		c-0.009-0.003-0.016-0.009-0.02-0.02C61.77,18.807,61.777,18.813,61.786,18.816s0.02,0.005,0.03,0.005
		C61.805,18.821,61.794,18.819,61.786,18.816 M62.63,13.126c-0.1-0.003-0.198-0.005-0.297-0.006
		c-0.123,0.074-0.278,0.155-0.418,0.196c-0.266,0.069-0.506,0.301-0.697,0.58c-0.193,0.28-0.336,0.604-0.488,0.893
		c-0.076,0.146-0.124,0.314-0.183,0.502c-0.177,0.479-0.225,0.989-0.172,1.483c0.054,0.495,0.203,0.979,0.449,1.441
		c0.138,0.243,0.331,0.4,0.51,0.536c0.119,0.11,0.236,0.246,0.347,0.323c0.114,0.081,0.229,0.136,0.343,0.175
		c0.057,0.02,0.114,0.035,0.17,0.048c-0.18-0.062-0.312-0.111-0.495-0.226c-0.118-0.078,0.126-0.01,0.213,0.016
		c0.001,0.001,0.003,0.001,0.004,0.001c0.018,0.007,0.032,0.029,0.046,0.052c0.015,0.023,0.029,0.046,0.049,0.053
		c0.002,0.001,0.003,0.001,0.005,0.001c0.016,0.008,0.031,0.014,0.048,0.02c0.063,0.022,0.132,0.029,0.205,0.04
		c0.004,0,0.007,0.001,0.01,0.001c0.013,0.005,0.015,0.018,0.016,0.03c0.001,0.014,0.001,0.025,0.008,0.029c0,0,0.002,0,0.003,0
		c0.118,0.027,0.228-0.025,0.299,0c0.004,0.001,0.008,0.003,0.012,0.004l0.157,0.059c0.032,0.008,0.065,0.016,0.101,0.017
		l0.069-0.011l-0.022-0.071l0,0l0.022,0.071c0.166-0.026,0.352-0.067,0.518-0.121l-0.004-0.005c-0.093,0.02-0.187,0.022-0.282-0.011
		h-0.002c0.031,0.013,0.023,0.028-0.022,0.033l-0.038-0.032c0.082-0.018,0.158-0.039,0.236-0.013
		c0.006,0.003,0.013,0.006,0.02,0.008l0.054-0.027c0.003,0,0.005,0.001,0.007,0.001c0.021,0.008,0.022,0.025,0.028,0.041
		l0.058-0.015c-0.009-0.005-0.021-0.01-0.034-0.015c-0.024-0.008-0.054-0.016-0.079-0.022c-0.334,0.042-0.673,0.012-0.999-0.101
		c-0.001,0-0.002,0-0.002-0.001c-1.382-0.476-2.028-2.24-1.441-3.942C61.279,14.229,61.903,13.509,62.63,13.126"/>
	<path fill="#7C4343" d="M63.282,12.798c-0.09-0.03-0.179-0.023-0.278,0c-0.07,0.017-0.147,0.04-0.237,0.068
		c0.151,0.007,0.304,0.017,0.455,0.031c0.058-0.015,0.116-0.027,0.175-0.038C63.357,12.832,63.319,12.812,63.282,12.798"/>
	<path fill="#7D4140" d="M63.221,12.898c-0.151-0.015-0.304-0.024-0.455-0.031c-0.085,0.025-0.182,0.056-0.299,0.089
		c0.036-0.009,0.059-0.011,0.07-0.008c0.028,0.011-0.021,0.059-0.107,0.113c-0.028,0.019-0.062,0.039-0.097,0.06
		c0.099,0.001,0.197,0.003,0.297,0.006C62.821,13.027,63.019,12.95,63.221,12.898"/>
	<path fill="#652222" d="M61.83,18.769c0.001,0,0.003,0,0.003,0S61.831,18.769,61.83,18.769L61.83,18.769 M61.83,18.768
		c-0.005-0.002-0.009-0.004-0.014-0.006C61.821,18.764,61.825,18.766,61.83,18.768 M61.749,18.706L61.749,18.706L61.749,18.706
		L61.749,18.706 M61.749,18.706c-0.005-0.002-0.009-0.004-0.014-0.006C61.74,18.702,61.744,18.704,61.749,18.706 M61.798,18.711
		C61.799,18.71,61.799,18.71,61.798,18.711l0.012,0.048l0,0l0,0L61.798,18.711C61.799,18.71,61.799,18.71,61.798,18.711
		 M61.732,18.699L61.732,18.699c-0.047-0.024-0.092-0.079-0.11-0.142C61.688,18.583,61.713,18.64,61.732,18.699L61.732,18.699
		L61.732,18.699 M63.396,12.86c-0.059,0.011-0.117,0.023-0.175,0.038c-0.202,0.052-0.4,0.129-0.591,0.229
		c-0.728,0.383-1.352,1.103-1.673,2.035c-0.587,1.702,0.06,3.467,1.441,3.942c0,0.001,0.001,0.001,0.002,0.001
		c0.326,0.112,0.665,0.143,0.999,0.101c-0.003-0.001-0.006-0.001-0.008-0.002c-0.027-0.006-0.048-0.011-0.051-0.012l0,0
		c-0.24,0.025-0.469,0.008-0.683-0.044c-0.017,0.008-0.03,0.018-0.046,0.013c-0.003-0.001-0.006-0.003-0.009-0.005l-0.044-0.035
		l-0.091-0.03l-0.034-0.005h-0.001l-0.01,0.025l-0.042-0.034c-0.015-0.004-0.028-0.008-0.043-0.012
		c-0.008-0.003-0.017-0.005-0.023-0.008c-0.027-0.01-0.049-0.022-0.059-0.048c0.055,0.027,0.11,0.051,0.167,0.074l0.011,0.002
		l0.017-0.001c-0.067-0.025-0.135-0.054-0.199-0.086l-0.044-0.014c-0.012-0.003-0.025-0.007-0.037-0.011
		c-0.037-0.013-0.067-0.031-0.078-0.063l-0.033-0.02l0.003,0.008l-0.01-0.013c-0.044-0.031-0.091-0.06-0.134-0.094
		c-0.014-0.004-0.027-0.008-0.041-0.011c0.014,0.003,0.027,0.007,0.041,0.011c-0.085-0.064-0.167-0.137-0.244-0.215
		c-0.49-0.515-0.768-1.178-0.79-1.949c-0.007-0.418,0.071-0.821,0.21-1.186c0.139-0.363,0.29-0.7,0.495-1.001
		c0.203-0.301,0.466-0.566,0.795-0.721l0.454-0.247c0.168-0.085,0.341-0.153,0.461-0.186C63.613,13.114,63.426,12.874,63.396,12.86
		L63.396,12.86"/>
	<path fill="#7D4140" d="M62.467,12.956c-0.011,0.002-0.023,0.006-0.037,0.01C62.443,12.961,62.455,12.958,62.467,12.956"/>
	<polyline fill="#652222" points="63.165,19.245 63.162,19.243 63.171,19.247 63.165,19.245 	"/>
	<polyline fill="#652222" points="62.42,19.083 62.38,19.074 62.375,19.072 62.382,19.077 62.42,19.083 	"/>
	<path fill="#652222" d="M62.257,19.009c0.01,0.025,0.031,0.038,0.059,0.048c0.007,0.003,0.016,0.005,0.023,0.008
		c0.012,0.003,0.024,0.005,0.036,0.007c0.002,0.001,0.004,0.001,0.005,0.002l0.04,0.01l0.005,0.001
		c-0.001,0-0.001-0.001-0.001-0.001C62.368,19.06,62.312,19.037,62.257,19.009"/>
	<path fill="#FCD58E" d="M58.952,25.718c-0.378,1.098-1.406,1.739-2.3,1.432c-0.891-0.307-1.307-1.445-0.929-2.544L58.952,25.718"/>
	<polyline fill="#652222" points="55.522,25.093 55.511,25.158 55.537,25.127 55.522,25.093 	"/>
	<polyline fill="#652222" points="55.501,25.216 55.5,25.227 55.505,25.238 55.501,25.216 	"/>
	<polyline fill="#652222" points="55.511,25.272 55.51,25.328 55.511,25.272 	"/>
	<polyline fill="#652222" points="55.531,25.24 55.505,25.239 55.505,25.238 55.511,25.272 55.531,25.24 	"/>
	<polyline fill="#652222" points="55.554,25.221 55.531,25.24 55.554,25.221 	"/>
	<path fill="#652222" d="M55.726,25.028c-0.014,0.026-0.027,0.054-0.041,0.085c-0.022,0.041,0.049,0.097,0.061,0.159l-0.044,0.027
		c0.015,0.049,0.042,0.087,0.042,0.13l-0.038,0.074c0.013,0.034,0.063,0.096,0.088,0.104c0.01,0.004,0.016-0.002,0.013-0.021
		c-0.017-0.101-0.033-0.166-0.042-0.26c-0.021-0.075-0.044-0.152-0.055-0.235L55.726,25.028"/>
	<path fill="#652222" d="M55.709,24.638l-0.048,0.004l0.01,0.038c-0.057,0.034-0.055,0.09-0.05,0.144l0.035-0.016
		c0.002-0.015-0.002-0.023-0.008-0.026c-0.004-0.001-0.011,0.001-0.018,0.007C55.678,24.741,55.698,24.692,55.709,24.638"/>
	<polyline fill="#652222" points="55.717,24.604 55.714,24.605 55.709,24.638 55.712,24.638 55.715,24.63 55.717,24.604 	"/>
	<polyline fill="#652222" points="55.715,24.63 55.712,24.638 55.714,24.639 55.715,24.63 	"/>
	<path fill="#652222" d="M55.883,26.629c-0.044-0.015-0.04-0.062-0.03-0.104C55.878,26.543,55.889,26.584,55.883,26.629
		C55.883,26.629,55.883,26.629,55.883,26.629 M55.809,26.513l0.015-0.038l0,0L55.809,26.513 M55.687,26.208l-0.028-0.106
		l0.015,0.023C55.691,26.151,55.708,26.176,55.687,26.208 M55.657,26.096l0.023-0.009l-0.006,0.035L55.657,26.096L55.657,26.096
		 M59.107,25.771c-0.076-0.026-0.156-0.015-0.169-0.015c-0.387,1.073-1.403,1.697-2.284,1.394c-0.001,0-0.001,0-0.002,0
		c-0.336-0.116-0.605-0.353-0.79-0.659c-0.003,0.012-0.006,0.023-0.009,0.034l0,0c0.003-0.011,0.006-0.022,0.009-0.034
		c-0.165-0.276-0.262-0.611-0.276-0.969c-0.01,0.019-0.018,0.035-0.017,0.035c0.01,0.142,0.027,0.276,0.052,0.404l0.025,0.024
		l-0.014,0.036l0.013,0.057l0.011,0.018l-0.008-0.007c0.011,0.042,0.021,0.084,0.034,0.126l0.015,0.022
		c0.019,0.025,0.038,0.05,0.02,0.082l0.008,0.022l0.003-0.007l-0.002,0.011c0.011,0.032,0.024,0.062,0.037,0.093l0,0
		c0.024,0.06,0.054,0.119,0.087,0.179c0.183,0.331,0.474,0.561,0.833,0.684c0.055,0.019,0.11,0.035,0.168,0.05
		c0.238,0.058,0.483,0.068,0.726,0.039c0.244-0.029,0.463-0.144,0.662-0.275c0.201-0.134,0.386-0.288,0.607-0.448
		c0.174-0.126,0.343-0.485,0.404-0.673C59.25,25.856,59.18,25.796,59.107,25.771"/>
	<path fill="#652222" d="M55.618,25.649c-0.001,0.002-0.002,0.005-0.003,0.007C55.616,25.654,55.617,25.651,55.618,25.649
		 M58.535,26.095c-0.007,0.003-0.015,0.008-0.021,0.014C58.52,26.104,58.528,26.099,58.535,26.095 M55.836,26.428
		C55.837,26.429,55.837,26.429,55.836,26.428C55.837,26.429,55.837,26.429,55.836,26.428L55.836,26.428 M55.845,26.431
		c0.001,0,0.004,0,0.005,0.001c0.004,0.001,0.009,0.002,0.013,0.004l0,0c-0.004-0.002-0.009-0.003-0.013-0.004
		C55.849,26.431,55.846,26.431,55.845,26.431 M55.835,26.428c-0.011-0.005-0.017-0.011-0.005-0.029
		C55.819,26.417,55.825,26.423,55.835,26.428 M58.938,25.756L58.938,25.756c-0.248,0.044-0.183,0.188-0.403,0.339
		c0.019-0.011,0.031-0.014,0.04-0.011c0.052,0.018-0.054,0.235-0.237,0.253c-0.159,0.01-0.253,0.09-0.354,0.183
		c-0.098,0.093-0.207,0.197-0.335,0.221c-0.062,0.01-0.12,0.046-0.192,0.06c-0.19,0.01-0.357,0.021-0.531,0.002
		c-0.073-0.008-0.147-0.023-0.22-0.049c-0.098-0.033-0.191-0.085-0.274-0.16c-0.077-0.064-0.181-0.09-0.263-0.146
		c-0.051-0.049-0.064-0.132-0.092-0.181c-0.044-0.078-0.093-0.14-0.146-0.201c0.041,0.076,0.081,0.126,0.132,0.203
		c0.019,0.028-0.011,0.027-0.046,0.016c-0.029-0.01-0.062-0.027-0.078-0.042c-0.02-0.011,0.029-0.07,0.01-0.08
		c-0.015-0.038-0.055-0.059-0.086-0.095l0.031-0.041c-0.031-0.05-0.12-0.069-0.113-0.114c0.002-0.032,0.005-0.062,0.01-0.09
		l-0.006-0.052l-0.021-0.029l-0.062,0.03l0.012-0.062l-0.012,0.062l0.062-0.03c-0.05-0.073-0.09-0.167-0.118-0.258l-0.006,0.002
		c0.008,0.053,0.005,0.104-0.022,0.163c0.006-0.01,0.013-0.015,0.019-0.012c0.006,0.001,0.01,0.009,0.013,0.021l-0.028,0.026
		c-0.022-0.046-0.044-0.095-0.002-0.146l-0.022-0.03l0.044-0.021l-0.005-0.032c-0.017,0.014-0.036,0.044-0.05,0.068
		c0.015,0.357,0.111,0.692,0.276,0.969c0.004-0.013,0.008-0.025,0.01-0.036l0,0c-0.002,0.011-0.006,0.023-0.01,0.036
		c0.185,0.307,0.454,0.543,0.79,0.659c0.001,0,0.001,0,0.002,0C57.535,27.454,58.551,26.83,58.938,25.756"/>
	<path fill="#652222" d="M55.659,26.101l0.028,0.106c0.021-0.031,0.004-0.057-0.014-0.083L55.659,26.101"/>
	<path fill="#FCD58E" d="M64.888,27.763c-0.378,1.098-1.407,1.739-2.299,1.432c-0.892-0.307-1.308-1.446-0.931-2.544L64.888,27.763"
		/>
	<polyline fill="#652222" points="61.458,27.139 61.448,27.202 61.473,27.171 61.458,27.139 	"/>
	<polyline fill="#652222" points="61.438,27.261 61.437,27.272 61.442,27.283 61.438,27.261 	"/>
	<polyline fill="#652222" points="61.447,27.316 61.447,27.373 61.447,27.316 	"/>
	<polyline fill="#652222" points="61.467,27.285 61.442,27.284 61.442,27.283 61.447,27.316 61.467,27.285 	"/>
	<polyline fill="#652222" points="61.49,27.265 61.467,27.285 61.49,27.265 	"/>
	<path fill="#652222" d="M61.663,27.073c-0.015,0.026-0.028,0.054-0.041,0.085c-0.022,0.041,0.049,0.097,0.06,0.16l-0.043,0.026
		c0.016,0.048,0.042,0.087,0.042,0.13l-0.039,0.074c0.014,0.034,0.064,0.097,0.089,0.104c0.01,0.004,0.015-0.002,0.013-0.021
		c-0.017-0.1-0.033-0.166-0.042-0.259c-0.021-0.076-0.045-0.152-0.054-0.236L61.663,27.073"/>
	<path fill="#652222" d="M61.645,26.683l-0.046,0.004l0.009,0.038c-0.057,0.034-0.055,0.09-0.05,0.144l0.034-0.016
		c0.003-0.015-0.001-0.023-0.008-0.026c-0.004-0.001-0.01,0.001-0.017,0.007C61.615,26.786,61.633,26.737,61.645,26.683"/>
	<polyline fill="#652222" points="61.653,26.649 61.651,26.65 61.645,26.683 61.649,26.683 61.652,26.675 61.653,26.649 	"/>
	<polyline fill="#652222" points="61.652,26.675 61.649,26.683 61.651,26.683 61.652,26.675 	"/>
	<path fill="#652222" d="M61.82,28.674c-0.044-0.015-0.041-0.062-0.03-0.104C61.816,28.588,61.825,28.629,61.82,28.674
		C61.821,28.674,61.821,28.674,61.82,28.674 M61.745,28.558l0.016-0.038l0,0L61.745,28.558 M61.624,28.252l-0.027-0.106l0.013,0.023
		C61.626,28.196,61.644,28.221,61.624,28.252 M61.592,28.141l0.024-0.009l-0.007,0.035L61.592,28.141L61.592,28.141 M65.043,27.815
		c-0.075-0.025-0.157-0.014-0.169-0.014c-0.388,1.074-1.403,1.696-2.283,1.394c-0.001,0-0.001,0-0.002,0
		c-0.337-0.116-0.606-0.353-0.79-0.659c-0.004,0.011-0.008,0.022-0.01,0.034l0,0c0.002-0.012,0.006-0.023,0.01-0.034
		c-0.166-0.276-0.263-0.611-0.277-0.969c-0.011,0.02-0.018,0.034-0.017,0.035l0,0c0.01,0.143,0.027,0.276,0.052,0.405l0.025,0.023
		l-0.014,0.036l0.013,0.057l0.011,0.018l-0.008-0.008c0.011,0.043,0.021,0.085,0.034,0.127l0.015,0.022
		c0.019,0.026,0.038,0.05,0.02,0.083l0.008,0.022l0.003-0.007l-0.001,0.011c0.01,0.031,0.023,0.061,0.035,0.092l0,0
		c0.026,0.061,0.056,0.119,0.088,0.178c0.183,0.332,0.474,0.562,0.834,0.686c0.054,0.019,0.11,0.034,0.168,0.048
		c0.237,0.06,0.481,0.07,0.725,0.04c0.245-0.029,0.463-0.143,0.662-0.275c0.202-0.135,0.385-0.288,0.607-0.448
		c0.174-0.126,0.343-0.485,0.404-0.674C65.186,27.9,65.117,27.84,65.043,27.815"/>
	<path fill="#652222" d="M61.554,27.694c-0.001,0.002-0.002,0.004-0.004,0.008C61.552,27.699,61.553,27.696,61.554,27.694
		 M64.47,28.139c-0.006,0.004-0.013,0.009-0.02,0.014C64.458,28.149,64.464,28.144,64.47,28.139 M61.774,28.474L61.774,28.474
		L61.774,28.474L61.774,28.474 M61.778,28.475C61.779,28.475,61.779,28.475,61.778,28.475
		C61.779,28.475,61.779,28.475,61.778,28.475 M61.782,28.476c0.002,0,0.004,0.001,0.005,0.001c0.005,0.001,0.009,0.003,0.014,0.004
		l0,0c-0.005-0.001-0.009-0.003-0.014-0.004C61.786,28.477,61.784,28.476,61.782,28.476 M61.771,28.473
		c-0.01-0.004-0.016-0.013-0.003-0.031C61.755,28.46,61.761,28.469,61.771,28.473 M64.875,27.801L64.875,27.801
		c-0.248,0.044-0.183,0.188-0.404,0.338c0.019-0.01,0.032-0.013,0.041-0.01c0.052,0.018-0.054,0.236-0.237,0.253
		c-0.16,0.01-0.254,0.09-0.354,0.183c-0.098,0.094-0.207,0.197-0.335,0.221c-0.062,0.01-0.121,0.046-0.192,0.061
		c-0.19,0.01-0.357,0.021-0.531,0.002c-0.073-0.009-0.146-0.024-0.22-0.049c-0.098-0.034-0.192-0.085-0.274-0.161
		c-0.077-0.064-0.181-0.09-0.263-0.146c-0.051-0.049-0.064-0.133-0.092-0.181c-0.043-0.078-0.094-0.14-0.146-0.201
		c0.042,0.077,0.081,0.126,0.132,0.203c0.02,0.028-0.011,0.027-0.047,0.016c-0.029-0.01-0.062-0.027-0.077-0.042
		c-0.021-0.01,0.029-0.07,0.01-0.081c-0.015-0.036-0.056-0.058-0.085-0.094l0.029-0.041c-0.03-0.05-0.119-0.069-0.111-0.114
		c0.001-0.032,0.004-0.062,0.009-0.09l-0.007-0.052l-0.02-0.029l-0.062,0.03l0.012-0.062l-0.012,0.062l0.062-0.03
		c-0.05-0.073-0.09-0.166-0.119-0.257l-0.005,0.001c0.007,0.053,0.005,0.104-0.022,0.163c0.006-0.01,0.013-0.014,0.018-0.012
		c0.006,0.002,0.011,0.009,0.013,0.021l-0.027,0.026c-0.022-0.046-0.044-0.095-0.003-0.146l-0.021-0.029l0.044-0.022l-0.006-0.032
		c-0.017,0.013-0.036,0.044-0.049,0.068c0.015,0.357,0.111,0.692,0.277,0.969c0.004-0.013,0.008-0.025,0.009-0.036l0,0
		c-0.001,0.011-0.005,0.023-0.009,0.036c0.184,0.307,0.453,0.543,0.79,0.659c0.001,0,0.001,0,0.002,0
		C63.471,29.498,64.487,28.875,64.875,27.801"/>
	<path fill="#652222" d="M61.596,28.146l0.027,0.106c0.021-0.031,0.003-0.057-0.015-0.083L61.596,28.146"/>
</g>
<g>
	<path fill="#652222" d="M57.228,39.818c-0.683-0.465-1.191-0.91-1.715-1.367c-0.519-0.461-1.053-0.938-1.699-1.591
		c-0.264-0.271-0.719-0.76-1.202-1.447c-0.633-0.895-1.271-2.098-1.698-3.449c-0.435-1.348-0.655-2.831-0.654-4.182
		c-0.008-1.352,0.193-2.559,0.403-3.407c0.211-0.851,0.404-1.353,0.402-1.353c0.003,0,0.144-0.437,0.453-1.131
		c0.312-0.691,0.812-1.636,1.532-2.603c0.714-0.969,1.651-1.95,2.704-2.756c1.05-0.811,2.207-1.438,3.268-1.844
		c1.167-0.452,2.169-0.618,2.663-0.684c0.911-0.116,1.626-0.163,2.32-0.208c0.692-0.038,1.367-0.074,2.191-0.021
		c-0.686-0.461-1.336-0.762-2.059-0.954c-0.723-0.186-1.526-0.262-2.542-0.143c-0.55,0.066-1.663,0.248-2.952,0.747
		c-1.17,0.447-2.443,1.137-3.597,2.029c-1.156,0.887-2.188,1.966-2.974,3.034c-0.791,1.065-1.341,2.107-1.684,2.871
		c-0.342,0.766-0.495,1.246-0.498,1.245c0.003,0.001-0.211,0.553-0.445,1.49c-0.232,0.935-0.456,2.267-0.449,3.756
		c-0.002,1.486,0.238,3.118,0.717,4.599c0.47,1.486,1.172,2.811,1.873,3.8c0.536,0.762,1.044,1.303,1.34,1.599
		c0.727,0.72,1.406,1.154,2.091,1.452C55.705,39.596,56.404,39.759,57.228,39.818z"/>
</g>
<g>
	<path fill="#652222" d="M55.596,39.257c0.825,0.053,1.5,0.016,2.193-0.023c0.693-0.045,1.408-0.094,2.319-0.21
		c0.373-0.05,1.033-0.156,1.837-0.401c1.05-0.315,2.293-0.872,3.461-1.674c1.172-0.795,2.259-1.829,3.089-2.895
		c0.837-1.062,1.422-2.137,1.777-2.936c0.357-0.8,0.514-1.314,0.516-1.313c-0.003-0.001,0.154-0.432,0.337-1.17
		c0.181-0.736,0.367-1.789,0.395-2.994c0.033-1.203-0.104-2.554-0.438-3.836c-0.328-1.285-0.855-2.491-1.442-3.464
		c-0.642-1.074-1.33-1.821-1.679-2.177c-0.647-0.652-1.182-1.13-1.701-1.591c-0.523-0.456-1.032-0.9-1.716-1.366
		c0.825,0.059,1.523,0.221,2.211,0.515c0.685,0.298,1.365,0.732,2.091,1.45c0.394,0.392,1.159,1.22,1.869,2.405
		c0.648,1.073,1.228,2.4,1.586,3.813c0.368,1.41,0.517,2.896,0.479,4.221c-0.032,1.327-0.239,2.487-0.438,3.299
		c-0.202,0.813-0.377,1.288-0.374,1.288c-0.002-0.001-0.173,0.566-0.564,1.449c-0.393,0.88-1.036,2.067-1.957,3.237
		c-0.913,1.173-2.106,2.312-3.395,3.186c-1.285,0.883-2.652,1.496-3.814,1.844c-0.89,0.27-1.624,0.385-2.039,0.436
		c-1.015,0.121-1.819,0.045-2.542-0.141C56.934,40.019,56.284,39.717,55.596,39.257z"/>
</g>
<g>
	<path fill="#652222" d="M66.419,12.161c-0.007-0.002-0.012-0.001-0.016,0.002c-0.079,0.071-0.104,0.094-0.125,0.087
		c-0.032-0.011-0.054-0.099-0.251-0.192c-0.001-0.001-0.002-0.001-0.004-0.002c-0.021-0.008-0.067-0.002-0.118,0.003
		c-0.05,0.004-0.104,0.007-0.144-0.007c-0.005-0.002-0.009-0.004-0.015-0.007c-0.062-0.037-0.114-0.062-0.165-0.079
		c-0.153-0.053-0.276-0.032-0.522-0.077c-0.493-0.041-0.565-0.212-1.029-0.123c-0.056-0.002-0.747,0.041-0.747,0.046
		c-0.528-0.047-0.863,0.089-1.273-0.051c-0.482,0.188-1.127,0.116-1.64,0.279c-0.508,0.161-0.734,0.111-1.201,0.174
		c-0.131,0.032-0.225,0.078-0.306,0.078c-0.081-0.002-0.24,0.16-0.369,0.201l0.017-0.076l-0.174,0.055
		c-0.014,0.004-0.022,0.005-0.028,0.003c-0.013-0.005-0.009-0.022-0.005-0.04c0.008-0.041,0.016-0.081-0.022-0.094
		c-0.01-0.004-0.022-0.005-0.039-0.004c-0.188,0.046-0.375,0.107-0.566,0.184c-0.172,0.125-0.339,0.254-0.497,0.392
		c0,0.032-0.003,0.066-0.019,0.103l-0.136,0.133c-0.009,0.077,0.025,0.135,0.021,0.186c0.062,0.167-0.08,0.449,0.029,0.569
		c0.001,0.002,0.003,0.002,0.005,0.004c0.054,0.018,0.319-0.125,0.468-0.115c0.001,0.001,0.002,0.001,0.002,0.001
		c0.033,0.013-0.013,0.103-0.02,0.176c0.071-0.04,0.118-0.052,0.143-0.043c0.031,0.011,0.029,0.052,0.003,0.103l0.079-0.032
		l-0.01,0.101c0.429-0.153,0.918-0.222,1.299-0.463c0.083-0.046,0.217-0.151,0.308-0.218c0.045-0.034,0.159-0.038,0.198-0.046
		c0.058-0.081,0.035-0.146,0.054-0.221c0.318-0.052,0.987-0.11,0.947-0.336c0.251-0.047,0.293-0.168,0.557-0.229
		c0.349-0.082,0.794-0.154,1.231-0.183c0.239-0.024,0.47-0.025,0.699-0.015c0.087,0.001,0.17,0.004,0.249,0.01
		c0.69,0.036,1.288,0.177,1.848,0.369c0.139,0.049,0.275,0.099,0.41,0.152c0.68,0.273,1.326,0.601,2.053,1.017
		c0.735,0.421,1.401,1.032,1.933,1.736c0.534,0.703,0.936,1.492,1.215,2.245c0.563,1.515,0.649,2.839,0.705,3.299l0.115,0.246
		c0.046-0.329-0.017-1.014-0.163-1.708c-0.143-0.697-0.374-1.395-0.516-1.82L70.6,17.184c-0.011-0.026-0.014-0.038-0.012-0.038
		c0.006,0.003,0.146,0.318,0.298,0.786c0.09,0.244,0.192,0.535,0.297,0.885c-0.073-0.467-0.17-0.912-0.242-1.233
		c-0.09-0.211-0.187-0.421-0.289-0.631c-0.455-0.923-1.021-1.722-1.668-2.461c-0.229-0.279-0.804-0.786-1.06-1.018
		c1.132,0.858,2.068,2.013,2.761,3.343l-0.047-0.116c-0.355-0.706-0.779-1.368-1.269-1.965l-0.258-0.302
		c0.087,0.1,0.175,0.199,0.258,0.302c0.225,0.258,0.447,0.502,0.671,0.805c0.132,0.192,0.256,0.438,0.375,0.64
		c0.096,0.167,0.155,0.345,0.223,0.521l0.155,0.32c0.019,0.027,0.038,0.06,0.056,0.092v-0.006c0.005-0.18-0.289-0.981-0.732-1.716
		c-0.432-0.742-1.014-1.39-1.203-1.538c-0.299-0.244-0.647-0.346-0.994-0.576c-0.111-0.072-0.188-0.167-0.286-0.201
		c-0.004-0.002-0.01-0.004-0.015-0.005c-0.019,0.014-0.072-0.001-0.125-0.015c-0.21-0.122-0.394-0.303-0.583-0.368
		c-0.025-0.008-0.051-0.014-0.075-0.019c-0.001,0-0.001-0.001-0.002-0.001c-0.063-0.022-0.147-0.142-0.226-0.26
		C66.531,12.291,66.458,12.174,66.419,12.161"/>
</g>
<g>
	<path fill="#652222" d="M66.399,12.542c-0.007-0.002-0.012-0.002-0.016,0.002c-0.078,0.07-0.104,0.094-0.125,0.086
		c-0.032-0.011-0.054-0.098-0.25-0.192c-0.002,0-0.003-0.001-0.005-0.002c-0.021-0.007-0.067-0.001-0.117,0.003
		c-0.051,0.004-0.105,0.008-0.145-0.007c-0.005-0.001-0.009-0.003-0.014-0.006c-0.062-0.037-0.115-0.062-0.166-0.079
		c-0.153-0.053-0.276-0.033-0.521-0.078c-0.494-0.041-0.566-0.212-1.03-0.123c-0.056-0.001-0.747,0.041-0.746,0.047
		c-0.529-0.048-0.863,0.088-1.274-0.052c-0.482,0.188-1.126,0.116-1.639,0.28c-0.509,0.161-0.735,0.111-1.202,0.173
		c-0.131,0.032-0.224,0.078-0.305,0.078c-0.081-0.001-0.241,0.16-0.369,0.201l0.016-0.075l-0.174,0.054
		c-0.014,0.004-0.022,0.005-0.027,0.003c-0.014-0.004-0.01-0.022-0.006-0.04c0.009-0.04,0.016-0.08-0.022-0.094
		c-0.01-0.003-0.022-0.005-0.039-0.004c-0.188,0.046-0.375,0.108-0.566,0.184c-0.172,0.125-0.339,0.255-0.497,0.392
		c0,0.033-0.002,0.066-0.019,0.102l-0.136,0.135c-0.009,0.076,0.025,0.134,0.021,0.186c0.062,0.166-0.081,0.449,0.028,0.569
		c0.001,0.001,0.004,0.002,0.006,0.003c0.053,0.019,0.318-0.125,0.467-0.114c0.001,0,0.002,0,0.002,0.001
		c0.034,0.011-0.013,0.102-0.02,0.176c0.072-0.041,0.118-0.052,0.144-0.043c0.03,0.01,0.028,0.051,0.003,0.103l0.078-0.033
		l-0.01,0.101c0.429-0.152,0.918-0.221,1.299-0.463c0.084-0.046,0.217-0.151,0.308-0.219c0.045-0.034,0.159-0.037,0.199-0.044
		c0.057-0.081,0.035-0.147,0.053-0.222c0.318-0.052,0.987-0.109,0.947-0.336c0.251-0.046,0.293-0.167,0.557-0.229
		c0.349-0.082,0.794-0.154,1.231-0.182c0.24-0.025,0.47-0.025,0.7-0.016c0.086,0.002,0.17,0.004,0.248,0.01
		c0.69,0.036,1.288,0.177,1.848,0.37c0.14,0.048,0.275,0.099,0.411,0.152c0.679,0.272,1.325,0.601,2.052,1.016
		c0.736,0.421,1.401,1.031,1.933,1.736c0.535,0.704,0.936,1.493,1.216,2.245c0.562,1.515,0.648,2.839,0.704,3.299l0.115,0.246
		c0.046-0.329-0.016-1.013-0.163-1.708c-0.143-0.696-0.374-1.395-0.516-1.82l-0.286-0.748c-0.01-0.025-0.014-0.038-0.012-0.037
		c0.006,0.002,0.147,0.318,0.298,0.785c0.09,0.245,0.192,0.536,0.297,0.885c-0.073-0.467-0.17-0.911-0.242-1.232
		c-0.09-0.211-0.187-0.421-0.289-0.632c-0.455-0.922-1.021-1.721-1.668-2.461c-0.229-0.278-0.804-0.786-1.06-1.017
		c1.132,0.858,2.069,2.012,2.761,3.342l-0.046-0.116c-0.356-0.707-0.78-1.367-1.27-1.964l-0.258-0.303
		c0.088,0.1,0.175,0.199,0.258,0.303c0.226,0.256,0.447,0.501,0.671,0.805c0.133,0.192,0.256,0.437,0.375,0.639
		c0.096,0.168,0.155,0.345,0.224,0.521l0.154,0.32c0.019,0.028,0.038,0.059,0.057,0.092v-0.005c0.005-0.182-0.29-0.981-0.733-1.717
		c-0.432-0.742-1.014-1.389-1.203-1.537c-0.299-0.245-0.647-0.347-0.993-0.577c-0.112-0.071-0.188-0.167-0.286-0.201
		c-0.005-0.002-0.01-0.003-0.016-0.005c-0.019,0.014-0.071,0-0.125-0.015c-0.21-0.122-0.394-0.302-0.583-0.367
		c-0.024-0.009-0.05-0.015-0.075-0.02c0,0-0.001,0-0.002,0c-0.063-0.022-0.146-0.143-0.225-0.26
		C66.51,12.671,66.438,12.554,66.399,12.542"/>
</g>
</svg>
