<?xml version="1.0" encoding="utf-8"?>
<!-- Generator: Adobe Illustrator 15.0.0, SVG Export Plug-In . SVG Version: 6.00 Build 0)  -->
<!DOCTYPE svg PUBLIC "-//W3C//DTD SVG 1.1//EN" "http://www.w3.org/Graphics/SVG/1.1/DTD/svg11.dtd">
<svg version="1.1" id="Layer_1" xmlns="http://www.w3.org/2000/svg" xmlns:xlink="http://www.w3.org/1999/xlink" x="0px" y="0px"
	 width="634.043px" height="217.021px" viewBox="0 0 634.043 217.021" enable-background="new 0 0 634.043 217.021"
	 xml:space="preserve">
<rect x="-5.13" y="-5.196" fill="#E3E0B3" width="645.582" height="263.23"/>
<g>
	<path fill="#652121" d="M107.265,149.179c-0.365,1.221-1.221,1.465-2.074,0.488c-2.076-2.316-3.049-7.074-0.611-13.668
		c5.979-16.469,21.963-45.391,31.605-61.619c1.098-1.83,1.953-1.955,3.172-1.102c4.516,3.295,5.49,6.713,4.148,15.131
		c-1.951,11.594-3.172,26.846-4.025,43.932c8.297-18.795,22.33-44.297,31.482-58.451c0.977-1.465,2.072-1.098,2.807,0.244
		c1.828,3.662,1.709,8.543-3.785,17.693c-7.197,11.957-22.695,41.242-29.895,57.473c-0.488,1.223-1.098,1.465-2.439,0.734
		c-3.662-1.953-5.371-4.883-5.98-12.689c-0.609-7.443-0.123-23.918,2.074-41.244C124.591,111.839,112.146,134.535,107.265,149.179z"
		/>
	<path fill="#652121" d="M180.851,78.164c-0.244-1.1,0.123-1.59,1.344-1.465c10.129,0.609,23.549-2.93,30.385-3.055
		c5.127-0.119,7.807,1.955,9.271,5.984c0.367,0.973,0.123,1.828-1.342,1.584c-8.785-0.123-17.326,2.074-24.77,3.293
		c-4.881,7.322-10.861,17.939-16.84,28.799c3.295-0.609,6.469-0.852,8.662-0.977c6.104-0.242,8.789,1.709,10.008,5.492
		c0.367,1.098,0.367,1.83-1.219,1.83c-6.592,0-15.744,1.709-22.576,3.416c-3.539,6.836-6.832,13.543-9.395,19.281
		c5.855-1.832,13.91-3.539,18.914-3.783c5.979-0.246,9.029,1.709,10.371,5.367c0.365,1.1,0.242,1.83-1.219,1.83
		c-6.836-0.121-20.137,3.051-26.969,4.883c-2.32,0.611-3.662,0.611-5.127-1.219c-0.975-1.1-1.707-2.93-2.561-4.516
		c-1.098-2.074-1.098-3.662,0.121-6.955c5.613-15.01,17.814-37.709,28.066-53.568C182.927,83.164,181.585,80.722,180.851,78.164z"/>
	<path fill="#652121" d="M320.335,116.72c0.244,1.1,0.244,1.709-1.342,1.588c-4.391-0.488-8.297-0.123-11.836,0.242
		c-2.439,4.148-4.881,8.422-6.346,12.082c-0.365,1.465-1.098,1.709-2.197,0.854c-1.707-1.342-3.781-4.393-1.465-10.127
		c0.246-0.609,0.49-1.344,0.855-2.074c-0.123,0-0.123,0-0.242,0c-5.613-0.121-8.178-2.809-9.029-6.469
		c-0.246-1.098,0-1.828,1.461-1.709c3.539,0.246,7.934,0,11.959-0.365c2.318-4.148,4.639-8.422,6.59-11.836
		c0.855-1.463,1.83-1.219,2.807-0.125c1.951,2.199,2.686,6.104,0.123,11.352C317.405,110.253,319.726,113.062,320.335,116.72z"/>
	<path fill="#652121" d="M356.827,100.613c4.025,0.613,7.809,6.592,4.758,12.934c-2.562,5.371-8.539,14.4-11.35,20.746
		c-3.172,7.078-2.438,12.812,1.955,12.568c5.004-0.244,10.98-8.297,15.619-16.84c0.609-1.1,1.465-1.1,2.074-0.119
		c0.855,1.34,0.609,4.148-1.102,7.688c-3.293,6.832-10.979,13.055-18.057,13.055c-10.371,0-12.812-7.566-9.275-18.184
		c4.027-11.957,14.766-24.893,12.568-25.867c-1.219-0.488-8.295,2.93-16.105,11.469c-7.201,7.811-12.57,19.527-17.814,30.996
		c-0.49,1.098-1.223,1.586-2.32,0.486c-2.438-2.439-3.174-6.467-1.219-12.568c2.439-7.688,11.836-24.648,19.523-35.996
		c0.855-1.344,1.83-1.219,2.562,0c1.832,3.049,1.709,7.199,0.367,11.592C344.503,106.714,352.8,100.003,356.827,100.613z"/>
	<path fill="#652121" d="M409.669,101.347c1.096-1.586,2.074-1.83,2.93-0.734c1.828,2.197,2.807,7.445-0.123,13.547
		c-2.689,5.49-8.789,14.643-11.713,21.109c-3.053,6.834-3.176,12.082,0.973,11.836c5.004-0.244,11.713-8.541,15.984-16.961
		c0.609-1.098,1.465-1.223,1.957-0.123c0.486,1.1,0.486,4.15-1.102,7.568c-3.17,6.711-10.857,13.42-17.572,13.055
		c-6.586-0.363-10.002-4.27-10.002-10.006c-3.908,5.002-9.398,9.518-15.258,9.518c-11.348,0-13.666-15.496-3.533-30.262
		c9.879-14.4,19.518-19.891,25.623-19.891c5.244,0,7.688,4.025,7.441,8.785C406.862,105.859,408.327,103.3,409.669,101.347z
		 M399.907,106.349c-3.908-0.365-12.814,7.568-19.523,18.428c-6.469,10.492-8.057,21.23-3.299,21.352
		c5.004,0.123,11.35-7.688,17.572-18.426C402.345,114.281,403.446,106.714,399.907,106.349z"/>
	<path fill="#652121" d="M422.735,97.808c-1.225-1.707-0.492-2.562,1.336-2.441c3.422,0.121,6.838-0.121,10.131-0.488
		c3.785-6.711,7.201-12.447,9.275-15.131c1.096-1.584,2.314-1.465,2.924,0c1.348,3.416,1.348,7.443-1.582,13.791
		c4.758-0.125,6.592,2.074,7.564,3.658c0.855,1.465,0.363,2.32-1.465,2.32c-2.684-0.365-6.463,0-9.516,0.486
		c-4.758,8.176-11.713,20.012-16.354,30.264c-4.025,8.906-2.684,16.475,2.443,16.717c5.49,0.242,12.445-8.42,16.963-17.572
		c0.727-1.465,2.068-1.709,2.561,0c0.609,1.951,0,4.148-1.225,6.955c-1.582,3.539-9.639,14.277-19.4,13.914
		c-8.051-0.246-14.52-9.277-8.666-23.309c2.566-6.102,7.688-16.352,12.938-25.992C426.515,100.98,423.708,99.152,422.735,97.808z"/>
	<path fill="#652121" d="M485.454,101.347c1.096-1.586,2.074-1.83,2.93-0.734c1.828,2.197,2.807,7.445-0.123,13.547
		c-2.689,5.49-8.789,14.643-11.713,21.109c-3.053,6.834-3.176,12.082,0.973,11.836c5.004-0.244,11.713-8.541,15.984-16.961
		c0.609-1.098,1.465-1.223,1.957-0.123c0.486,1.1,0.486,4.15-1.102,7.568c-3.17,6.711-10.857,13.42-17.572,13.055
		c-6.586-0.363-10.002-4.27-10.002-10.006c-3.908,5.002-9.398,9.518-15.258,9.518c-11.344,0-13.664-15.496-3.533-30.262
		c9.879-14.4,19.518-19.891,25.623-19.891c5.244,0,7.688,4.025,7.441,8.785C482.647,105.859,484.112,103.3,485.454,101.347z
		 M475.692,106.349c-3.908-0.365-12.814,7.568-19.523,18.428c-6.469,10.492-8.057,21.23-3.299,21.352
		c5.004,0.123,11.35-7.688,17.572-18.426C478.13,114.281,479.231,106.714,475.692,106.349z"/>
	<path fill="#652121" d="M502.423,146.617c5.854,0.488,14.396-8.299,19.154-17.695c0.855-1.584,2.197-1.707,2.689,0
		c0.609,1.955,0.123,4.639-1.225,7.568c-1.705,3.658-10.611,13.791-20.373,13.545c-8.426-0.244-12.938-6.104-10.131-19.281
		c4.512-21.23,18.422-43.318,30.873-56.254c1.828-1.949,3.539-2.193,5.244-0.609c3.539,3.174,4.271,7.688,2.807,13.422
		c-3.779,15.008-17.449,29.654-28.307,36.73C498.274,136,496.927,146.128,502.423,146.617z M527.313,84.751
		c-1.588-0.975-10.611,12.568-19.037,28.186c-1.096,1.953-2.068,3.906-2.924,5.857C522.063,105.25,528.901,85.726,527.313,84.751z"
		/>
</g>
<g>
	<path fill="#FBD48D" d="M277.702,123.611c-7.43,21.572-27.656,34.172-45.176,28.137s-25.699-28.418-18.27-49.992
		c3.543-10.279,9.984-18.518,17.658-23.678c8.432-5.666,18.348-7.613,27.518-4.457c9.668,3.332,16.488,11.635,19.416,22.041
		C281.224,104.111,281.03,113.943,277.702,123.611"/>
	<path fill="#652121" d="M267.454,140.539c-0.535,0.586-1.096,1.154-1.666,1.711l0.893-0.803
		C267.054,141.078,267.218,140.859,267.454,140.539"/>
	<polyline fill="#652121" points="264.171,143.742 263.854,144.019 263.587,144.265 264.171,143.742 	"/>
	<path fill="#652121" d="M262.644,145.08l-1.664,1.275C261.575,145.937,262.126,145.511,262.644,145.08"/>
	<path fill="#652121" d="M263.587,144.265c-0.305,0.275-0.615,0.543-0.943,0.814l0.949-0.715c-0.107,0.072-0.188,0.123-0.201,0.117
		c-0.018-0.002,0.031-0.064,0.188-0.205L263.587,144.265"/>
	<path fill="#652121" d="M264.218,143.914l-0.625,0.451C263.796,144.23,264.106,143.996,264.218,143.914"/>
	<path fill="#8D5B5A" d="M270.147,138.257c-0.732,0.891-1.518,1.773-2.418,2.719c-1.197,1.219-2.504,2.873-4.566,4.598
		c-0.316,0.285-0.344,0.066-0.979,0.613c-1.529,1.225-2.889,2.219-4.471,3.117c-0.707,0.453-1.943,0.855-2.67,1.236
		c-0.857,0.443-2.422,1.158-3.457,1.572c-0.604,0.244-1.014,0.414-0.98,0.426c0.025,0.008,0.277-0.064,0.855-0.252
		c2.068-0.705,3.721-1.482,5.275-2.314c1.553-0.848,3.012-1.762,4.627-2.936c2.59-1.967,4.869-4.158,7.043-6.715
		C269.022,139.613,269.591,138.949,270.147,138.257"/>
	<path fill="#652121" d="M277.231,124.89c-0.098,0.113-0.141,0.066-0.387,0.645l-0.426,1.203c-0.846,1.688-1.664,3.484-2.596,5.238
		l0.508-0.725c0.283-0.553,0.422-0.846,0.398-0.854c-0.012-0.002-0.076,0.09-0.193,0.285
		C275.634,128.8,276.499,126.892,277.231,124.89"/>
	<path fill="#8D5B5A" d="M277.298,124.738c-0.014,0.043-0.029,0.08-0.043,0.121l0.006-0.008L277.298,124.738"/>
	<path fill="#652121" d="M277.683,123.605l-0.021,0.043c-0.146,0.418-0.277,0.84-0.43,1.242l0.023-0.031
		c0.014-0.041,0.029-0.078,0.043-0.121L277.683,123.605"/>
	<path fill="#8D5B5A" d="M244.96,153.421c0.01,0.002,0.021,0.004,0.033,0.012C244.981,153.425,244.97,153.423,244.96,153.421
		L244.96,153.421 M244.958,153.421c-0.029-0.01-0.062-0.023-0.088-0.039C244.896,153.398,244.929,153.412,244.958,153.421
		 M244.823,153.363L244.823,153.363L244.823,153.363L244.823,153.363 M245.321,153.482c0.006,0.002,0.018,0.002,0.025,0.002
		C245.339,153.484,245.327,153.484,245.321,153.482 M245.38,153.492c0.006-0.004,0.012,0,0.018,0
		C245.392,153.492,245.386,153.488,245.38,153.492 M245.421,153.492h0.006H245.421 M245.438,153.492c0.002,0,0.006,0,0.006,0
		S245.44,153.492,245.438,153.492 M259.981,72.64c-0.938-0.322-1.891-0.598-2.852-0.82c-3.148-0.734-6.398-0.934-9.51-0.684
		c-3.113,0.242-6.406,1.062-9.91,2.535c-4.562,1.881-8.699,4.707-12.256,8.139c-3.557,3.434-6.557,7.471-8.906,11.895
		c-2.352,4.43-4.078,9.234-5.092,14.268c-1.016,5.031-1.291,10.301-0.664,15.582c0.691,5.605,2.438,10.262,4.684,14.254
		c1.594,2.957,3.697,5.863,5.605,7.762c2.984,2.992,6.129,4.898,9.295,6.166c-1.764-0.738-3.229-1.529-4.67-2.467
		c-1.438-0.938-2.855-2.031-4.408-3.539c-0.479-0.486-0.645-0.672-0.602-0.656c0.047,0.018,0.363,0.287,0.797,0.672
		c0.826,0.727,2.154,1.76,2.924,2.299c0.662,0.455,1.592,1.357,2.307,1.736c1.502,0.912,2.984,1.557,4.746,2.178
		c0.053,0.014,0.102,0.033,0.146,0.047c0.281,0.096,0.406,0.178,0.498,0.252c0.094,0.07,0.148,0.129,0.293,0.18
		c0.02,0.008,0.041,0.014,0.064,0.02c2.449,0.77,4.447,0.85,6.049,1.082c1.225,0.156,2.342,0.23,3.439,0.246
		c0.691,0.004,1.381-0.023,2.109-0.092c0.455-0.059,0.926-0.119,1.395-0.201c-0.006,0-0.012,0-0.018,0c0.006,0,0.012,0,0.018,0
		c3.361-0.543,7.143-1.812,10.41-3.555l-0.047,0.006c-1.828,0.924-3.689,1.65-5.701,2.135c0.172-0.037,0.27-0.051,0.289-0.047
		c0.041,0.02-0.246,0.125-0.85,0.301c-0.275,0.047-0.551,0.078-0.822,0.113c1.828-0.498,3.598-1.172,5.303-1.754l0,0
		c0.006,0,0.738-0.373,1.092-0.566c0.557-0.24,0.555-0.172,0.689-0.182c0.371-0.197,0.752-0.387,1.125-0.6l-2.021,0.852
		l-0.168,0.064c-7.125,3.275-14.912,4.008-22.227,1.49c-0.004,0-0.006,0-0.01-0.002c-17.52-6.035-25.699-28.418-18.27-49.992
		c3.543-10.279,9.984-18.518,17.658-23.678c6.084-4.086,12.943-6.242,19.736-5.936c0.27-0.084,0.502-0.154,0.713-0.205
		c0.299-0.07,0.564-0.09,0.834,0c0.111,0.041,0.227,0.1,0.344,0.184c0.07-0.012,0.137-0.02,0.205-0.031l0.055,0.23
		c1.891,0.232,3.771,0.664,5.619,1.299c0.006,0,0.01,0,0.012,0.002c9.668,3.332,16.488,11.635,19.416,22.041
		c2.256,8.01,2.197,17.262-0.654,26.443c1.129-2.543,1.781-4.965,2.26-8.125c0.4-2.896,0.732-6.445,0.383-11.344
		c0.039,0.652,0.027,0.938-0.002,0.93c-0.006-0.004-0.012-0.027-0.023-0.064c-0.064-0.279-0.197-1.439-0.455-3.047
		c-0.264-1.604-0.67-3.646-1.248-5.686c-0.564-2.043-1.291-4.074-1.963-5.73c-0.951-2.402-2.35-4.918-4.221-7.262
		c-1.867-2.348-4.207-4.514-6.908-6.23C264.147,74.345,262.108,73.371,259.981,72.64"/>
	<path fill="#652121" d="M251.651,72.142c-6.793-0.307-13.652,1.85-19.736,5.936c-7.674,5.16-14.115,13.398-17.658,23.678
		c-7.43,21.574,0.75,43.957,18.27,49.992c0.004,0.002,0.006,0.002,0.01,0.002c7.314,2.518,15.102,1.785,22.227-1.49l-1.238,0.479
		c-4.98,2.07-10.059,2.805-14.834,2.285c-0.371,0.008-0.639,0.012-1.127-0.078l-1.096-0.254c-0.691-0.133-1.371-0.289-2.039-0.473
		c-0.238-0.055-0.473-0.121-0.713-0.188l-0.023-0.004c-0.381-0.09-0.277-0.027-0.053,0.07l-1.057-0.396
		c-0.117-0.037-0.234-0.08-0.357-0.119c-0.064-0.021-0.129-0.045-0.199-0.068c0-0.002-0.004-0.002-0.004-0.002
		c-0.91-0.314-1.752-0.678-2.258-1.008c0.969,0.465,1.959,0.875,2.971,1.221c0.248,0.088,0.5,0.17,0.752,0.246l-0.949-0.287
		c-0.02-0.012-0.043-0.016-0.066-0.023l0.111,0.041c0.389,0.117,0.752,0.236,1.133,0.33l0.332,0.078
		c-0.449-0.129-0.891-0.268-1.33-0.42c-1.066-0.365-2.104-0.795-3.115-1.291c-0.334-0.15-0.641-0.312-0.902-0.434
		c-1.031-0.508-2.021-1.102-2.561-1.586c-0.234-0.156-0.469-0.322-0.699-0.492l0.125,0.111l-0.252-0.205
		c-0.967-0.715-1.895-1.494-2.777-2.34c-0.592-0.516-1.195-1.062-1.764-1.65l-0.477-0.689c-0.246-0.223-0.584-0.562-0.936-0.996l0,0
		c-0.746-0.891-1.588-2.164-2.141-3.266c0.855,1.248,1.531,2.326,2.141,3.266c0.352,0.434,0.689,0.773,0.936,0.996l0.477,0.689
		c0.568,0.588,1.172,1.135,1.764,1.65c-1.717-1.648-3.264-3.527-4.619-5.623c-4.346-6.771-6.234-14.834-6.062-22.924
		c0.197-8.105,2.449-16.371,6.838-23.891c4.775-8.113,11.734-14.406,19.541-17.627c3.883-1.611,7.904-2.463,11.852-2.482
		c0.088-0.002,0.178,0,0.27-0.002c0.105-0.061,0.205-0.123,0.289-0.178c0.258-0.164,0.408-0.309,0.322-0.34
		c-0.035-0.01-0.102-0.004-0.211,0.023c-0.037,0.008-0.072,0.016-0.111,0.027c0.041-0.012,0.08-0.023,0.111-0.027
		C251.106,72.308,251.397,72.218,251.651,72.142 M259.421,73.619c-1.848-0.635-3.729-1.066-5.619-1.299l0.205,0.842
		c1.738,0.24,3.443,0.65,5.092,1.217c0.785,0.271,1.562,0.578,2.32,0.918c7.09,3.164,12.666,9.621,15.398,17.705
		c1.096,3.076,2.197,7.697,2.396,12.439c0.258,4.74-0.375,9.5-1.113,12.674c-0.418,2.146-0.738,3.475-0.867,4.277
		c-0.131,0.736-0.105,1.029,0,1.064c0.006,0.002,0.018,0.002,0.027,0.002c0.258-0.006,0.852-1.146,0.932-1.346
		c0-0.002,0-0.004,0.002-0.008c2.852-9.182,2.91-18.434,0.654-26.443c-2.928-10.406-9.748-18.709-19.416-22.041
		C259.431,73.619,259.427,73.619,259.421,73.619"/>
	<path fill="#8D5B5A" d="M250.126,152.078c-0.092,0.021-0.205,0.045-0.34,0.08C249.899,152.132,250.011,152.105,250.126,152.078
		 M280.724,101.251c0.041,0.471,0.082,0.936,0.113,1.385C280.813,102.285,280.778,101.828,280.724,101.251"/>
	<path fill="#652121" d="M229.765,150.503c0.506,0.33,1.348,0.693,2.258,1.008c0,0,0.004,0,0.004,0.002
		c0.146,0.049,0.295,0.1,0.445,0.146c0.023,0.008,0.047,0.012,0.066,0.023l0.949,0.287c-0.252-0.076-0.504-0.158-0.752-0.246
		C231.724,151.378,230.733,150.968,229.765,150.503"/>
	<path fill="#FBD48D" d="M257.915,89.156c-2.158,1.828-4.875,2.557-7.365,1.699c-4.145-1.428-6.084-6.723-4.324-11.828
		c1.318-3.832,4.342-6.463,7.521-6.938L257.915,89.156"/>
	<polyline fill="#652121" points="255.558,90.33 255.267,90.437 255.435,90.447 255.558,90.33 	"/>
	<polyline fill="#652121" points="254.991,90.529 254.938,90.542 254.901,90.576 254.991,90.529 	"/>
	<path fill="#652121" d="M254.751,90.652c-0.078,0.006-0.164,0.031-0.264,0.082C254.581,90.722,254.669,90.683,254.751,90.652"/>
	<polyline fill="#652121" points="254.901,90.576 254.751,90.652 254.913,90.656 254.897,90.576 254.901,90.576 	"/>
	<polyline fill="#652121" points="255.026,90.693 254.913,90.656 255.026,90.693 	"/>
	<path fill="#652121" d="M256.196,90.693l-0.484,0.129c-0.23,0.041-0.424,0.385-0.779,0.539c-0.006,0.006-0.014,0.006-0.02,0.002
		c-0.016-0.004-0.027-0.023-0.041-0.047c-0.018-0.02-0.035-0.039-0.059-0.049c-0.018-0.006-0.039-0.002-0.064,0.014
		c-0.246,0.129-0.463,0.27-0.719,0.314c-0.043,0.025-0.094,0.018-0.148-0.002c-0.023-0.01-0.047-0.02-0.07-0.023
		c-0.021-0.01-0.045-0.021-0.068-0.031c-0.049-0.016-0.1-0.025-0.135-0.004c-0.223,0.084-0.785,0.309-0.664,0.354
		c0.018,0.006,0.055,0.006,0.113,0.002c0.631-0.07,1.037-0.195,1.576-0.367c0.432-0.195,0.818-0.438,1.219-0.688
		C255.968,90.773,256.085,90.734,256.196,90.693"/>
	<path fill="#652121" d="M257.767,89.265l-0.156-0.049l-0.1,0.158c-0.27,0.039-0.453,0.238-0.652,0.426l0.143,0.016
		c0.082-0.061,0.105-0.107,0.07-0.119c-0.008-0.002-0.029-0.002-0.053,0.002C257.312,89.621,257.552,89.462,257.767,89.265"/>
	<path fill="#652121" d="M257.802,89.251c-0.01,0.006-0.021,0.014-0.027,0.021l0.006,0.002L257.802,89.251"/>
	<path fill="#652121" d="M257.901,89.14h-0.01l-0.125,0.125l0.008,0.008c0.006-0.008,0.018-0.016,0.027-0.021L257.901,89.14"/>
	<path fill="#652121" d="M248.978,90.142c-0.004,0-0.004-0.002-0.004-0.006C248.974,90.14,248.974,90.142,248.978,90.142
		 M248.802,90.003c0.002,0,0.006,0,0.008,0C248.808,90.003,248.804,90.003,248.802,90.003 M248.974,90.136
		c-0.006-0.066-0.031-0.1-0.072-0.117C248.942,90.037,248.968,90.07,248.974,90.136 M248.892,90.015c0,0,0,0.004,0.004,0.004l0,0
		C248.892,90.019,248.892,90.015,248.892,90.015 M248.71,89.99c-0.025-0.01-0.047-0.025-0.059-0.059
		C248.663,89.964,248.685,89.98,248.71,89.99c0.027,0.01,0.059,0.014,0.092,0.014C248.769,90.003,248.737,90,248.71,89.99
		 M251.245,72.921c-0.299-0.008-0.596-0.016-0.891-0.018c-0.369,0.223-0.836,0.467-1.254,0.588
		c-0.797,0.209-1.518,0.902-2.092,1.742c-0.58,0.84-1.008,1.809-1.465,2.676c-0.229,0.438-0.373,0.945-0.549,1.508
		c-0.529,1.438-0.674,2.967-0.516,4.449c0.162,1.484,0.609,2.936,1.348,4.324c0.414,0.73,0.994,1.201,1.529,1.609
		c0.357,0.33,0.709,0.738,1.041,0.969c0.342,0.242,0.688,0.406,1.027,0.523c0.17,0.059,0.344,0.105,0.51,0.145
		c-0.539-0.188-0.938-0.334-1.484-0.676c-0.355-0.234,0.377-0.031,0.639,0.047c0.002,0.002,0.008,0.002,0.012,0.002
		c0.053,0.021,0.096,0.088,0.137,0.154c0.045,0.07,0.088,0.139,0.146,0.16c0.006,0.002,0.01,0.002,0.016,0.002
		c0.047,0.023,0.094,0.041,0.143,0.059c0.191,0.068,0.396,0.088,0.615,0.119c0.012,0,0.021,0.004,0.029,0.004
		c0.039,0.016,0.045,0.053,0.047,0.09c0.004,0.043,0.004,0.078,0.023,0.09c0,0,0.006,0,0.01,0c0.354,0.082,0.682-0.078,0.896,0
		c0.012,0.002,0.023,0.008,0.035,0.012l0.471,0.176c0.098,0.023,0.197,0.047,0.303,0.049l0.207-0.033l-0.066-0.213l0,0l0.066,0.213
		c0.498-0.078,1.055-0.201,1.553-0.363l-0.012-0.014c-0.277,0.059-0.559,0.068-0.846-0.033h-0.006
		c0.094,0.039,0.07,0.086-0.068,0.102l-0.113-0.098c0.246-0.053,0.475-0.117,0.709-0.039c0.018,0.01,0.037,0.02,0.059,0.023
		l0.16-0.082c0.01,0,0.016,0.004,0.021,0.004c0.064,0.023,0.066,0.076,0.084,0.123l0.174-0.045
		c-0.027-0.014-0.062-0.027-0.104-0.043c-0.072-0.023-0.16-0.047-0.236-0.066c-1.002,0.125-2.02,0.035-2.998-0.303
		c-0.002,0-0.006,0-0.006-0.002c-4.145-1.428-6.084-6.723-4.324-11.828C247.19,76.23,249.062,74.07,251.245,72.921"/>
	<path fill="#7C4243" d="M253.198,71.937c-0.27-0.09-0.535-0.07-0.834,0c-0.211,0.051-0.443,0.121-0.713,0.205
		c0.455,0.021,0.912,0.049,1.365,0.094c0.174-0.045,0.35-0.082,0.525-0.115C253.425,72.037,253.31,71.978,253.198,71.937"/>
	<path fill="#7C4040" d="M253.017,72.236c-0.453-0.045-0.91-0.072-1.365-0.094c-0.254,0.076-0.545,0.166-0.896,0.268
		c0.109-0.027,0.176-0.033,0.211-0.023c0.086,0.031-0.064,0.176-0.322,0.34c-0.084,0.055-0.184,0.117-0.289,0.178
		c0.295,0.002,0.592,0.01,0.891,0.018C251.815,72.623,252.411,72.39,253.017,72.236"/>
	<path fill="#652121" d="M248.843,89.849c0.002,0,0.008,0,0.008,0S248.845,89.849,248.843,89.849L248.843,89.849 M248.843,89.847
		c-0.016-0.008-0.027-0.012-0.041-0.02C248.815,89.835,248.827,89.839,248.843,89.847 M248.599,89.66l0.004,0.002L248.599,89.66
		L248.599,89.66 M248.599,89.66c-0.014-0.008-0.025-0.012-0.041-0.02C248.573,89.648,248.585,89.652,248.599,89.66 M248.749,89.675
		c0.002-0.002,0.002-0.002,0.002-0.002l0.033,0.146l0,0l0,0l-0.033-0.146C248.751,89.673,248.751,89.673,248.749,89.675
		 M248.55,89.638L248.55,89.638c-0.141-0.072-0.275-0.236-0.332-0.424C248.417,89.292,248.493,89.462,248.55,89.638L248.55,89.638
		L248.55,89.638 M253.542,72.121c-0.176,0.033-0.352,0.07-0.525,0.115c-0.605,0.154-1.201,0.387-1.771,0.686
		c-2.184,1.148-4.055,3.309-5.02,6.105c-1.76,5.105,0.18,10.4,4.324,11.828c0,0.002,0.004,0.002,0.006,0.002
		c0.979,0.338,1.996,0.428,2.998,0.303c-0.01-0.004-0.018-0.004-0.023-0.008c-0.082-0.016-0.145-0.031-0.152-0.035l0,0
		c-0.721,0.078-1.406,0.023-2.049-0.131c-0.049,0.023-0.09,0.053-0.137,0.037c-0.01-0.002-0.018-0.008-0.027-0.014l-0.131-0.105
		l-0.273-0.092l-0.102-0.014h-0.004l-0.029,0.076l-0.125-0.102c-0.045-0.012-0.086-0.023-0.129-0.035
		c-0.023-0.01-0.051-0.016-0.07-0.023c-0.082-0.031-0.146-0.068-0.176-0.145c0.164,0.082,0.33,0.152,0.5,0.223l0.033,0.006
		l0.049-0.002c-0.201-0.078-0.404-0.162-0.598-0.258l-0.131-0.043c-0.035-0.008-0.076-0.02-0.111-0.031
		c-0.111-0.039-0.203-0.094-0.234-0.191l-0.1-0.059l0.008,0.023l-0.029-0.037c-0.131-0.094-0.271-0.178-0.4-0.281
		c-0.041-0.012-0.082-0.023-0.123-0.033c0.041,0.01,0.082,0.021,0.123,0.033c-0.256-0.193-0.502-0.41-0.732-0.645
		c-1.471-1.545-2.303-3.533-2.371-5.848c-0.02-1.254,0.215-2.463,0.631-3.557c0.416-1.09,0.869-2.102,1.484-3.004
		c0.609-0.902,1.398-1.699,2.385-2.16l1.363-0.742c0.504-0.254,1.021-0.461,1.383-0.557
		C254.192,72.882,253.632,72.164,253.542,72.121L253.542,72.121"/>
	<path fill="#7C4040" d="M250.755,72.41c-0.031,0.004-0.07,0.016-0.111,0.027C250.683,72.425,250.718,72.417,250.755,72.41"/>
	<path fill="#652121" d="M252.847,91.277c-0.002-0.004-0.006-0.008-0.008-0.008c0.012,0.008,0.018,0.01,0.029,0.012
		C252.862,91.279,252.853,91.277,252.847,91.277"/>
	<path fill="#652121" d="M250.614,90.792l-0.119-0.029c-0.004-0.002-0.01-0.002-0.016-0.006c0.006,0.006,0.016,0.012,0.021,0.016
		L250.614,90.792"/>
	<path fill="#652121" d="M250.126,90.57c0.029,0.076,0.094,0.113,0.176,0.145c0.02,0.008,0.047,0.014,0.07,0.023
		c0.035,0.008,0.072,0.014,0.107,0.02c0.006,0.004,0.012,0.004,0.016,0.006l0.119,0.029l0.016,0.004
		c-0.004,0-0.004-0.004-0.004-0.004C250.456,90.722,250.29,90.652,250.126,90.57"/>
	<path fill="#FBD48D" d="M240.208,110.697c-1.133,3.293-4.219,5.217-6.898,4.295c-2.672-0.92-3.92-4.336-2.787-7.633
		L240.208,110.697"/>
	<polyline fill="#652121" points="229.919,108.822 229.888,109.015 229.964,108.925 229.919,108.822 	"/>
	<polyline fill="#652121" points="229.858,109.191 229.854,109.222 229.87,109.255 229.858,109.191 	"/>
	<polyline fill="#652121" points="229.888,109.359 229.884,109.525 229.888,109.359 	"/>
	<polyline fill="#652121" points="229.946,109.261 229.87,109.257 229.87,109.255 229.888,109.359 229.946,109.261 	"/>
	<polyline fill="#652121" points="230.017,109.207 229.946,109.261 230.017,109.207 	"/>
	<path fill="#652121" d="M230.532,108.625c-0.041,0.08-0.082,0.162-0.123,0.256c-0.068,0.123,0.146,0.291,0.182,0.479l-0.133,0.082
		c0.045,0.145,0.127,0.26,0.127,0.389l-0.115,0.223c0.039,0.104,0.191,0.287,0.264,0.314c0.029,0.012,0.047-0.008,0.039-0.066
		c-0.051-0.301-0.1-0.496-0.127-0.777c-0.061-0.227-0.131-0.457-0.164-0.707L230.532,108.625"/>
	<path fill="#652121" d="M230.481,107.457l-0.143,0.012l0.029,0.113c-0.17,0.104-0.164,0.27-0.15,0.432l0.105-0.047
		c0.006-0.045-0.006-0.07-0.023-0.08c-0.012-0.002-0.031,0.004-0.053,0.021C230.388,107.765,230.446,107.617,230.481,107.457"/>
	<path fill="#652121" d="M230.505,107.355l-0.008,0.002l-0.016,0.1h0.01c0.002-0.008,0.006-0.018,0.008-0.023L230.505,107.355"/>
	<path fill="#652121" d="M230.499,107.433c-0.002,0.006-0.006,0.016-0.008,0.023l0.006,0.004L230.499,107.433"/>
	<path fill="#652121" d="M231.003,113.429c-0.131-0.043-0.119-0.188-0.09-0.312c0.076,0.055,0.107,0.18,0.094,0.312
		C231.003,113.429,231.003,113.429,231.003,113.429 M230.78,113.082l0.045-0.113l0,0L230.78,113.082 M230.415,112.164l-0.086-0.318
		l0.045,0.07C230.427,111.996,230.476,112.07,230.415,112.164 M230.323,111.832l0.07-0.027l-0.018,0.105l-0.055-0.078H230.323
		 M240.675,110.855c-0.229-0.078-0.469-0.043-0.508-0.043c-1.16,3.219-4.209,5.09-6.852,4.18c-0.004,0-0.004,0-0.006,0
		c-1.008-0.348-1.816-1.059-2.371-1.977c-0.008,0.035-0.018,0.07-0.025,0.102l0,0c0.008-0.031,0.018-0.066,0.025-0.102
		c-0.494-0.83-0.785-1.836-0.828-2.906c-0.029,0.055-0.053,0.105-0.051,0.105c0.029,0.424,0.082,0.828,0.156,1.211l0.076,0.074
		l-0.041,0.109l0.037,0.168l0.033,0.055l-0.023-0.021c0.031,0.127,0.064,0.252,0.102,0.377l0.045,0.068
		c0.055,0.076,0.113,0.15,0.059,0.246l0.023,0.068l0.008-0.021l-0.006,0.033c0.033,0.096,0.074,0.184,0.111,0.277l0,0
		c0.074,0.18,0.162,0.357,0.262,0.535c0.547,0.994,1.42,1.684,2.498,2.051c0.164,0.057,0.332,0.105,0.504,0.15
		c0.715,0.174,1.451,0.205,2.178,0.117c0.732-0.088,1.389-0.432,1.986-0.826c0.604-0.402,1.156-0.863,1.822-1.344
		c0.521-0.379,1.027-1.457,1.213-2.02C241.103,111.109,240.894,110.931,240.675,110.855"/>
	<path fill="#652121" d="M230.206,110.488c-0.002,0.008-0.006,0.016-0.008,0.021C230.2,110.503,230.204,110.496,230.206,110.488
		 M238.958,111.828c-0.021,0.008-0.045,0.023-0.064,0.041C238.913,111.855,238.937,111.839,238.958,111.828 M230.862,112.828
		c0.004,0.002,0.004,0.002,0.004,0.002S230.866,112.83,230.862,112.828L230.862,112.828 M230.89,112.835
		c0.002,0,0.012,0,0.014,0.004c0.012,0.002,0.027,0.004,0.039,0.012l0,0c-0.012-0.008-0.027-0.01-0.039-0.012
		C230.901,112.835,230.892,112.835,230.89,112.835 M230.86,112.828c-0.033-0.016-0.051-0.033-0.016-0.09
		C230.81,112.794,230.827,112.812,230.86,112.828 M240.167,110.812L240.167,110.812c-0.744,0.131-0.547,0.562-1.209,1.016
		c0.055-0.031,0.094-0.041,0.119-0.031c0.156,0.051-0.16,0.705-0.711,0.758c-0.479,0.029-0.76,0.27-1.061,0.547
		c-0.293,0.279-0.621,0.594-1.006,0.664c-0.188,0.027-0.359,0.137-0.576,0.178c-0.572,0.029-1.072,0.064-1.594,0.006
		c-0.221-0.023-0.443-0.07-0.66-0.146c-0.293-0.1-0.574-0.256-0.822-0.48c-0.232-0.193-0.543-0.27-0.789-0.436
		c-0.152-0.148-0.193-0.396-0.275-0.543c-0.131-0.234-0.277-0.418-0.436-0.604c0.123,0.229,0.242,0.377,0.395,0.609
		c0.057,0.084-0.031,0.082-0.137,0.047c-0.088-0.029-0.188-0.082-0.234-0.127c-0.059-0.031,0.088-0.211,0.029-0.238
		c-0.045-0.115-0.164-0.176-0.258-0.285l0.094-0.123c-0.094-0.15-0.361-0.209-0.34-0.342c0.006-0.098,0.014-0.186,0.029-0.27
		l-0.018-0.156l-0.062-0.088l-0.184,0.092l0.035-0.186l-0.035,0.186l0.184-0.092c-0.148-0.221-0.27-0.502-0.354-0.773L230.274,110
		c0.023,0.158,0.014,0.311-0.068,0.488c0.018-0.027,0.039-0.043,0.057-0.035c0.018,0.004,0.029,0.027,0.037,0.062l-0.084,0.078
		c-0.068-0.137-0.133-0.283-0.006-0.438l-0.068-0.092l0.133-0.064l-0.016-0.098c-0.049,0.043-0.107,0.133-0.148,0.207
		c0.043,1.07,0.334,2.076,0.828,2.906c0.012-0.039,0.023-0.078,0.029-0.109l0,0c-0.006,0.031-0.018,0.07-0.029,0.109
		c0.555,0.918,1.363,1.629,2.371,1.977c0.002,0,0.002,0,0.006,0C235.958,115.902,239.007,114.031,240.167,110.812"/>
	<path fill="#652121" d="M230.329,111.845l0.086,0.318c0.061-0.094,0.012-0.168-0.041-0.248L230.329,111.845"/>
	<path fill="#FBD48D" d="M258.019,116.832c-1.135,3.293-4.223,5.219-6.896,4.295c-2.676-0.92-3.924-4.338-2.793-7.631
		L258.019,116.832"/>
	<polyline fill="#652121" points="247.729,114.96 247.696,115.148 247.772,115.056 247.729,114.96 	"/>
	<polyline fill="#652121" points="247.667,115.326 247.665,115.359 247.679,115.39 247.667,115.326 	"/>
	<polyline fill="#652121" points="247.694,115.49 247.694,115.66 247.694,115.49 	"/>
	<polyline fill="#652121" points="247.755,115.396 247.679,115.394 247.679,115.39 247.694,115.49 247.755,115.396 	"/>
	<polyline fill="#652121" points="247.823,115.337 247.755,115.396 247.823,115.337 	"/>
	<path fill="#652121" d="M248.341,114.761c-0.043,0.078-0.084,0.16-0.123,0.254c-0.066,0.123,0.146,0.289,0.18,0.48l-0.129,0.078
		c0.047,0.145,0.125,0.262,0.125,0.391l-0.117,0.223c0.041,0.102,0.193,0.289,0.268,0.312c0.029,0.012,0.043-0.004,0.037-0.062
		c-0.049-0.301-0.1-0.5-0.125-0.777c-0.064-0.229-0.135-0.457-0.162-0.709L248.341,114.761"/>
	<path fill="#652121" d="M248.288,113.591l-0.137,0.012l0.025,0.115c-0.17,0.102-0.164,0.27-0.148,0.43l0.102-0.047
		c0.01-0.043-0.002-0.07-0.023-0.078c-0.012-0.004-0.029,0.002-0.049,0.02C248.198,113.898,248.253,113.753,248.288,113.591"/>
	<path fill="#652121" d="M248.312,113.488l-0.006,0.004l-0.018,0.1h0.012c0.004-0.01,0.006-0.018,0.01-0.023L248.312,113.488"/>
	<path fill="#652121" d="M248.31,113.568c-0.004,0.006-0.006,0.014-0.01,0.023h0.006L248.31,113.568"/>
	<path fill="#652121" d="M248.813,119.566c-0.133-0.045-0.123-0.186-0.092-0.314c0.08,0.057,0.105,0.178,0.094,0.316
		C248.815,119.566,248.815,119.566,248.813,119.566 M248.587,119.216l0.047-0.115l0,0L248.587,119.216 M248.224,118.3l-0.082-0.32
		l0.039,0.07C248.233,118.128,248.286,118.207,248.224,118.3 M248.13,117.964l0.074-0.025l-0.021,0.105L248.13,117.964
		L248.13,117.964 M258.483,116.988c-0.225-0.078-0.471-0.043-0.506-0.043c-1.164,3.223-4.211,5.09-6.85,4.182
		c-0.004,0-0.004,0-0.006,0c-1.012-0.35-1.82-1.057-2.371-1.979c-0.012,0.033-0.023,0.068-0.029,0.104l0,0
		c0.006-0.035,0.018-0.07,0.029-0.104c-0.498-0.828-0.787-1.832-0.832-2.906c-0.031,0.059-0.053,0.104-0.049,0.105l0,0
		c0.029,0.43,0.082,0.83,0.154,1.217l0.076,0.07l-0.041,0.107l0.039,0.172l0.031,0.051l-0.023-0.023
		c0.033,0.129,0.062,0.256,0.104,0.383l0.043,0.066c0.057,0.078,0.115,0.148,0.059,0.25l0.023,0.066l0.01-0.02l-0.004,0.031
		c0.029,0.094,0.07,0.182,0.105,0.275l0,0c0.08,0.182,0.168,0.357,0.264,0.533c0.549,0.996,1.422,1.684,2.502,2.057
		c0.162,0.057,0.332,0.104,0.504,0.143c0.713,0.18,1.445,0.211,2.174,0.121c0.736-0.088,1.389-0.428,1.986-0.826
		c0.607-0.404,1.154-0.865,1.822-1.346c0.521-0.377,1.029-1.455,1.213-2.02C258.911,117.242,258.704,117.062,258.483,116.988"/>
	<path fill="#652121" d="M248.017,116.625c-0.004,0.004-0.006,0.012-0.012,0.023C248.011,116.638,248.013,116.628,248.017,116.625
		 M256.765,117.96c-0.018,0.012-0.039,0.025-0.059,0.039C256.726,117.988,256.747,117.974,256.765,117.96 M248.675,118.964
		L248.675,118.964L248.675,118.964L248.675,118.964 M248.687,118.968c0.004,0,0.004,0,0.004,0S248.69,118.968,248.687,118.968
		 M248.698,118.97c0.006,0,0.012,0.002,0.016,0.002c0.014,0.004,0.025,0.01,0.041,0.012l0,0c-0.016-0.002-0.027-0.008-0.041-0.012
		C248.71,118.972,248.704,118.97,248.698,118.97 M248.667,118.96c-0.029-0.012-0.047-0.037-0.01-0.094
		C248.62,118.923,248.638,118.949,248.667,118.96 M257.978,116.945h-0.004c-0.74,0.133-0.545,0.562-1.209,1.016
		c0.055-0.031,0.096-0.039,0.123-0.031c0.154,0.055-0.162,0.711-0.713,0.76c-0.48,0.029-0.762,0.27-1.061,0.549
		c-0.293,0.281-0.621,0.59-1.004,0.66c-0.188,0.031-0.363,0.139-0.578,0.184c-0.57,0.027-1.072,0.062-1.594,0.004
		c-0.219-0.025-0.439-0.072-0.658-0.145c-0.293-0.104-0.578-0.256-0.824-0.484c-0.23-0.193-0.541-0.27-0.787-0.438
		c-0.152-0.145-0.193-0.398-0.275-0.541c-0.129-0.234-0.281-0.42-0.438-0.604c0.127,0.23,0.244,0.379,0.396,0.609
		c0.059,0.086-0.033,0.082-0.141,0.047c-0.088-0.029-0.186-0.082-0.232-0.125c-0.061-0.031,0.088-0.211,0.029-0.244
		c-0.043-0.107-0.166-0.174-0.254-0.281l0.088-0.123c-0.092-0.148-0.357-0.207-0.334-0.344c0.002-0.096,0.012-0.184,0.025-0.27
		l-0.02-0.154l-0.059-0.088l-0.186,0.09l0.035-0.184l-0.035,0.184l0.186-0.09c-0.15-0.219-0.27-0.498-0.357-0.77l-0.016,0.002
		c0.021,0.158,0.016,0.311-0.066,0.49c0.018-0.031,0.037-0.043,0.053-0.035c0.018,0.004,0.031,0.025,0.037,0.061l-0.082,0.08
		c-0.066-0.139-0.131-0.285-0.008-0.441l-0.064-0.086l0.131-0.068l-0.018-0.096c-0.049,0.037-0.107,0.131-0.146,0.203
		c0.045,1.074,0.334,2.078,0.832,2.906c0.012-0.037,0.023-0.074,0.027-0.107l0,0c-0.004,0.033-0.016,0.07-0.027,0.107
		c0.551,0.922,1.359,1.629,2.371,1.979c0.002,0,0.002,0,0.006,0C253.767,122.035,256.813,120.167,257.978,116.945"/>
	<path fill="#652121" d="M248.142,117.98l0.082,0.32c0.062-0.094,0.01-0.172-0.043-0.25L248.142,117.98"/>
</g>
<g>
	<path fill="#652121" d="M235.038,152.996c-2.049-1.395-3.574-2.73-5.145-4.102c-1.557-1.383-3.158-2.816-5.098-4.773
		c-0.791-0.811-2.156-2.277-3.607-4.34c-1.898-2.684-3.811-6.293-5.094-10.348c-1.305-4.043-1.967-8.494-1.963-12.547
		c-0.023-4.055,0.58-7.676,1.209-10.221c0.633-2.553,1.213-4.057,1.207-4.057c0.01,0,0.432-1.311,1.359-3.395
		c0.938-2.074,2.436-4.906,4.598-7.807c2.141-2.906,4.953-5.85,8.111-8.268c3.15-2.432,6.621-4.312,9.803-5.531
		c3.502-1.355,6.508-1.855,7.99-2.051c2.732-0.348,4.877-0.488,6.961-0.625c2.076-0.113,4.102-0.223,6.574-0.062
		c-2.057-1.383-4.008-2.285-6.176-2.863c-2.168-0.557-4.58-0.785-7.627-0.428c-1.648,0.199-4.988,0.744-8.855,2.24
		c-3.51,1.344-7.33,3.41-10.791,6.09c-3.469,2.66-6.562,5.896-8.92,9.102c-2.373,3.195-4.023,6.322-5.051,8.613
		c-1.025,2.297-1.486,3.738-1.494,3.734c0.008,0.004-0.633,1.66-1.336,4.473c-0.697,2.803-1.369,6.799-1.348,11.266
		c-0.006,4.461,0.715,9.355,2.15,13.797c1.408,4.459,3.516,8.432,5.619,11.398c1.607,2.285,3.131,3.91,4.02,4.797
		c2.18,2.16,4.219,3.463,6.271,4.355C230.468,152.332,232.565,152.82,235.038,152.996z"/>
</g>
<g>
	<path fill="#652121" d="M230.142,151.314c2.477,0.158,4.5,0.047,6.58-0.07c2.08-0.135,4.225-0.281,6.959-0.631
		c1.119-0.148,3.1-0.469,5.51-1.203c3.15-0.945,6.879-2.617,10.383-5.021c3.516-2.385,6.777-5.486,9.268-8.684
		c2.51-3.186,4.266-6.41,5.332-8.807c1.072-2.398,1.541-3.943,1.547-3.941c-0.01-0.002,0.463-1.293,1.01-3.508
		c0.543-2.211,1.102-5.367,1.184-8.984c0.1-3.609-0.311-7.66-1.312-11.508c-0.984-3.855-2.566-7.473-4.326-10.391
		c-1.926-3.223-3.99-5.465-5.037-6.531c-1.941-1.957-3.545-3.389-5.104-4.771c-1.57-1.369-3.096-2.701-5.146-4.1
		c2.475,0.176,4.57,0.664,6.633,1.545c2.053,0.893,4.096,2.197,6.271,4.35c1.182,1.176,3.479,3.66,5.607,7.217
		c1.945,3.221,3.684,7.201,4.758,11.439c1.105,4.23,1.551,8.688,1.439,12.664c-0.098,3.98-0.719,7.461-1.316,9.895
		c-0.605,2.441-1.131,3.865-1.121,3.865c-0.006-0.002-0.52,1.699-1.693,4.348c-1.178,2.639-3.109,6.201-5.871,9.713
		c-2.74,3.518-6.32,6.934-10.184,9.555c-3.855,2.648-7.957,4.488-11.443,5.531c-2.67,0.809-4.873,1.156-6.117,1.309
		c-3.045,0.363-5.459,0.133-7.627-0.422C234.155,153.599,232.204,152.695,230.142,151.314z"/>
</g>
<g>
	<path fill="#652121" d="M262.612,70.023c-0.021-0.004-0.035-0.002-0.047,0.008c-0.238,0.213-0.314,0.281-0.375,0.26
		c-0.098-0.033-0.162-0.295-0.754-0.576c-0.002-0.004-0.006-0.004-0.012-0.008c-0.064-0.023-0.201-0.004-0.354,0.01
		c-0.15,0.012-0.314,0.021-0.432-0.021c-0.014-0.004-0.025-0.012-0.043-0.02c-0.186-0.111-0.344-0.184-0.496-0.238
		c-0.459-0.156-0.828-0.096-1.566-0.23c-1.48-0.123-1.697-0.637-3.088-0.369c-0.168-0.006-2.242,0.123-2.242,0.139
		c-1.584-0.141-2.59,0.266-3.82-0.152c-1.447,0.564-3.381,0.348-4.918,0.836c-1.523,0.484-2.203,0.336-3.604,0.523
		c-0.393,0.096-0.674,0.234-0.918,0.234c-0.242-0.008-0.721,0.48-1.107,0.602l0.051-0.227l-0.521,0.164
		c-0.041,0.012-0.068,0.014-0.086,0.008c-0.037-0.016-0.025-0.066-0.014-0.121c0.023-0.121,0.047-0.242-0.068-0.281
		c-0.029-0.012-0.066-0.014-0.117-0.012c-0.562,0.139-1.125,0.324-1.699,0.551c-0.516,0.375-1.016,0.762-1.49,1.176
		c0,0.098-0.01,0.199-0.057,0.309l-0.406,0.398c-0.027,0.23,0.076,0.402,0.061,0.555c0.188,0.502-0.24,1.348,0.088,1.709
		c0.004,0.006,0.01,0.006,0.016,0.012c0.16,0.053,0.957-0.375,1.402-0.346c0.004,0.004,0.006,0.004,0.006,0.004
		c0.1,0.037-0.037,0.307-0.059,0.527c0.215-0.121,0.355-0.156,0.428-0.129c0.094,0.031,0.088,0.154,0.01,0.307l0.236-0.096
		l-0.029,0.301c1.287-0.461,2.754-0.664,3.896-1.389c0.25-0.139,0.65-0.455,0.924-0.654c0.135-0.102,0.477-0.113,0.594-0.137
		c0.174-0.242,0.105-0.439,0.162-0.662c0.955-0.154,2.961-0.33,2.842-1.008c0.752-0.141,0.879-0.504,1.67-0.686
		c1.045-0.246,2.381-0.463,3.693-0.547c0.719-0.074,1.41-0.078,2.098-0.045c0.262,0.002,0.51,0.012,0.748,0.029
		c2.07,0.109,3.863,0.531,5.543,1.107c0.416,0.146,0.826,0.295,1.23,0.457c2.039,0.82,3.979,1.803,6.158,3.049
		c2.205,1.264,4.203,3.098,5.797,5.211c1.604,2.109,2.807,4.477,3.645,6.734c1.691,4.543,1.949,8.516,2.115,9.896l0.346,0.738
		c0.139-0.986-0.049-3.041-0.488-5.123c-0.428-2.094-1.123-4.184-1.547-5.461l-0.859-2.246c-0.031-0.078-0.041-0.113-0.035-0.113
		c0.018,0.008,0.439,0.955,0.895,2.359c0.27,0.73,0.576,1.605,0.891,2.652c-0.221-1.398-0.51-2.734-0.727-3.699
		c-0.27-0.633-0.561-1.262-0.867-1.893c-1.365-2.768-3.062-5.166-5.004-7.383c-0.686-0.838-2.412-2.357-3.18-3.053
		c3.396,2.574,6.205,6.039,8.283,10.027l-0.141-0.348c-1.066-2.117-2.338-4.105-3.807-5.895l-0.773-0.906
		c0.262,0.301,0.525,0.598,0.773,0.906c0.674,0.773,1.342,1.506,2.014,2.414c0.395,0.578,0.768,1.312,1.125,1.918
		c0.287,0.502,0.465,1.035,0.668,1.562l0.465,0.961c0.057,0.082,0.115,0.18,0.168,0.275v-0.018c0.014-0.539-0.867-2.945-2.197-5.148
		c-1.295-2.227-3.041-4.168-3.609-4.613c-0.896-0.732-1.943-1.037-2.982-1.729c-0.334-0.217-0.562-0.502-0.859-0.604
		c-0.012-0.006-0.029-0.012-0.043-0.016c-0.057,0.043-0.217-0.002-0.375-0.043c-0.631-0.367-1.182-0.908-1.75-1.105
		c-0.076-0.023-0.152-0.039-0.225-0.055c-0.004,0-0.004-0.004-0.006-0.004c-0.191-0.066-0.443-0.424-0.678-0.777
		C262.946,70.414,262.729,70.066,262.612,70.023"/>
</g>
<g>
	<path fill="#652121" d="M262.55,71.167c-0.02-0.008-0.035-0.008-0.047,0.004c-0.234,0.211-0.311,0.281-0.375,0.258
		c-0.096-0.031-0.16-0.293-0.75-0.576c-0.006,0-0.008-0.002-0.014-0.006c-0.062-0.02-0.203-0.004-0.352,0.008
		c-0.152,0.012-0.316,0.023-0.434-0.02c-0.016-0.004-0.027-0.008-0.041-0.018c-0.188-0.111-0.346-0.188-0.498-0.236
		c-0.461-0.16-0.83-0.102-1.564-0.234c-1.482-0.125-1.699-0.637-3.092-0.371c-0.166-0.002-2.24,0.125-2.238,0.141
		c-1.588-0.143-2.59,0.266-3.822-0.154c-1.447,0.564-3.379,0.35-4.916,0.842c-1.527,0.482-2.207,0.332-3.607,0.518
		c-0.393,0.096-0.67,0.234-0.914,0.234c-0.242-0.002-0.723,0.48-1.107,0.604l0.047-0.227l-0.521,0.162
		c-0.041,0.012-0.066,0.014-0.082,0.01c-0.041-0.012-0.029-0.068-0.018-0.121c0.027-0.121,0.047-0.24-0.066-0.281
		c-0.029-0.008-0.068-0.016-0.117-0.012c-0.562,0.137-1.125,0.324-1.699,0.551c-0.516,0.375-1.018,0.766-1.492,1.176
		c0,0.098-0.006,0.199-0.055,0.305l-0.408,0.402c-0.025,0.23,0.076,0.402,0.064,0.559c0.186,0.496-0.242,1.348,0.086,1.707
		c0.002,0.004,0.012,0.006,0.018,0.008c0.158,0.057,0.955-0.375,1.4-0.342c0.002,0,0.006,0,0.006,0.002
		c0.102,0.033-0.039,0.305-0.059,0.527c0.217-0.121,0.354-0.154,0.43-0.129c0.092,0.031,0.086,0.152,0.01,0.309l0.234-0.1
		l-0.029,0.303c1.285-0.457,2.754-0.664,3.896-1.391c0.252-0.137,0.65-0.453,0.922-0.656c0.135-0.102,0.479-0.109,0.598-0.131
		c0.17-0.244,0.105-0.443,0.158-0.666c0.955-0.154,2.963-0.328,2.842-1.008c0.754-0.137,0.879-0.5,1.67-0.684
		c1.047-0.246,2.383-0.465,3.695-0.547c0.721-0.074,1.408-0.074,2.1-0.047c0.258,0.008,0.51,0.012,0.744,0.031
		c2.072,0.107,3.865,0.529,5.543,1.109c0.42,0.145,0.826,0.297,1.234,0.457c2.035,0.816,3.975,1.801,6.154,3.047
		c2.209,1.262,4.205,3.094,5.799,5.209c1.605,2.111,2.807,4.479,3.646,6.736c1.688,4.543,1.945,8.516,2.113,9.895l0.346,0.738
		c0.137-0.986-0.047-3.037-0.49-5.123c-0.428-2.088-1.121-4.184-1.547-5.461l-0.857-2.244c-0.029-0.076-0.041-0.113-0.035-0.111
		c0.018,0.006,0.441,0.955,0.893,2.355c0.27,0.736,0.578,1.607,0.891,2.654c-0.219-1.4-0.51-2.734-0.727-3.697
		c-0.27-0.633-0.559-1.264-0.867-1.896c-1.365-2.766-3.061-5.16-5.004-7.383c-0.686-0.834-2.41-2.357-3.178-3.049
		c3.395,2.576,6.207,6.035,8.281,10.025l-0.137-0.348c-1.07-2.121-2.342-4.102-3.809-5.893l-0.773-0.908
		c0.264,0.299,0.523,0.598,0.773,0.908c0.676,0.768,1.342,1.502,2.012,2.414c0.398,0.576,0.768,1.311,1.125,1.916
		c0.287,0.504,0.467,1.035,0.672,1.562l0.463,0.961c0.055,0.084,0.113,0.176,0.17,0.273v-0.014c0.014-0.545-0.871-2.943-2.201-5.15
		c-1.295-2.227-3.041-4.166-3.609-4.611c-0.896-0.736-1.941-1.041-2.979-1.732c-0.338-0.213-0.562-0.5-0.859-0.602
		c-0.014-0.008-0.029-0.01-0.047-0.016c-0.055,0.041-0.213,0-0.375-0.043c-0.629-0.367-1.18-0.906-1.748-1.102
		c-0.074-0.027-0.15-0.045-0.227-0.059c0,0-0.002,0-0.006,0c-0.189-0.068-0.439-0.43-0.674-0.781
		C262.884,71.556,262.667,71.205,262.55,71.167"/>
</g>
</svg>
